<?xml version="1.0" standalone="no"?>
<!DOCTYPE svg PUBLIC "-//W3C//DTD SVG 1.1//EN" "http://www.w3.org/Graphics/SVG/1.1/DTD/svg11.dtd" >
<svg>
<metadata>
Created by FontForge 20090914 at Tue Jun  2 14:26:55 2020
 By www-data
Copyright (c) Typographer Mediengestaltung, 2000. All rights reserved. Full character set added by Dieter Steffmann, Kreuztal. (aka Polonaise)
</metadata>
<defs>
<font id="ChopinScript" horiz-adv-x="426" >
  <font-face 
    font-family="Chopin Script"
    font-weight="400"
    font-stretch="normal"
    units-per-em="1000"
    panose-1="2 0 5 5 2 0 0 2 0 2"
    ascent="800"
    descent="-200"
    x-height="299.999"
    cap-height="678.002"
    bbox="-447.003 -425.001 1611 930"
    underline-thickness="50"
    underline-position="-125"
    unicode-range="U+000D-U+E001"
  />
<missing-glyph horiz-adv-x="500" 
d="M63 0h375v930h-375v-930zM125 63v805h250v-805h-250z" />
    <glyph glyph-name=".notdef" horiz-adv-x="500" 
d="M63 0h375v930h-375v-930zM125 63v805h250v-805h-250z" />
    <glyph glyph-name="dotlessi" unicode="&#xd;" horiz-adv-x="236" 
d="M258 218l-8.00098 6.99902c-26 -31.333 -63 -71.333 -111 -120c-65.333 -66 -105.666 -99 -120.999 -99c-14.667 0 -22 8.66699 -22 26c0 13.333 2.66699 26 8 38l127 242c-4 -1.33301 -10.667 -6.66602 -20 -15.999s-15.333 -14 -18 -14c-0.666992 0 -5 1.5 -13 4.5
s-15 4.5 -21 4.5c-10 0 -19 -7 -27 -21l-37.5 -67.5c-10.333 -18.333 -18.166 -32.833 -23.499 -43.5c-24.667 -44.667 -37 -82.667 -37 -114c0 -38.667 20.667 -58 62 -58c43.333 0 130.666 77 261.999 231z" />
    <glyph glyph-name="fraction" horiz-adv-x="170" 
d="M326 656l-17.0029 1.99902c-89.333 -101.333 -168.666 -197 -237.999 -287s-129 -176 -179 -258c-46.667 -74.667 -70 -124.334 -70 -149.001c0 -4 1.66699 -6 5 -6c0.666992 0 4.66699 5.66699 12 17c6.66699 10.667 12.334 16 17.001 16c23.333 0 41 15 53 45
c9.33301 24.667 29.333 62.334 60 113.001s72.334 114.334 125.001 191.001l131.5 186.5c38.333 52.333 71.833 95.5 100.5 129.5z" />
    <glyph glyph-name="fi" horiz-adv-x="443" 
d="M415 416c0 10 -3.5 18.168 -10.5 24.501s-15.5 9.5 -25.5 9.5c-14 0 -26 -5.16699 -36 -15.5s-15 -22.5 -15 -36.5c0 -10.667 3.66699 -19.834 11 -27.501s16.333 -11.5 27 -11.5c13.333 0 24.833 6 34.5 18s14.5 25 14.5 39zM465 218.001l-8.00098 6.99902
c-26 -31.333 -63 -71.333 -111 -120c-65.333 -66 -105.666 -99 -120.999 -99c-16 0 -24 8.66699 -24 26c0 14 3.33301 26.667 10 38l137 242c-4 -1.33301 -10.667 -6.66602 -20 -15.999s-15.333 -14 -18 -14c-0.666992 0 -5 1.5 -13 4.5s-15 4.5 -21 4.5
c-10 0 -19 -7 -27 -21l-40 -66l-28 -45c-28 -47.333 -42 -85.333 -42 -114c0 -38.667 20.667 -58 62 -58c44.667 0 132.667 77 264 231zM370.999 566c0 9.33301 -4.16797 17.834 -12.501 25.501s-17.166 11.5 -26.499 11.5c-42 0 -98.333 -46 -169 -138
c-22 -28.667 -44.167 -59.667 -66.5 -93s-44.833 -69.333 -67.5 -108h-59l-10 -18h58c-17.333 -32 -37.833 -72 -61.5 -120l-82.5 -172c-50 -106.667 -86.333 -176.334 -109 -209.001c-37.333 -53.333 -75 -80 -113 -80c-21.333 0 -40.333 6.33301 -57 19
c-18.667 12.667 -28 29.667 -28 51c0 14.667 5 31.667 15 51c10.667 22 23 33 37 33s21 -8.66699 21 -26c0 -8 -10.333 -13.333 -31 -16c10 -17.333 21 -26 33 -26c14 0 26.667 4.33301 38 13s17 20 17 34c0 13.333 -4.83301 25.166 -14.5 35.499s-21.167 15.5 -34.5 15.5
c-25.333 0 -47.666 -10.667 -66.999 -32c-18.667 -21.333 -28 -45.666 -28 -72.999c0 -26.667 9.5 -48.334 28.5 -65.001s42.5 -25 70.5 -25c52 0 102.667 26.667 152 80c45.333 49.333 97.666 131 156.999 245l135 267h71l10 18h-55c56 28.667 109 70.667 159 126
c60 64.667 90 123.334 90 176.001zM331.998 558.001c0 -31.333 -16 -70.333 -48 -117c-41.333 -61.333 -100.333 -120.333 -177 -177c11.333 25.333 25.5 53.5 42.5 84.5l59.5 103.5c54.667 90 90 135 106 135c11.333 0 17 -9.66699 17 -29z" />
    <glyph glyph-name="fl" horiz-adv-x="443" 
d="M600 624c0 8.66699 -2.99609 16.8359 -8.99609 24.5029s-13.333 11.5 -22 11.5c-36.667 0 -95.667 -51.667 -177 -155c-28.667 -36.667 -54.834 -72.334 -78.501 -107.001s-44.834 -68.334 -63.501 -101.001c-56.667 -98.667 -85 -174.667 -85 -228
c0 -22.667 4.33301 -41.334 13 -56.001c11.333 -18 27 -26.667 47 -26c48.667 2 96.667 30 144 84c26.667 30.667 58.667 79.667 96 147l-8 7c-24 -46 -52.667 -89.667 -86 -131c-46.667 -58.667 -86.334 -88 -119.001 -88c-14 0 -21 8 -21 24c0 36 10.333 76 31 120l48 105
c90 52.667 163.333 121.667 220 207c45.333 68.667 68.666 122.667 69.999 162zM371.004 566.002c0 9.33301 -4.16797 17.834 -12.501 25.501s-17.166 11.5 -26.499 11.5c-42 0 -98.333 -46 -169 -138c-22 -28.667 -44.167 -59.667 -66.5 -93s-44.833 -69.333 -67.5 -108
h-59l-10 -18h58c-17.333 -32 -37.833 -72 -61.5 -120l-82.5 -172c-50 -106.667 -86.333 -176.334 -109 -209.001c-37.333 -53.333 -75 -80 -113 -80c-21.333 0 -40.333 6.33301 -57 19c-18.667 12.667 -28 29.667 -28 51c0 14.667 5 31.667 15 51c10.667 22 23 33 37 33
s21 -8.66699 21 -26c0 -8 -10.333 -13.333 -31 -16c10 -17.333 21 -26 33 -26c14 0 26.667 4.33301 38 13s17 20 17 34c0 13.333 -4.83301 25.166 -14.5 35.499s-21.167 15.5 -34.5 15.5c-25.333 0 -47.666 -10.667 -66.999 -32c-18.667 -21.333 -28 -45.666 -28 -72.999
c0 -26.667 9.5 -48.334 28.5 -65.001s42.5 -25 70.5 -25c52 0 102.667 26.667 152 80c45.333 49.333 97.666 131 156.999 245l135 267h71l10 18h-55c56 28.667 109 70.667 159 126c60 64.667 90 123.334 90 176.001zM557.003 618.003c0 -32 -22 -84 -66 -156
c-51.333 -83.333 -104.666 -141.333 -159.999 -174c7.33301 20.667 19.166 47.167 35.499 79.5s36.833 70.833 61.5 115.5c58 104 96.333 156 115 156c9.33301 0 14 -7 14 -21zM332.003 558.003c0 -31.333 -16 -70.333 -48 -117
c-41.333 -61.333 -100.333 -120.333 -177 -177c11.333 25.333 25.5 53.5 42.5 84.5l59.5 103.5c54.667 90 90 135 106 135c11.333 0 17 -9.66699 17 -29z" />
    <glyph glyph-name="space" unicode=" " horiz-adv-x="303" 
 />
    <glyph glyph-name="exclam" unicode="!" horiz-adv-x="328" 
d="M411 641c0 26 -8.66699 38.999 -26 38.999c-30.667 0 -59.667 -31.667 -87 -95l-87 -206.5l-59 -137.5c-3.33301 -8.66699 -7.5 -18.167 -12.5 -28.5s-10.833 -21.166 -17.5 -32.499h11c48 76.667 84 132.667 108 168c113.333 163.333 170 261 170 293zM97 49.999
c0 33.333 -14 49.999 -42 49.999c-15.333 0 -28.5 -6.16699 -39.5 -18.5s-16.5 -26.166 -16.5 -41.499c0 -32 13.333 -48 40 -48c15.333 0 28.833 5.83301 40.5 17.5s17.5 25.167 17.5 40.5z" />
    <glyph glyph-name="quotedbl" unicode="&#x22;" horiz-adv-x="218" 
d="M334 624c0 12.667 -4.33105 23.499 -12.998 32.499s-19.334 13.5 -32.001 13.5c-15.333 0 -28.5 -6.33301 -39.5 -19s-16.5 -26.667 -16.5 -42c0 -20 13 -36.333 39 -49c4.66699 -2 7 -6.33301 7 -13c0 -12 -10.333 -25.333 -31 -40
c-13.333 -7.33301 -20 -12.333 -20 -15c0 -4 3 -6.33301 9 -7c13.333 0 28.666 9.66699 45.999 29c34 36.667 51 73.334 51 110.001zM233.002 623.999c0 12.667 -4.33105 23.499 -12.998 32.499s-19.334 13.5 -32.001 13.5c-15.333 0 -28.5 -6.33301 -39.5 -19
s-16.5 -26.667 -16.5 -42c0 -20 13 -36.333 39 -49c4.66699 -2 7 -6.33301 7 -13c0 -12 -10.333 -25.333 -31 -40c-13.333 -7.33301 -20 -12.333 -20 -15c0 -4 3 -6.33301 9 -7c13.333 0 28.666 9.66699 45.999 29c34 36.667 51 73.334 51 110.001z" />
    <glyph glyph-name="numbersign" unicode="#" horiz-adv-x="495" 
d="M443 414h-102l89 162h-22l-89 -162h-119l89 162h-22l-89 -162h-96l-33 -60h96l-61 -111h-95l-33 -60h95l-99 -183h21l99 183h120l-101 -183h21l101 183h101l34 60h-102l62 111h101zM286 354l-62 -111h-119l62 111h119z" />
    <glyph glyph-name="dollar" unicode="$" horiz-adv-x="370" 
d="M336 426c0 18 -6.00293 34.3359 -18.0029 49.0029s-27 24.667 -45 30l31 59l-14 6l-33 -61c-1.33301 0.666992 -7.66602 1 -18.999 1c-34.667 0 -63.667 -9.66699 -87 -29c-24.667 -20.667 -37 -48.334 -37 -83.001c0 -18 3.33301 -36 10 -54l33 -91
c10.667 -28 16 -47.333 16 -58c0 -10 -2.33301 -19.833 -7 -29.5s-11 -18 -19 -25s-17 -12.667 -27 -17s-20 -6.5 -30 -6.5c-22.667 0 -42 7.16699 -58 21.5s-24 32.5 -24 54.5c0 8 1.33301 16.333 4 25s6.33398 16.5 11.001 23.5s10.334 12.667 17.001 17s14 6.5 22 6.5
c16.667 0 25 -7 25 -21c0 -13.333 -11.667 -21.666 -35 -24.999c15.333 -23.333 30 -35 44 -35c13.333 0 24.833 5.66699 34.5 17s14.5 23.666 14.5 36.999c0 18 -6.66699 32.833 -20 44.5s-29.333 17.5 -48 17.5c-12 0 -23.333 -2.66699 -34 -8s-20 -12.333 -28 -21
s-14.167 -18.834 -18.5 -30.501s-6.5 -23.834 -6.5 -36.501c0 -39.333 17.333 -71.333 52 -96l-51 -99l15 -6l52 97c16 -4 35.333 -6 58 -6c38.667 0 70 11.167 94 33.5s36 52.833 36 91.5c0 28.667 -5.33301 54 -16 76l-31 67c-11.333 26 -17 49.667 -17 71
c0 17.333 6 31.833 18 43.5s26.667 17.5 44 17.5c15.333 0 28.5 -4.5 39.5 -13.5s16.5 -21.167 16.5 -36.5c0 -19.333 -8 -29 -24 -29c-7.33301 0 -17.666 3.66699 -30.999 11c-0.666992 -2 -1 -9.33301 -1 -22c0 -24.667 12.667 -37 38 -37c15.333 0 28.166 6 38.499 18
s15.5 25.667 15.5 41z" />
    <glyph glyph-name="percent" unicode="%" horiz-adv-x="504" 
d="M491 599c0 11.333 -6.66602 17.001 -19.999 17.001c-30 0 -70 -35.667 -120 -107c-25.333 -10.667 -54.666 -17.334 -87.999 -20.001c1.33301 8.66699 2.5 16.667 3.5 24s1.5 14.666 1.5 21.999c0 38.667 -16 58 -48 58c-39.333 0 -76.333 -22.333 -111 -67
c-34 -42 -51 -83 -51 -123c0 -18.667 6.33301 -35 19 -49s28 -21 46 -21c27.333 0 55.666 16.667 84.999 50c23.333 27.333 40.666 57 51.999 89l73 13l-95 -120.5l-102 -119.5l-37 -41.5l-31 -32.5c-58 -60 -100 -129.333 -126 -208l12 -1c8 18.667 16.333 28 25 28h12
c6.66699 0 12.667 2 18 6c32 56 59.333 98 82 126l155 198c46.667 62 89 121.333 127 178c78.667 42.667 118 76.334 118 101.001zM381.001 209.001c0 40.667 -18.001 61 -54.001 61c-35.333 0 -70.666 -22.667 -105.999 -68c-34 -43.333 -51 -83 -51 -119
c0 -19.333 6 -36.5 18 -51.5s27.333 -22.5 46 -22.5c39.333 0 74.333 24.333 105 73c28 44 42 86.333 42 127zM474 594.001c0 -12.667 -29 -36 -87 -70c34.667 52 60.667 78 78 78c6 0 9 -2.66699 9 -8zM251 534.001c0 -10.667 -2.66699 -24.999 -8 -42.999
c-32.667 2 -49 15.667 -49 41c0 9.33301 3 17.666 9 24.999s13.333 11 22 11c17.333 0 26 -11.333 26 -34zM240 475.002c-6 -22 -18.334 -46.001 -37.001 -72.001c-23.333 -31.333 -43.666 -47 -60.999 -47c-16.667 0 -25 9 -25 27c0 33.333 18.333 81.333 55 144
c8 -16.667 15.667 -28.667 23 -36c9.33301 -5.33301 24.333 -10.666 45 -15.999zM361.999 198.001c0 -27.333 -12.334 -61.333 -37.001 -102c-26 -44 -51.333 -66 -76 -66c-14 0 -21 10 -21 30c0 28.667 11.333 65.667 34 111c24.667 50.667 49.334 76 74.001 76
c17.333 0 26 -16.333 26 -49z" />
    <glyph glyph-name="ampersand" unicode="&#x26;" horiz-adv-x="854" 
d="M867 548c0 24 -12.333 47.998 -37 71.998l-7 -7c17.333 -23.333 26 -44.666 26 -63.999c0 -41.333 -32.333 -76.333 -97 -105c-9.33301 -4 -26.166 -10.167 -50.499 -18.5l-96.5 -31.5c-128 -40 -195 -94.333 -201 -163c-15.333 -6 -29.166 -12.167 -41.499 -18.5
s-23.833 -12.833 -34.5 -19.5c-0.666992 3.33301 -1 11.333 -1 24c0 46.667 14.667 89.667 44 129c30.667 42 69.334 63 116.001 63c9.33301 0 18.166 -0.333008 26.499 -1s16.5 -1.66699 24.5 -3l-3 11c-36.667 24.667 -55 57.334 -55 98.001c0 42 15 78 45 108
c30.667 30.667 67 46 109 46c23.333 0 43.833 -6 61.5 -18s26.5 -29.333 26.5 -52c0 -18 -6.5 -33.667 -19.5 -47s-28.5 -20 -46.5 -20c-24 0 -44.333 12.333 -61 37l-16 -2c18.667 -34 44 -51 76 -51c10.667 0 21.167 2.33301 31.5 7s19.166 10.667 26.499 18
s13.333 16 18 26s7 20.667 7 32c0 34 -17.667 61.667 -53 83c-30.667 17.333 -64.334 26 -101.001 26c-52 0 -95.333 -14.333 -130 -43c-38 -31.333 -57 -71.666 -57 -120.999c0 -30.667 11.667 -61.667 35 -93c-66 0 -119.333 -22.333 -160 -67
c-40.667 -43.333 -61 -98 -61 -164c0 -20.667 3 -45 9 -73c-11.333 -1.33301 -20.833 -2.5 -28.5 -3.5s-14.167 -1.5 -19.5 -1.5c-36 0 -65 13.333 -87 40s-33 58.334 -33 95.001l2 42c-16 -1.33301 -28 -9.33301 -36 -24c-7.33301 -12.667 -11 -27.334 -11 -44.001
c0 -40.667 17 -74 51 -100c30.667 -24 67 -36 109 -36c18 0 39 3 63 9c17.333 -41.333 49 -74.333 95 -99c41.333 -21.333 86.333 -32 135 -32c62 0 115 17 159 51c47.333 38 71 87.333 71 148c0 18 -3 35 -9 51s-14.5 30 -25.5 42s-24 21.667 -39 29
s-31.5 11.666 -49.5 12.999l178 81c81.333 37.333 122 84.333 122 141zM584 181.998c0 -16.667 -6.16699 -30.667 -18.5 -42s-26.833 -17 -43.5 -17c-21.333 0 -38.833 6.33301 -52.5 19s-20.5 29.667 -20.5 51c0 10 1.66699 21.667 5 35c26 10.667 46.667 16 62 16
c18.667 0 34.667 -5.83301 48 -17.5s20 -26.5 20 -44.5zM669 189.998c0 -46 -16.333 -85.334 -49 -118.001c-33.333 -33.333 -72.333 -50 -117 -50c-40 0 -77.333 14.667 -112 44c-34 29.333 -53.667 64 -59 104c18.667 11.333 34 20.333 46 27l27 15
c1.33301 -31.333 13 -56.666 35 -75.999c23.333 -19.333 50.333 -29 81 -29c22.667 0 42.667 6.33301 60 19s26 30 26 52c0 10.667 -2.5 21 -7.5 31s-11.5 18.667 -19.5 26s-17.333 13.166 -28 17.499s-21.667 6.5 -33 6.5c-12 0 -31 -3.33301 -57 -10
c14.667 20.667 27 34.667 37 42c14 10 31.333 15 52 15c16 0 31.167 -3 45.5 -9s26.833 -14.167 37.5 -24.5s19.167 -22.666 25.5 -36.999s9.5 -29.5 9.5 -45.5z" />
    <glyph glyph-name="quotesingle" unicode="'" horiz-adv-x="0" 
d="M137 624c0 12.667 -4.33105 23.499 -12.998 32.499s-19.334 13.5 -32.001 13.5c-15.333 0 -28.5 -6.33301 -39.5 -19s-16.5 -26.667 -16.5 -42c0 -20 13 -36.333 39 -49c4.66699 -2 7 -6.33301 7 -13c0 -12 -10.333 -25.333 -31 -40
c-13.333 -7.33301 -20 -12.333 -20 -15c0 -4 3 -6.33301 9 -7c13.333 0 28.666 9.66699 45.999 29c34 36.667 51 73.334 51 110.001z" />
    <glyph glyph-name="parenleft" unicode="(" horiz-adv-x="340" 
d="M596 776c0 5.33301 -6.66699 8 -20 8c-14 0 -51.333 -22.333 -112 -67c-82 -60 -155.667 -129.667 -221 -209c-86.667 -104.667 -130 -225.334 -130 -362.001c0 -124.667 42 -233 126 -325c28.667 -32 51 -48 67 -48c7.33301 0 11 5.33301 11 16c0 2.66699 -17 24 -51 64
c-32 36.667 -54.667 75.334 -68 116.001c-11.333 36 -17 80.333 -17 133c0 122.667 33.667 241.334 101 356.001c38.667 66 86.667 125.333 144 178c13.333 12.667 30 26.5 50 41.5s43.333 31.5 70 49.5c33.333 23.333 50 39.666 50 48.999z" />
    <glyph glyph-name="parenright" unicode=")" horiz-adv-x="340" 
d="M320 409c0 126 -42.001 235 -126.001 327c-29.333 32 -51.666 48 -66.999 48c-7.33301 0 -11 -5.33301 -11 -16c0 -2.66699 17 -24 51 -64c56.667 -66.667 85 -150.334 85 -251.001c0 -122.667 -33.667 -241.334 -101 -356.001c-19.333 -32.667 -41 -63.5 -65 -92.5
s-50.333 -56.833 -79 -83.5c-13.333 -13.333 -30 -27.5 -50 -42.5s-42.667 -31.167 -68 -48.5c-33.333 -23.333 -50 -39.666 -50 -48.999c0 -5.33301 6.66699 -8 20 -8c14 0 51.333 22.333 112 67c82 60.667 155 129.667 219 207c86.667 104.667 130 225.334 130 362.001z
" />
    <glyph glyph-name="asterisk" unicode="*" horiz-adv-x="268" 
d="M389 516c0 16 -9.00098 24 -27.001 24c-13.333 0 -25.666 -4.33301 -36.999 -13c-20.667 -14.667 -35 -22 -43 -22c-2 0 -3.66699 0.666992 -5 2c0 4.66699 10.333 14.334 31 29.001c23.333 21.333 35 36.333 35 45c0 16 -9.66699 24 -29 24c-16 0 -29 -7.33301 -39 -22
l-11 -52c-3.33301 -14 -7.33301 -22 -12 -24c-5.33301 0 -10.333 6.33301 -15 19c-1.33301 4.66699 -3 9.16699 -5 13.5s-3.66699 8.83301 -5 13.5c-5.33301 8 -13.333 12 -24 12c-11.333 0 -21.333 -3.16699 -30 -9.5s-13 -14.833 -13 -25.5c0 -12 6.33301 -20.333 19 -25
l13.5 -2c4.33301 -0.666992 8.83301 -1.66699 13.5 -3c13.333 -3.33301 20 -6.33301 20 -9c0 -8.66699 -21 -17.334 -63 -26.001c-24.667 -4.66699 -37 -16.334 -37 -35.001c0 -16.667 9 -25 27 -25c12.667 0 28.667 10.667 48 32c18.667 22 32.667 33 42 33
c1.33301 -1.33301 2 -6 2 -14c0 -3.33301 -2.33301 -10 -7 -20s-7 -16.667 -7 -20c0 -18 9.33301 -27 28 -27c11.333 0 21.666 3.66699 30.999 11s14 16.333 14 27c0 4.66699 -9.66699 17.667 -29 39c-4.66699 4.66699 -7 9.33398 -7 14.001c0.666992 6.66699 4 10 10 10
c2.66699 0 6.66699 -0.5 12 -1.5s10.833 -2.33301 16.5 -4s11 -3 16 -4s9.16699 -1.5 12.5 -1.5c12.667 0 24.834 3.16699 36.501 9.5s17.5 15.5 17.5 27.5z" />
    <glyph glyph-name="plus" unicode="+" horiz-adv-x="336" 
d="M262 276h-99l69 122h-70l-69 -122h-81l-13 -15h86l-69 -123h70l69 123h92z" />
    <glyph glyph-name="comma" unicode="," horiz-adv-x="244" 
d="M127 54c0 12.667 -4.33105 23.501 -12.998 32.501s-19.334 13.5 -32.001 13.5c-15.333 0 -28.5 -6.33301 -39.5 -19s-16.5 -26.667 -16.5 -42c0 -20.667 13 -36.334 39 -47.001c4.66699 -2 7 -6.33301 7 -13c0 -12 -10.333 -25.333 -31 -40
c-13.333 -7.33301 -20 -12.333 -20 -15c0 -4 3 -6.33301 9 -7c13.333 0 28.666 9.66699 45.999 29c34 36.667 51 72.667 51 108z" />
    <glyph glyph-name="hyphen" unicode="-" horiz-adv-x="268" 
d="M234 190c0 4 -1.33008 6 -3.99707 6l-19 -3c-6.66699 -1.33301 -12.834 -2.33301 -18.501 -3s-10.834 -1 -15.501 -1c-4 0 -9.5 0.333008 -16.5 1s-14 1.5 -21 2.5l-21 3c-7 1 -12.5 1.5 -16.5 1.5c-15.333 0 -35 -7 -59 -21c-16.667 -10 -25 -18.333 -25 -25
c0 -4 2 -6 6 -6c2 0 6.66699 1.16699 14 3.5s12.666 3.5 15.999 3.5c10.667 0 27.667 -2 51 -6l30 -3.5c8.66699 -1 15.667 -1.5 21 -1.5c16.667 0 33 3.66699 49 11c19.333 9.33301 29 22 29 38z" />
    <glyph glyph-name="period" unicode="." horiz-adv-x="244" 
d="M118 50c0 33.333 -14 49.999 -42 49.999c-15.333 0 -28.833 -6.16699 -40.5 -18.5s-17.5 -26.166 -17.5 -41.499c0 -32 14 -48 42 -48c15.333 0 28.833 5.83301 40.5 17.5s17.5 25.167 17.5 40.5z" />
    <glyph glyph-name="slash" unicode="/" horiz-adv-x="360" 
d="M416 656l-17.001 2.00098c-92 -104 -172.5 -201.167 -241.5 -291.5s-127.5 -174.833 -175.5 -253.5c-46.667 -75.333 -70 -125 -70 -149c0 -4 1.66699 -6 5 -6c0.666992 0 4.66699 5.66699 12 17c6.66699 10.667 12.334 16 17.001 16c23.333 0 41 15 53 45
c18 49.333 79.667 150.666 185 303.999l131.5 186.5c38.333 52.333 71.833 95.5 100.5 129.5z" />
    <glyph glyph-name="zero" unicode="0" horiz-adv-x="522" 
d="M483 489c0 38 -11.502 66.833 -34.502 86.5s-53.5 29.5 -91.5 29.5c-62.667 0 -126 -29 -190 -87c-52 -46.667 -97.667 -106.667 -137 -180c-42 -79.333 -63 -151 -63 -215c0 -18 3.16699 -35 9.5 -51s15.333 -29.667 27 -41s25.334 -20.333 41.001 -27
s32.5 -10 50.5 -10c64.667 0 128.667 28.333 192 85c54.667 50 100.334 112.333 137.001 187c39.333 80 59 154.333 59 223zM413.998 516c0 -52 -21.667 -123.334 -65 -214.001c-18.667 -39.333 -37.834 -75.166 -57.501 -107.499s-39.834 -61.5 -60.501 -87.5
c-53.333 -67.333 -99.666 -101 -138.999 -101c-16 0 -30.5 6.5 -43.5 19.5s-19.5 27.5 -19.5 43.5c0 44 21 109 63 195c30.667 64 68.667 128 114 192c64.667 92 116.334 138 155.001 138c35.333 0 53 -26 53 -78z" />
    <glyph glyph-name="one" unicode="1" horiz-adv-x="299" 
d="M319 531c0 3.33301 -1.66895 4.99902 -5.00195 4.99902c-16 0 -63.667 -37.667 -143 -113c-64 -61.333 -104 -102.333 -120 -123l23 11c59.333 55.333 92.333 83 99 83c-8 -12 -18 -26.167 -30 -42.5l-43 -56.5c-38 -48.667 -69.167 -92.667 -93.5 -132
s-42.833 -74.333 -55.5 -105c-6 -15.333 -12.5 -33.166 -19.5 -53.499s-14.167 -43.166 -21.5 -68.499l21 21.5c6 6.33301 10.667 12.166 14 17.499c5.33301 -0.666992 11.333 -1 18 -1h22h6c2.66699 0 6 0.333008 10 1c4.66699 0.666992 7.33398 1 8.00098 1
c1.33301 0 1 0 -1 0c4.66699 2.66699 14.667 24.667 30 66l30 75.5c9.33301 22.333 18.333 42.833 27 61.5c13.333 28 31.333 60.333 54 97s50.334 79 83.001 127l60 88.5c14.667 21 23.667 34.167 27 39.5z" />
    <glyph glyph-name="two" unicode="2" horiz-adv-x="453" 
d="M416 444c0 40 -11.499 71.833 -34.499 95.5s-54.5 35.5 -94.5 35.5c-42.667 0 -83 -14 -121 -42c-42 -30 -63 -65.667 -63 -107c0 -22 6.5 -40.167 19.5 -54.5s30.5 -21.5 52.5 -21.5c17.333 0 32.166 5.33301 44.499 16s18.5 24.334 18.5 41.001
c0 31.333 -13.667 47 -41 47c-1.33301 0 -3.33301 -0.166992 -6 -0.5s-5.66699 -0.833008 -9 -1.5c0 -2.66699 1.33301 -7.83398 4 -15.501s4 -13.167 4 -16.5c0 -6 -2.83301 -11.5 -8.5 -16.5s-11.5 -7.5 -17.5 -7.5c-12 0 -21.667 5 -29 15s-11 21 -11 33
c0 29.333 12.667 55 38 77c24.667 22 52.334 33 83.001 33c24.667 0 46.167 -7.5 64.5 -22.5s27.5 -34.5 27.5 -58.5c0 -30 -14.667 -66.667 -44 -110c-21.333 -32 -47.666 -62.667 -78.999 -92c-21.333 -20.667 -65 -47.667 -131 -81c-34 -17.333 -62.167 -33 -84.5 -47
s-39.833 -26.333 -52.5 -37c-67.333 -59.333 -101 -97.666 -101 -114.999v-3c0.666992 -3.33301 3 -5.66602 7 -6.99902c0 4 15 8 45 12c28 4 53.333 6 76 6c7.33301 0 16.666 -0.833008 27.999 -2.5s24.333 -4.16699 39 -7.5c31.333 -7.33301 54 -11 68 -11
c31.333 0 65 13 101 39c36.667 26 55 54 55 84c0 5.33301 -0.333008 8.66602 -1 9.99902c-44.667 -36.667 -79.667 -55 -105 -55c-15.333 0 -38 3 -68 9s-52.667 9 -68 9c-12.667 0 -29.667 -2.33301 -51 -7c-23.333 -4 -40.333 -6 -51 -6c0 8.66699 15 24.667 45 48
c34 27.333 62 45.666 84 54.999l137 55c65.333 26 115.666 53 150.999 81c52.667 42 79 90 79 144z" />
    <glyph glyph-name="three" unicode="3" horiz-adv-x="486" 
d="M519 549c-35.333 -16 -63.335 -24.001 -84.002 -24.001c-17.333 0 -43 4 -77 12s-59.667 12 -77 12c-62.667 0 -114.334 -34 -155.001 -102c28 11.333 51.833 19.833 71.5 25.5s35.834 8.83398 48.501 9.50098c22 1.33301 62.667 -6.66699 122 -24l-263 -182
c0 -4.66699 5 -7 15 -7l23 13c14.667 8 27.667 12 39 12c18.667 0 35 -5.33301 49 -16s21 -25.334 21 -44.001c0 -46 -20 -94.333 -60 -145c-44 -56.667 -92.333 -85 -145 -85c-27.333 0 -49 7 -65 21c-18.667 14.667 -28 35.334 -28 62.001c0 19.333 5.66699 36.5 17 51.5
s26 22.5 44 22.5c20 0 30 -10.667 30 -32c0 -10 -11.333 -18 -34 -24c8.66699 -18.667 20.667 -28 36 -28c16 0 29.167 5.5 39.5 16.5s15.5 24.5 15.5 40.5c0 17.333 -6.66699 32.666 -20 45.999s-28.666 20 -45.999 20c-24.667 0 -46.334 -12 -65.001 -36
c-19.333 -23.333 -29 -48 -29 -74c0 -18 3.33301 -34.5 10 -49.5s15.834 -28 27.501 -39s25.334 -19.5 41.001 -25.5s32.5 -9 50.5 -9c64 0 122.333 21.333 175 64c56 46.667 84 101.334 84 164.001c0 36 -10.5 67 -31.5 93s-49.5 40.667 -85.5 44z" />
    <glyph glyph-name="four" unicode="4" horiz-adv-x="473" 
d="M445 585l-27.998 -24.999l-56 3l-77.5 -85l-48.5 -52c-11.333 -12 -31.833 -30.833 -61.5 -56.5l-116.5 -98.5c-65.333 -55.333 -98 -90.666 -98 -105.999c0 -20.667 27.333 -31.334 82 -32.001l101 -3l-28.5 -49c-7 -12 -11.833 -20 -14.5 -24
c-24 -40.667 -38 -74 -42 -100c9.33301 7.33301 17 14.166 23 20.499s10.667 11.833 14 16.5c20.667 -6.66699 37.667 -10 51 -10c7.33301 0 19.666 18.667 36.999 56c3.33301 8.66699 8.16602 20.167 14.499 34.5l22.5 52.5l55 -3c12.667 -0.666992 24 -1.16699 34 -1.5
s19 -0.5 27 -0.5l15 28.5c4 7.66699 6.66699 13.834 8 18.501l-129 -10c113.333 193.333 170 291.666 170 294.999c-5.33301 0 -14 -6.66699 -26 -20c-66.667 -72.667 -119.667 -138 -159 -196l-34.5 -52l-22.5 -33l-73 -4c-16 -1.33301 -34 -0.333008 -54 3
c-28 4 -42 11.333 -42 22c0 22.667 41.667 63.667 125 123l176 124l73 52c44.667 34.667 71.667 64.667 81 90c1.33301 4 2 11.333 2 22z" />
    <glyph glyph-name="five" unicode="5" horiz-adv-x="451" 
d="M479 584c0 2.66699 -0.995117 3.99902 -2.99512 3.99902l-9 -4.5c-6 -3 -15.333 -7.16699 -28 -12.5c-26 -11.333 -44.667 -17 -56 -17c-10.667 0 -26.334 3.33301 -47.001 10c-22 7.33301 -38.333 11 -49 11c-18.667 0 -37.5 -5 -56.5 -15s-32.833 -22.667 -41.5 -38
l-106 -185c-7.33301 -14 -12 -25.333 -14 -34c0 -2 0.666992 -3 2 -3c-4.66699 0 6.33301 11.667 33 35c26 24 47.333 36 64 36c25.333 0 45.666 -8.83301 60.999 -26.5s23 -39.5 23 -65.5c0 -48 -22.333 -105.333 -67 -172c-49.333 -72 -99 -108 -149 -108
c-28.667 0 -52.334 6.66699 -71.001 20c-20.667 16 -31 38.333 -31 67c0 8 1.66699 16.167 5 24.5s7.66602 15.833 12.999 22.5s11.666 12 18.999 16s15 6 23 6c22 0 33 -9.66699 33 -29c0 -16 -9.33301 -25.333 -28 -28c7.33301 -19.333 17.333 -29 30 -29
c14.667 0 27 5.33301 37 16s15 23.334 15 38.001c0 18 -6.66699 33.5 -20 46.5s-29 19.5 -47 19.5c-25.333 0 -47 -10.667 -65 -32c-18.667 -20.667 -28 -44 -28 -70c0 -33.333 13.333 -60.333 40 -81c24.667 -18.667 53.667 -28 87 -28c74 0 139.667 26.333 197 79
c58 52.667 87 115.334 87 188.001c0 36 -11.333 68.333 -34 97c-25.333 31.333 -54.666 47 -87.999 47c-30 0 -61 -6.66699 -93 -20l62 107c25.333 19.333 49.333 29 72 29c7.33301 0 16.5 -0.333008 27.5 -1s23.833 -1.66699 38.5 -3
c15.333 -1.33301 28.5 -2.33301 39.5 -3s20.167 -1 27.5 -1c5.33301 0 16.666 5.66699 33.999 17c5.33301 3.33301 11 7.66602 17 12.999s12.333 11.333 19 18c16.667 16.667 25 29.667 25 39z" />
    <glyph glyph-name="six" unicode="6" horiz-adv-x="481" 
d="M489 522c0 23.333 -11.999 42.668 -35.999 58.001c-20.667 12.667 -43.667 19 -69 19c-100 0 -193.333 -57 -280 -171c-82 -109.333 -123 -214.333 -123 -315c0 -38 13 -70 39 -96c26.667 -26 59 -39 97 -39c62.667 0 120 29.667 172 89c49.333 57.333 74 118 74 182
c0 33.333 -10 62.666 -30 87.999c-22 27.333 -49 41 -81 41c-31.333 0 -62.666 -9.66699 -93.999 -29c81.333 159.333 156.666 239 225.999 239c44 0 66 -15 66 -45c0 -26 -10 -39 -30 -39c-8 0 -17.333 7 -28 21c-10 -3.33301 -15 -10.333 -15 -21
c0 -12.667 4.5 -23.5 13.5 -32.5s19.833 -13.5 32.5 -13.5c17.333 0 32.666 6.33301 45.999 19s20 27.667 20 45zM294.001 291.002c0 -42.667 -20.667 -101.333 -62 -176c-45.333 -79.333 -87 -119 -125 -119c-37.333 0 -56 19 -56 57c0 28 7.33301 65 22 111
c40 128.667 92.667 193 158 193c42 0 63 -22 63 -66z" />
    <glyph glyph-name="seven" unicode="7" horiz-adv-x="436" 
d="M470 591c0 5.33301 -3.6709 7.99902 -11.0039 7.99902l-34 -16c-13.333 -6.66699 -25.333 -10 -36 -10c-16 0 -42.333 3.66699 -79 11c-35.333 8 -60.666 12 -75.999 12c-37.333 0 -67.333 -11 -90 -33c-16 -15.333 -34.333 -43 -55 -83
c36.667 22.667 66.667 36.667 90 42c8.66699 2 18.667 3 30 3c5.33301 0 12.166 -0.333008 20.499 -1s17.833 -1.66699 28.5 -3c11.333 -1.33301 21.166 -2.33301 29.499 -3s15.166 -1 20.499 -1c6 0 13.5 0.5 22.5 1.5s19.167 2.83301 30.5 5.5
c24.667 5.33301 42.334 8 53.001 8c-5.33301 -8.66699 -14.166 -19.334 -26.499 -32.001s-28.166 -27.667 -47.499 -45c-27.333 -24.667 -55.666 -48 -84.999 -70s-60.333 -43.333 -93 -64c-56 -34 -114.667 -95 -176 -183c-55.333 -78.667 -83 -128 -83 -148
c0 -0.666992 -0.166992 -2.16699 -0.5 -4.5s-0.833008 -5.5 -1.5 -9.5v-9c22.667 28.667 45 43 67 43c0.666992 0 2.83398 -0.666992 6.50098 -2s7.33398 -2.5 11.001 -3.5s7 -2 10 -3l4.5 -1.5c2.66699 2.66699 7.5 10.167 14.5 22.5l29.5 50.5
c17.333 30.667 33.333 56.834 48 78.501s27.667 38.834 39 51.501l233 257c70.667 77.333 106 121 106 131z" />
    <glyph glyph-name="eight" unicode="8" horiz-adv-x="520" 
d="M501 479c0 34.667 -15.6689 62.6689 -47.002 84.002c-27.333 18.667 -59.666 28 -96.999 28c-51.333 0 -95.333 -15.333 -132 -46c-38 -33.333 -57 -75 -57 -125c0 -31.333 9 -64.333 27 -99c-150 -35.333 -225 -96.666 -225 -183.999c0 -44.667 18 -81.334 54 -110.001
c34.667 -26 74.667 -39 120 -39c61.333 0 113.333 17.333 156 52c47.333 37.333 71 85.666 71 144.999c0 41.333 -19 88.666 -57 141.999c48.667 10 89.334 25.667 122.001 47c43.333 28 65 63 65 105zM437.998 500.002c0 -38 -14.334 -71.3311 -43.001 -99.998
c-24.667 -26.667 -56 -46.334 -94 -59.001c-18 8.66699 -33 26.667 -45 54c-11.333 24.667 -17 48 -17 70c0 27.333 12.667 53.666 38 78.999c24.667 24.667 51.334 37 80.001 37c54 0 81 -27 81 -81zM290.997 161.004c0 -39.333 -15 -76 -45 -110
c-29.333 -34 -63.333 -51 -102 -51c-30.667 0 -55.334 14.333 -74.001 43c-16.667 24.667 -25 53.334 -25 86.001c0 43.333 16 82.666 48 117.999c32.667 36 70.334 55.333 113.001 58c56.667 -62.667 85 -110.667 85 -144z" />
    <glyph glyph-name="nine" unicode="9" horiz-adv-x="490" 
d="M429 473c0 18.667 -2.99902 36.001 -8.99902 52.001s-14.5 30 -25.5 42s-24.333 21.333 -40 28s-32.834 10 -51.501 10c-66.667 0 -126 -27.667 -178 -83c-51.333 -55.333 -77 -116.333 -77 -183c0 -32 8 -60.333 24 -85c19.333 -27.333 44 -41 74 -41
c33.333 0 63.666 6 90.999 18c-37.333 -68 -67.333 -116 -90 -144c-45.333 -56 -91.333 -84 -138 -84c-36.667 0 -55 16.667 -55 50c0 22.667 9.33301 34 28 34c8.66699 0 18.667 -8 30 -24l9.5 20.5c2.33301 5 3.83301 8.83301 4.5 11.5c0 26 -14.667 39 -44 39
c-15.333 0 -30.666 -6.66699 -45.999 -20s-23 -27.666 -23 -42.999c0 -24.667 13.333 -45 40 -61c22.667 -12.667 47.334 -19 74.001 -19c65.333 0 130.666 28 195.999 84c54.667 47.333 101.667 107.666 141 180.999c43.333 79.333 65 151.666 65 216.999zM363.001 533.001
c0 -60.667 -19.334 -125.333 -58.001 -194c-41.333 -74 -84 -111 -128 -111c-18 0 -33 6.5 -45 19.5s-18 28.5 -18 46.5c0 44.667 23 104.667 69 180c48.667 80 93.334 120 134.001 120c14.667 0 26 -6.33301 34 -19s12 -26.667 12 -42z" />
    <glyph glyph-name="colon" unicode=":" horiz-adv-x="244" 
d="M190 253c0 33.333 -14 50 -42 50c-15.333 0 -28.833 -6.16699 -40.5 -18.5s-17.5 -26.166 -17.5 -41.499c0 -33.333 14 -50 42 -50c15.333 0 28.833 6.16699 40.5 18.5s17.5 26.166 17.5 41.499zM74 45c0 33.333 -14 49.999 -42 49.999
c-15.333 0 -28.5 -6.16699 -39.5 -18.5s-16.5 -26.166 -16.5 -41.499c0 -32 13.333 -48 40 -48c15.333 0 28.833 5.83301 40.5 17.5s17.5 25.167 17.5 40.5z" />
    <glyph glyph-name="semicolon" unicode=";" horiz-adv-x="244" 
d="M180 253c0 33.333 -14 50 -42 50c-15.333 0 -28.833 -6.16699 -40.5 -18.5s-17.5 -26.166 -17.5 -41.499c0 -33.333 14 -50 42 -50c15.333 0 28.833 6.16699 40.5 18.5s17.5 26.166 17.5 41.499zM83 54c0 12.667 -4.33301 23.5 -13 32.5s-19.334 13.5 -32.001 13.5
c-15.333 0 -28.166 -6.33301 -38.499 -19s-15.5 -26.667 -15.5 -42c0 -20.667 12.333 -36.334 37 -47.001c4.66699 -2 7 -6.33301 7 -13c0 -11.333 -9.66699 -24.666 -29 -39.999l-14 -7c-4 -2 -6 -4.66699 -6 -8c0 -4 3 -6.33301 9 -7c12 0 26.667 9.66699 44 29
c34 36.667 51 72.667 51 108z" />
    <glyph glyph-name="less" unicode="&#x3c;" horiz-adv-x="954" 
d="M918 172c0 21.333 -8.66406 37.6631 -25.9971 48.9961c-14.667 10.667 -33 16 -55 16c-38 0 -89 -11.333 -153 -34c-1.33301 1.33301 -6.5 5.83301 -15.5 13.5l-37.5 33.5c-35.333 31.333 -76 54.666 -122 69.999c0 18 9.66699 35 29 51c18.667 16 37.667 24 57 24
c39.333 0 76.333 -12.667 111 -38c22 -16.667 49.333 -45.667 82 -87l18 -2c-73.333 102 -143.666 153 -210.999 153c-29.333 0 -55.333 -9 -78 -27c-23.333 -18 -35 -41 -35 -69c-22 2 -37 3 -45 3c-42.667 0 -93 -28 -151 -84c-32 -21.333 -54.333 -35.333 -67 -42
c-24.667 -11.333 -50 -17 -76 -17c-34 0 -62 12.333 -84 37s-33 54.334 -33 89.001c0 28.667 13 54 39 76c25.333 22.667 53 34 83 34c32.667 0 58.667 -9.33301 78 -28s29 -44.334 29 -77.001c0 -49.333 -26.667 -74 -80 -74c-12 0 -23 4.33301 -33 13s-15 19 -15 31
c0 22 8.66699 34 26 36c2.66699 0.666992 6 0.5 10 -0.5s8 -2.16699 12 -3.5s7.66699 -2.66602 11 -3.99902s5.33301 -2 6 -2c2 0 3 1 3 3c0 39.333 -16.333 59 -49 59c-18 0 -33.333 -7.16699 -46 -21.5s-19 -30.5 -19 -48.5c0 -24 10 -43.333 30 -58
c17.333 -14.667 38.333 -22 63 -22c26 0 47.667 8.66699 65 26s26 39 26 65c0 32.667 -11.667 60.667 -35 84s-51.333 35 -84 35c-36.667 0 -68 -11 -94 -33c-28 -23.333 -42 -53 -42 -89c0 -37.333 12.667 -70.333 38 -99c26 -27.333 57.667 -41 95 -41
c44 0 89.333 17.333 136 52c-12.667 -24.667 -19 -52.667 -19 -84c0 -36 13.667 -67.667 41 -95c26.667 -26.667 58.667 -40 96 -40c36.667 0 68.667 11 96 33c26.667 22.667 40 52.334 40 89.001c0 14.667 -2.66699 28.834 -8 42.501s-12.5 25.667 -21.5 36
s-20 18.5 -33 24.5s-26.833 9 -41.5 9c-24.667 0 -46 -7.66699 -64 -23s-27 -35.333 -27 -60c0 -20 7.16699 -38 21.5 -54s31.5 -24 51.5 -24c15.333 0 27.833 6.16699 37.5 18.5s14.5 26.166 14.5 41.499c0 17.333 -6 26 -18 26l-10 -15
c-6.66699 -9.33301 -14.667 -14.666 -24 -15.999c-20.667 -0.666992 -31 11.333 -31 36c0 15.333 4.33301 28.333 13 39s20.667 16 36 16c28.667 0 51.5 -9 68.5 -27s25.5 -41.333 25.5 -70c0 -67.333 -42 -101 -126 -101c-26.667 0 -53.334 12.333 -80.001 37
c-27.333 25.333 -41 51 -41 77c0 42 7.66699 73.667 23 95s35.333 40 60 56c27.333 17.333 53.333 26 78 26c15.333 0 30.666 -1.66699 45.999 -5c0 -35.333 12.333 -66.666 37 -93.999c25.333 -27.333 54.666 -41 87.999 -41c18 0 38.333 2.66699 61 8
c67.333 -48.667 127.666 -73 180.999 -73c19.333 0 35.5 5.33301 48.5 16s19.5 25.334 19.5 44.001zM907.003 171.997c0 -14.667 -5.66699 -26.168 -17 -34.501s-24.666 -12.5 -39.999 -12.5c-34.667 0 -86.334 22.333 -155.001 67c50.667 21.333 98 32 142 32
c18 0 33.667 -4 47 -12c15.333 -9.33301 23 -22.666 23 -39.999zM658.003 194.996c-10 -1.33301 -19.167 -2.50098 -27.5 -3.50098s-15.833 -1.5 -22.5 -1.5c-27.333 0 -51 13 -71 39c-19.333 24.667 -29 50.667 -29 78c13.333 -5.33301 25.5 -10.5 36.5 -15.5
s20.167 -10.167 27.5 -15.5l45.5 -41c14.333 -13.333 27.833 -26.666 40.5 -39.999z" />
    <glyph glyph-name="equal" unicode="=" horiz-adv-x="481" 
d="M403 336c0 6 -3.66602 9.00098 -10.999 9.00098c-4.66699 0 -10.334 -0.333008 -17.001 -1s-14.667 -1.66699 -24 -3s-17.333 -2.33301 -24 -3s-12.334 -1 -17.001 -1c-10 0 -22.5 0.5 -37.5 1.5l-52.5 3.5c-39.333 4 -69 6 -89 6c-22.667 0 -52 -6.66699 -88 -20
c-28.667 -10.667 -43 -23.334 -43 -38.001c0 -3.33301 1.66699 -5 5 -5c13.333 0 32.666 1 57.999 3c13.333 1.33301 24.833 2.33301 34.5 3s17.834 1 24.501 1c16.667 0 42.667 -2 78 -6l46 -3.5c13.333 -1 24.333 -1.5 33 -1.5c38.667 0 75.334 12.667 110.001 38
c9.33301 7.33301 14 13 14 17zM403.001 200.001c0 6 -3.66602 9.00098 -10.999 9.00098c-4.66699 0 -10.334 -0.333008 -17.001 -1s-14.667 -1.66699 -24 -3s-17.333 -2.33301 -24 -3s-12.334 -1 -17.001 -1c-10 0 -22.5 0.5 -37.5 1.5l-52.5 3.5c-39.333 4 -69 6 -89 6
c-22.667 0 -52 -6.66699 -88 -20c-28.667 -10.667 -43 -23.334 -43 -38.001c0 -3.33301 1.66699 -5 5 -5c13.333 0 32.666 1 57.999 3c13.333 1.33301 24.833 2.33301 34.5 3s17.834 1 24.501 1c16.667 0 42.667 -2 78 -6l46 -3.5c13.333 -1 24.333 -1.5 33 -1.5
c38.667 0 75.334 12.667 110.001 38c9.33301 7.33301 14 13 14 17z" />
    <glyph glyph-name="greater" unicode="&#x3e;" horiz-adv-x="954" 
d="M932 312c0 35.333 -13.6592 64.6689 -40.9922 88.002c-26.667 22.667 -58.334 34 -95.001 34c-33.333 0 -61.666 -11.667 -84.999 -35c-22.667 -22.667 -34 -50.667 -34 -84c0 -26 8.66699 -47.667 26 -65s39 -26 65 -26c12 0 23.667 2 35 6s21.166 9.5 29.499 16.5
s15.166 15.333 20.499 25s8 20.5 8 32.5c0 18 -6.33301 34.167 -19 48.5s-28 21.5 -46 21.5c-32.667 0 -49 -19.667 -49 -59c0 -2 1 -3 3 -3c0.666992 0 2.5 0.666992 5.5 2s6.5 2.66602 10.5 3.99902s8.16699 2.5 12.5 3.5s7.83301 1.16699 10.5 0.5
c17.333 -2 26 -14 26 -36c0 -12 -5 -22.333 -15 -31s-21 -13 -33 -13c-53.333 0 -80 24.667 -80 74c0 32.667 9.66699 58.334 29 77.001s45.333 28 78 28c30 0 57.667 -11.333 83 -34c26 -22 39 -47.333 39 -76c0 -34.667 -11 -64.334 -33 -89.001s-50 -37 -84 -37
c-26 0 -51.333 5.66699 -76 17c-12.667 6.66699 -35 20.667 -67 42c-58 56 -108.333 84 -151 84c-8 0 -23 -1 -45 -3c0 28 -11.667 51 -35 69s-49.333 27 -78 27c-68 0 -138.333 -51 -211 -153l18 2c32.667 41.333 60 70.333 82 87c34.667 25.333 71.667 38 111 38
c18.667 0 37.667 -8 57 -24s29 -33 29 -51c-26 -9.33301 -45.667 -17.333 -59 -24c-20.667 -11.333 -41.667 -26.666 -63 -45.999l-37.5 -33.5c-9 -7.66699 -14.167 -12.167 -15.5 -13.5c-64 22.667 -115 34 -153 34c-22 0 -40.333 -5.33301 -55 -16
c-17.333 -11.333 -26 -27.666 -26 -48.999c0 -18.667 6.5 -33.334 19.5 -44.001s29.167 -16 48.5 -16c53.333 0 113.666 24.333 180.999 73c22.667 -5.33301 43 -8 61 -8c33.333 0 62.666 13.667 87.999 41c24.667 27.333 37 58.666 37 93.999
c15.333 3.33301 30.666 5 45.999 5c24.667 0 50.667 -8.66699 78 -26c24.667 -16 44.667 -34.667 60 -56s23 -53 23 -95c0 -26 -13.667 -51.667 -41 -77c-26.667 -24.667 -53.334 -37 -80.001 -37c-84 0 -126 33.667 -126 101c0 28.667 8.5 52 25.5 70s39.833 27 68.5 27
c15.333 0 27.333 -5.33301 36 -16s13 -23.667 13 -39c0 -24.667 -10.333 -36.667 -31 -36c-8.66699 0.666992 -16.334 6 -23.001 16l-11 15c-12 0 -18 -8.66699 -18 -26c0 -15.333 4.83301 -29.166 14.5 -41.499s22.167 -18.5 37.5 -18.5c20 0 37.167 8 51.5 24
s21.5 34 21.5 54c0 24.667 -9 44.667 -27 60s-39.333 23 -64 23c-15.333 0 -29.333 -3 -42 -9s-23.5 -14.167 -32.5 -24.5s-16.167 -22.333 -21.5 -36s-8 -27.834 -8 -42.501c0 -36.667 13.333 -66.334 40 -89.001c26.667 -22 58.667 -33 96 -33s69.333 13.333 96 40
c27.333 27.333 41 59 41 95c0 31.333 -6.33301 59.333 -19 84c46.667 -34.667 92 -52 136 -52c37.333 0 68.666 13.667 93.999 41c26 28 39 61 39 99zM434.008 307.003c0 -27.333 -9.66602 -53.332 -28.999 -77.999c-20 -26 -43.667 -39 -71 -39
c-6.66699 0 -14.167 0.5 -22.5 1.5s-17.5 2.16699 -27.5 3.5l61 58.5c14 13.667 22.333 21.167 25 22.5c13.333 9.33301 34.666 19.666 63.999 30.999zM247.009 192.004c-68.667 -44.667 -120.335 -66.999 -155.002 -66.999c-15.333 0 -28.666 4.16699 -39.999 12.5
s-17 19.833 -17 34.5c0 17.333 7.66699 30.666 23 39.999c12.667 8 28.334 12 47.001 12c44 0 91.333 -10.667 142 -32z" />
    <glyph glyph-name="question" unicode="?" horiz-adv-x="522" 
d="M506 553c0 37.333 -16 68 -48 92c-28.667 22.667 -62.334 34 -101.001 34c-63.333 0 -121.333 -20.333 -174 -61c-57.333 -43.333 -86 -95.333 -86 -156c0 -16.667 5.33301 -30.667 16 -42s24.334 -17 41.001 -17c19.333 0 41.666 8.66699 66.999 26l-10 3
c-21.333 -12 -39.666 -18 -54.999 -18c-14 0 -25.5 4.66699 -34.5 14s-13.5 21 -13.5 35c0 45.333 25.333 88 76 128c47.333 37.333 94.666 56 141.999 56c30 0 55.333 -8 76 -24s31 -38.333 31 -67c0 -38 -26 -81.333 -78 -130c-34 -32 -61.667 -54.667 -83 -68l-100.5 -63
c-24.333 -16 -40.166 -26.667 -47.499 -32c-19.333 -15.333 -29 -33.333 -29 -54c0 -27.333 14 -41 42 -41c9.33301 0 24.666 2.66699 45.999 8l-11 7c-7.33301 -2.66699 -15.666 -4 -24.999 -4c-25.333 0 -38 10 -38 30c0 8 3.5 16.667 10.5 26s14.167 16 21.5 20l208 103
c38.667 19.333 73 46 103 80c36 40 54 78.333 54 115zM111 50c0 33.333 -14 49.999 -42 49.999c-15.333 0 -28.833 -6.16699 -40.5 -18.5s-17.5 -26.166 -17.5 -41.499c0 -32 14 -48 42 -48c15.333 0 28.833 5.83301 40.5 17.5s17.5 25.167 17.5 40.5z" />
    <glyph glyph-name="at" unicode="@" horiz-adv-x="691" 
d="M558 228c44 68 65.9971 130 65.9971 186s-19.333 99 -58 129c-35.333 27.333 -81.666 41 -138.999 41c-96 0 -184.667 -33.667 -266 -101c-80.667 -66.667 -133 -147.334 -157 -242.001c-6.66699 -27.333 -10 -56.666 -10 -87.999c0 -68.667 21.333 -122.334 64 -161.001
c43.333 -39.333 99.666 -59 168.999 -59c98.667 0 189.334 35.333 272.001 106c17.333 14.667 33.333 30.834 48 48.501s28.334 37.167 41.001 58.5h-20c-90 -128 -201 -192 -333 -192c-65.333 0 -117 15 -155 45c-41.333 33.333 -62 81.333 -62 144c0 28 4.66699 60 14 96
c24 91.333 71.667 168 143 230c74.667 64.667 158 97 250 97c52.667 0 94.334 -12.333 125.001 -37c35.333 -27.333 53 -66 53 -116c0 -50.667 -19 -106 -57 -166c-9.33301 -14.667 -19.5 -29.167 -30.5 -43.5s-23.167 -28.166 -36.5 -41.499c-35.333 -36 -64 -54 -86 -54
c-29.333 0 -44 12.667 -44 38c6 19.333 13 36.666 21 51.999l131 246c-3.33301 -1.33301 -9 -6 -17 -14c-8 -8.66699 -13.333 -13 -16 -13c-4.66699 0 -11.667 1 -21 3s-16.333 3 -21 3c-6 0 -13 -5 -21 -15c-11.333 16 -28.333 24 -51 24c-56 0 -107.333 -22 -154 -66
s-70 -94 -70 -150c0 -66 22.667 -99 68 -99c34 0 65.667 19.667 95 59l-3.5 -22c-1 -6 -1.5 -11 -1.5 -15c0 -37.333 26.333 -56 79 -56c34 0 70.667 17 110 51c31.333 26.667 58.333 58 81 94zM389.997 390c0 -12 -34 -76 -102 -192c-26 -44 -52.333 -66 -79 -66
c-13.333 0 -20 11 -20 33c0 36 19 84.667 57 146c42.667 68.667 83.667 103 123 103c14 0 21 -8 21 -24z" />
    <glyph glyph-name="A" unicode="A" horiz-adv-x="1061" 
d="M1229 -13c0 33.333 -14.332 61.0029 -42.999 83.0029c-25.333 20.667 -55.666 31 -90.999 31c-36.667 0 -72.334 -8 -107.001 -24c-27.333 -12.667 -98 -53.667 -212 -123l-30 28c64 33.333 119.667 83.666 167 150.999c24 35.333 40.667 65.666 50 90.999
c10 27.333 17 61 21 101c140 54.667 210 142 210 262c0 82.667 -37.667 149.667 -113 201c-67.333 45.333 -144 68 -230 68c-83.333 0 -160.666 -24.333 -231.999 -73c-80.667 -54.667 -121 -121.334 -121 -200.001c0 -98 38.667 -163 116 -195l3 13
c-70 30.667 -105 91.334 -105 182.001c0 75.333 39 138.666 117 189.999c68.667 46 142.667 69 222 69c83.333 0 156.666 -21.333 219.999 -64c72.667 -48.667 109 -112.334 109 -191.001c0 -111.333 -64.667 -192.666 -194 -243.999c8 110 45 195.667 111 257
c22.667 20.667 34 34.667 34 42c0 10.667 -3.33301 16 -10 16c-109.333 -32 -206 -104 -290 -216c-36 -47.333 -62 -89.333 -78 -126h-249c-68.667 0 -128.334 -18.333 -179.001 -55c-57.333 -41.333 -86 -94.666 -86 -159.999c0 -42.667 16 -75.334 48 -98.001
c28.667 -20 65 -30 109 -30c97.333 0 193 69.333 287 208l48.5 73.5l30.5 46.5c51.333 0 92 3 122 9c0 -31.333 -12.333 -77 -37 -137l-25 -61l-19 -44c-3.33301 -7.33301 -15.666 -20.666 -36.999 -39.999c-20.667 -18.667 -34.334 -28 -41.001 -28
c-32 14.667 -58.667 22 -80 22c-16.667 0 -25 -6.66699 -25 -20c0 -20 18.333 -30 55 -30c6.66699 0 13.834 0.5 21.501 1.5l25.5 3.5l36 -32c-142 -84 -264 -126 -366 -126c-110 0 -201.333 32.333 -274 97c-76.667 66 -115 153.333 -115 262
c0 102.667 31.667 186.667 95 252c62.667 64.667 145.667 97 249 97c17.333 0 36.666 -4.33301 57.999 -13v12c-22 8 -41.333 12 -58 12c-108 0 -194 -33 -258 -99c-63.333 -66.667 -95 -153.667 -95 -261c0 -111.333 39 -201 117 -269
c74.667 -66.667 168.334 -100 281.001 -100c94 0 196.667 30 308 90l41.5 23.5c11 6.33301 19.833 11.166 26.5 14.499l51.5 -35c15 -10 28.167 -18 39.5 -24c58.667 -30 121 -44.667 187 -44c43.333 1.33301 83.666 16 120.999 44c41.333 32 62 68.333 62 109z
M1056 617.003c0.666992 0 1 -0.333008 1 -1c-3.33301 -5.33301 -16.333 -21.333 -39 -48c-76.667 -88.667 -121 -169.667 -133 -243c-32 -6 -69.333 -9 -112 -9c16.667 46 51 99 103 159l37 38c14 14 30.333 28.667 49 44c46.667 40 78 60 94 60zM1215 -13.9971
c0 -38 -19 -70.999 -57 -98.999c-35.333 -26 -72.666 -39 -111.999 -39c-96.667 0 -183.334 32.333 -260.001 97c110 66.667 176.667 105.334 200 116.001c38 17.333 74.667 26 110 26c16 0 31.167 -2.5 45.5 -7.5s27 -11.833 38 -20.5s19.667 -19.334 26 -32.001
s9.5 -26.334 9.5 -41.001zM696.001 -7.99609c-14.667 -3.33301 -25.667 -5 -33 -5c-14.667 0 -22 4.33301 -22 13c0 4 3 6 9 6c8.66699 0 24 -4.66699 46 -14zM741.001 299.004c-62 -96 -107 -159.333 -135 -190c-73.333 -81.333 -143.333 -122 -210 -122
c-73.333 0 -110 38 -110 114c0 58 28.667 106.667 86 146c50.667 34.667 106.667 52 168 52h201z" />
    <glyph glyph-name="B" unicode="B" horiz-adv-x="1064" 
d="M1304 544c0 33.333 -25.335 61.0049 -76.002 83.0049c-42 18 -81.667 27 -119 27c-41.333 0 -74 -4.33301 -98 -13l-37.5 -13.5c-10.333 -3.66699 -18.166 -6.83398 -23.499 -9.50098c-14.667 7.33301 -28 13.666 -40 18.999s-22.667 9.66602 -32 12.999
c-38 13.333 -81.333 20 -130 20c-61.333 0 -115.333 -8.66699 -162 -26c-11.333 -4.66699 -44 -22.667 -98 -54c-48 19.333 -89.333 29 -124 29c-98 0 -181.333 -36.333 -250 -109c-69.333 -72.667 -104 -157.667 -104 -255c0 -86.667 28.333 -155.334 85 -206.001
c53.333 -48.667 124 -73 212 -73c102.667 0 188.334 21.333 257.001 64c56.667 36 112.667 96.667 168 182c14 22 30.333 64.667 49 128c16.667 59.333 33.667 100.666 51 123.999c49.333 67.333 86.666 107.333 111.999 120c26.667 -14.667 40 -54.667 40 -120
c0 -43.333 -26.667 -90 -80 -140c-16.667 14.667 -32.667 22 -48 22c-21.333 0 -32 -7.33301 -32 -22c0 -8 4.66699 -14.833 14 -20.5s18 -8.5 26 -8.5c4 0 8.16699 0.166992 12.5 0.5s8.83301 0.833008 13.5 1.5c4 -21.333 6 -41.666 6 -60.999c0 -54 -11 -91 -33 -111
c-48 0 -93 -6.66699 -135 -20c-60 -19.333 -90 -50.333 -90 -93c0 -29.333 22.667 -44.666 68 -45.999c28.667 0 56.5 3.5 83.5 10.5s51.667 17.667 74 32s42.166 31.833 59.499 52.5s31 44.334 41 71.001c44.667 18.667 85.334 44 122.001 76l-8 8
c-36.667 -32.667 -72.667 -55 -108 -67c0 63.333 -16 114.666 -48 153.999c39.333 22.667 68 44 86 64c24.667 26.667 37 59 37 97c0 26 -9 51.667 -27 77l-17 20l-32 36c56.667 23.333 103.334 35 140.001 35c34.667 0 71 -7.66699 109 -23c47.333 -20 71 -45 71 -75
c0 -14.667 -10 -28 -30 -40c-16 -10.667 -32.333 -17.334 -49 -20.001l10 -10c20 3.33301 38.333 10.666 55 21.999c19.333 14 29 30 29 48zM886.998 324.005c-7.33301 -2.66699 -15 -4 -23 -4c-13.333 0 -20 4.66699 -20 14c0 6 4 9 12 9c10 0 20.333 -6.33301 31 -19z
M628.998 352.005c0 -11.333 -5 -28.332 -15 -50.999c-24 -22 -52 -33 -84 -33c-42 0 -74.667 13.333 -98 40s-35 61 -35 103c0 35.333 9.33301 66.666 28 93.999c10 14.667 31 38 63 70c94 -52 141 -126.333 141 -223zM859.998 120.006l-30 -40.001l-22 -28
c-39.333 -39.333 -78 -58.666 -116 -57.999c-28 0.666992 -42 10 -42 28c0 37.333 27.333 64.333 82 81c37.333 11.333 80 17 128 17zM930.998 607.005c-53.333 -20.667 -103.997 -57.335 -151.997 -110.002c-44 -48 -77 -101.333 -99 -160l-25.5 -65.5
c-6.33301 -15.667 -10.166 -25.5 -11.499 -29.5c-23.333 -52 -52 -95.5 -86 -130.5s-72 -63.5 -114 -85.5c-46.667 -24.667 -92 -37 -136 -37c-84 0 -152 23 -204 69c-54.667 48.667 -82 114.334 -82 197.001c0 92.667 34 174.667 102 246c68.667 72 149 108 241 108
c40 0 77.667 -9.66699 113 -29c-28.667 -26.667 -46.334 -44.667 -53.001 -54c-25.333 -35.333 -38 -73.333 -38 -114c0 -45.333 12.333 -82.333 37 -111c26.667 -30.667 62.334 -46 107.001 -46c16 0 39.667 5 71 15c-12.667 -40 -39.667 -70.667 -81 -92
c-26.667 -13.333 -53.667 -20 -81 -20v-14c21.333 0 41.666 3.5 60.999 10.5s37.166 16.833 53.499 29.5s30.666 27.667 42.999 45s22.166 36.333 29.499 57c36 36 54 70 54 102c0 14 -2.66699 28.333 -8 43c-0.666992 0.666992 -2.16699 3 -4.5 7s-5.83301 10.333 -10.5 19
l-11 -3c15.333 -29.333 22.333 -51.666 21 -66.999c0 -10.667 -3.5 -22.167 -10.5 -34.5l-20.5 -35.5c1.33301 9.33301 2.33301 17 3 23s1.33398 10 2.00098 12c0 94 -47.667 170.667 -143 230c39.333 27.333 74.666 46.333 105.999 57c40 14 88 21 144 21
c66.667 0 127.667 -17.667 183 -53z" />
    <glyph glyph-name="C" unicode="C" horiz-adv-x="933" 
d="M1153 -252c0 54 -34.6631 95.666 -103.996 124.999c-52 22.667 -109.667 34 -173 34c-60.667 0 -125 -13.333 -193 -40l-113 -44.5l-72 -29.5c-66 -26.667 -124 -40 -174 -40c-93.333 0 -169 33 -227 99c-55.333 63.333 -83 141.666 -83 234.999
c0 118 43.667 220 131 306c88 86 191 129 309 129c13.333 0 28.666 -0.333008 45.999 -1s36.666 -1.66699 57.999 -3c53.333 -3.33301 80 -7.66602 80 -12.999c-20.667 -11.333 -41.334 -26 -62.001 -44s-41.667 -39 -63 -63c-69.333 -78.667 -104 -157 -104 -235
c0 -85.333 31.667 -143.666 95 -174.999c27.333 -37.333 59.666 -56 96.999 -56c70 0 140.667 47.667 212 143l-8 9c-73.333 -92 -141.333 -138 -204 -138c-25.333 0 -46.333 10.333 -63 31c4 -0.666992 7.5 -1.16699 10.5 -1.5s5.83301 -0.5 8.5 -0.5
c65.333 0 127.666 31.667 186.999 95c58.667 62.667 88 127.667 88 195c0 61.333 -26.333 92 -79 92c-76 0 -141.333 -38.333 -196 -115c-46.667 -64.667 -70 -128 -70 -190c0 -9.33301 0.333008 -15 1 -17c-15.333 15.333 -22.666 35.333 -21.999 60
c0.666992 36 12.667 78 36 126c26.667 55.333 57.667 102.666 93 141.999c46.667 50.667 89.667 92.667 129 126c46 -6.66699 84.833 -11.5 116.5 -14.5s56.834 -4.5 75.501 -4.5c38 0 71.667 6 101 18c40 16.667 60 41 60 73c0 38.667 -33.667 58 -101 58
c-94.667 0 -203 -34 -325 -102c-4.66699 0.666992 -12.334 1.5 -23.001 2.5s-24.667 2.5 -42 4.5c-51.333 6 -95.333 9 -132 9c-122.667 0 -228.667 -43.667 -318 -131c-88.667 -86.667 -133 -191.667 -133 -315c0 -99.333 28.333 -180.666 85 -243.999
c59.333 -67.333 138 -101 236 -101c56 0 116 13.333 180 40l110.5 44.5l69.5 29.5c66 26.667 130 40 192 40c55.333 0 109.666 -11.333 162.999 -34c68 -29.333 102 -67.333 102 -114c0 -13.333 -5 -29.333 -15 -48c0.666992 -0.666992 1.33398 -1.5 2.00098 -2.5
s1.66699 -2.16699 3 -3.5c14.667 20.667 22 38.667 22 54zM1066 560.999c0 -53.333 -50 -80 -150 -80c-33.333 0 -90.333 6 -171 18c96.667 72.667 173.667 109 231 109c60 0 90 -15.667 90 -47zM798.004 271.999c0 -54.667 -26.333 -114.333 -79 -179
c-55.333 -66 -109.666 -99 -162.999 -99c-14.667 0 -28.334 4 -41.001 12c-7.33301 20.667 -11 38 -11 52c0 57.333 23.333 117.333 70 180c50 67.333 102.667 101 158 101c44 0 66 -22.333 66 -67z" />
    <glyph glyph-name="D" unicode="D" horiz-adv-x="852" 
d="M981 613c-32.667 34.667 -84.001 52.0029 -154.001 52.0029c-42 0 -79 -5.33301 -111 -16c-76 90.667 -179 136 -309 136c-96 0 -174.667 -25.333 -236 -76c-66.667 -54.667 -100 -128.334 -100 -221.001v-16c0 -4 0.333008 -7.66699 1 -11
c-16.667 -24.667 -28.334 -43 -35.001 -55c-20 -37.333 -30 -77 -30 -119c0 -32.667 10.667 -72 32 -118l9 6c-19.333 52 -29 89.333 -29 112c0 57.333 18.667 109.666 56 156.999c9.33301 -33.333 22.333 -63 39 -89c39.333 -59.333 93.333 -89 162 -89
c37.333 0 71 13 101 39s45 57.667 45 95c0 46 -19.333 83 -58 111c-35.333 25.333 -76.666 38 -123.999 38c-50 0 -102.333 -25 -157 -75v10c-0.666992 3.33301 -1 6.66602 -1 9.99902c0 64 22.667 122.333 68 175c60 69.333 145.667 104 257 104
c98.667 0 182.667 -29.667 252 -89c22 -18.667 33.333 -31 34 -37l-42 -24c-84.667 -48 -163 -144.333 -235 -289c-15.333 -31.333 -38.333 -87.333 -69 -168c-20 -54.667 -37.333 -86.334 -52 -95.001c-13.333 9.33301 -25 17.166 -35 23.499s-18.333 11.166 -25 14.499
c-33.333 18.667 -66 28 -98 28c-24.667 0 -46 -6 -64 -18c-20.667 -12.667 -31 -31 -31 -55c0 -32 14.333 -55.333 43 -70c22.667 -12.667 51.334 -19 86.001 -19c51.333 0 100.333 15.667 147 47c46.667 -31.333 95.667 -47.333 147 -48c90 -0.666992 169 48 237 146
c62 88.667 93 180.334 93 275.001c0 93.333 -23.333 175.333 -70 246c50.667 8 84.667 12 102 12c32.667 0 58.667 -3.33301 78 -10c10.667 -3.33301 22 -8.16602 34 -14.499s24.667 -14.166 38 -23.499zM742.999 476.003c0 -100.667 -29 -200.999 -87 -300.999
c-67.333 -115.333 -147.333 -173 -240 -173c-12.667 0 -39.667 11.667 -81 35c38 31.333 61.667 52.666 71 63.999c34 42 60.667 91.667 80 149l25.5 78c7 21.333 12.167 38 15.5 50c41.333 130 100.333 213.333 177 250c10 -5.33301 19.667 -29 29 -71
c6.66699 -31.333 10 -58.333 10 -81zM409.999 400.004c0 -34 -13.999 -63 -41.999 -87c-27.333 -23.333 -58 -35 -92 -35c-51.333 0 -94 17.667 -128 53c-30 30.667 -51 72.667 -63 126c51.333 53.333 103 80 155 80c45.333 0 83.666 -11.333 114.999 -34
c36.667 -24.667 55 -59 55 -103zM279 58.0039c-51.333 -44 -95.333 -66.001 -132 -66.001c-23.333 0 -43.333 6 -60 18c-18.667 14 -28 32 -28 54c0 18 6 32.5 18 43.5s27 16.5 45 16.5c40 -1.33301 78.333 -12.666 115 -33.999c16 -9.33301 30 -20 42 -32z" />
    <glyph glyph-name="E" unicode="E" horiz-adv-x="973" 
d="M900 543c0 34 -14.001 63.002 -42.001 87.002c-27.333 22 -58 33 -92 33c-104.667 0 -167.667 -51.667 -189 -155c-85.333 10 -147.333 15 -186 15c-90 0 -172 -15.667 -246 -47c-96.667 -40.667 -145 -101.334 -145 -182.001c0 -20.667 5.33301 -41.334 16 -62.001l12 8
c-10 20 -15 38.333 -15 55c0 75.333 47.333 132.333 142 171c72 29.333 150.667 44 236 44c54.667 0 116.667 -6 186 -18c0.666992 -0.666992 2.66699 -6 6 -16l4 -13c2.66699 -9.33301 6.33398 -18.666 11.001 -27.999s10.334 -19 17.001 -29
c-3.33301 0.666992 -7.33301 1 -12 1h-15c-66 0 -119.333 -20 -160 -60c-40.667 -38.667 -61 -91 -61 -157c0 -72.667 25.333 -128.334 76 -167.001c45.333 -35.333 105.333 -53 180 -53c65.333 0 121.666 23 168.999 69c48 46.667 72 102.667 72 168
c0 32.667 -8.66699 60.334 -26 83.001c-18.667 24.667 -44 37 -76 37c-44 0 -84.667 -17.667 -122 -53c-36.667 -34.667 -55 -74.334 -55 -119.001c0 -12.667 2 -24.667 6 -36s9.83301 -21.333 17.5 -30s16.667 -15.5 27 -20.5s21.5 -7.5 33.5 -7.5
c45.333 0 78.666 23.667 99.999 71c11.333 26.667 17 62.667 17 108h-12c0 -43.333 -7 -79.333 -21 -108c-18 -38 -46 -57 -84 -57c-20.667 0 -37.5 8 -50.5 24s-19.5 34.667 -19.5 56c0 39.333 17.333 75.333 52 108c35.333 33.333 72.333 50 111 50
c28.667 0 51 -11 67 -33c14 -19.333 21 -43.666 21 -72.999c0 -60 -22.667 -111.667 -68 -155c-44.667 -42.667 -97.667 -64 -159 -64c-48 0 -87.667 20.667 -119 62c-28 38 -42 82.333 -42 133c0 45.333 15.667 87.333 47 126c30.667 38.667 69 58 115 58
c16.667 0 31.667 -3.66699 45 -11c12 -15.333 25.333 -23 40 -23c8 0.666992 12 4.66699 12 12c0 6.66699 -5.66699 13 -17 19c-14 7.33301 -21.333 12 -22 14c-7.33301 10 -12.666 26.333 -15.999 49c-1.33301 15.333 -2.33301 26 -3 32c42.667 -15.333 77 -23 103 -23
c33.333 0 63.333 9.33301 90 28c29.333 21.333 44 47.666 44 78.999zM887.999 543.002c0 -32 -12.998 -56.334 -38.998 -73.001c-22.667 -14.667 -50.334 -22 -83.001 -22c-36 0 -70 10 -102 30c-2.66699 4.66699 -4 11.334 -4 20.001c0 32 14.667 61.667 44 89
s60.666 41 93.999 41c24 0 45 -8.16699 63 -24.5s27 -36.5 27 -60.5z" />
    <glyph glyph-name="F" unicode="F" horiz-adv-x="1026" 
d="M1424 579c-33.333 -52 -74.0039 -78.0029 -122.004 -78.0029c-45.333 0 -96 16 -152 48l-95 54l-60 35c-60 32 -127 48 -201 48c-84 0 -164.667 -32.667 -242 -98c-56 28 -110 42 -162 42c-109.333 0 -200.333 -37.333 -273 -112s-109 -166.667 -109 -276
c0 -114 35.333 -206.667 106 -278c70.667 -72.667 162.667 -109 276 -109c60.667 0 124 13.667 190 41c68.667 28.667 121.334 65.334 158.001 110.001c40.667 50.667 85.667 165.334 135 344.001l60 -9c-5.33301 -60.667 -8.33301 -94.334 -9 -101.001
c-5.33301 -32 -15.666 -48 -30.999 -48c-8.66699 0 -18 2.33301 -28 7l-7 -7c10.667 -10.667 22 -16 34 -16c57.333 0 86 44.333 86 133v17c0 5.33301 -0.333008 9.66602 -1 12.999c14 2 27.333 8.33301 40 19s19 22.667 19 36c0 22.667 -10.667 34 -32 34
c-30 0 -52 -22.667 -66 -68l-59 11c26.667 64.667 55.667 104.667 87 120c12 5.33301 35.667 11 71 17c31.333 5.33301 48.333 9.66602 51 12.999v4c-54 -2 -93 -6 -117 -12c-35.333 -9.33301 -69.333 -27.333 -102 -54l-38.5 -45
c-10.333 -12.667 -18.166 -22.667 -23.499 -30l-40 8l-5 -15l38 -8l-81 -213.5c-21.333 -53.667 -37 -90.834 -47 -111.501c-15.333 -29.333 -36.333 -57.333 -63 -84c-64.667 -63.333 -137.667 -95 -219 -95c-104.667 0 -190 37.333 -256 112
c-62.667 70.667 -94 159 -94 265c0 100.667 32.667 188.334 98 263.001c68 76.667 152 115 252 115c56.667 0 108 -14 154 -42l-24.5 -30l-34.5 -42c-34 -51.333 -51 -102.333 -51 -153c0 -41.333 9.66699 -75.666 29 -102.999c22 -30 53.333 -45 94 -45
c3.33301 0 7.16602 0.166992 11.499 0.5s9.5 0.833008 15.5 1.5v11c-5.33301 -0.666992 -10 -1.16699 -14 -1.5s-7.33301 -0.5 -10 -0.5c-37.333 0 -66.333 14 -87 42c-18.667 24.667 -28 56.334 -28 95.001c0 32.667 12.333 73.334 37 122.001
c25.333 50 51.333 81.333 78 94c26 -20 49.333 -47 70 -81c30 -50 45 -102 45 -156c0 -69.333 -22.667 -133.666 -68 -192.999c-49.333 -64 -107 -96 -173 -96c-38 0 -72.333 13 -103 39c-31.333 26 -47 57.333 -47 94c0 25.333 4.33301 49.666 13 72.999
c0 4.66699 -2.33301 9.33398 -7 14.001c-11.333 -38 -17 -67 -17 -87c0 -39.333 17.333 -73.333 52 -102c32.667 -28 69 -42 109 -42c70 0 130.333 33.333 181 100c47.333 62.667 71 129.334 71 200.001c0 59.333 -16.667 115.666 -50 168.999
c-25.333 40 -46.666 64.667 -63.999 74c42.667 40 116.667 60 222 60c64 0 141 -13.667 231 -41c19.333 -6.66699 64 -27.667 134 -63c50.667 -26.667 98.334 -40 143.001 -40c26 0 51.667 8.33301 77 25c30 18.667 45 39.667 45 63zM1019 398.997
c0 -10 -4.5 -18.667 -13.5 -26s-18.5 -11 -28.5 -11c-1.33301 0 -2 1 -2 3c0 7.33301 3.33301 16.333 10 27c6.66699 12 13 18 19 18c10 0 15 -3.66699 15 -11z" />
    <glyph glyph-name="G" unicode="G" horiz-adv-x="913" 
d="M1367 -58l-9.99414 0.00195312c-8.66699 -46.667 -28.167 -82.834 -58.5 -108.501s-69.5 -38.5 -117.5 -38.5c-50.667 0 -110.334 21 -179.001 63c-145.333 88.667 -242 143.667 -290 165c15.333 15.333 35 29.333 59 42c36.667 18.667 72.667 28 108 28l-2 10
c-65.333 0 -123.333 -25.333 -174 -76l-23 13c15.333 30 38 70 68 120l111 183l-10 4l-30 -42c-22 9.33301 -37 14 -45 14c-30 0 -78 -88 -144 -264c-47.333 9.33301 -82 14.333 -104 15c-25.333 1.33301 -53.666 0.333008 -84.999 -3c1.33301 38 4.66602 67.667 9.99902 89
c6 22.667 17.667 50.334 35 83.001c46.667 88 107 160 181 216c10 -1.33301 19.167 -2.33301 27.5 -3s16.166 -1 23.499 -1c9.33301 0 19.666 0.5 30.999 1.5l38 3.5c24.667 3.33301 49.667 7.66602 75 12.999s50.666 12.333 75.999 21c76 24.667 114 52.667 114 84
c0 20 -12.667 35.667 -38 47c-18 8.66699 -39 13 -63 13c-116.667 0 -244.334 -51 -383.001 -153c-73.333 14 -130.333 21 -171 21c-115.333 0 -210.333 -38 -285 -114c-74.667 -74.667 -112 -169.667 -112 -285c0 -120.667 42 -216.334 126 -287.001
c-0.666992 -2.66699 -1 -9 -1 -19c0 -48 15.667 -87.667 47 -119c30.667 -32 70.334 -48 119.001 -48c95.333 0 180.666 49 255.999 147c32 42 59.667 91 83 147l73 90c44 -19.333 102 -51.333 174 -96l101.5 -61.5c28.333 -16.333 51.166 -28.833 68.499 -37.5
c45.333 -22.667 90 -34 134 -34c99.333 0 161.333 52.333 186 157zM1038.01 574.002c0 -25.333 -36.001 -49.332 -108.001 -71.999c-57.333 -18.667 -104.666 -29.334 -141.999 -32.001c-23.333 -2 -61 -3 -113 -3c125.333 97.333 225.333 146 300 146c14.667 0 28 -3 40 -9
c15.333 -7.33301 23 -17.333 23 -30zM694.005 18.0029l-53 -66l34 76zM615.005 43.0029c-45.333 -32 -82.002 -48 -110.002 -48c-32 0 -52.333 19.333 -61 58c14.667 1.33301 28.834 2.5 42.501 3.5s26.834 1.5 39.501 1.5c41.333 -5.33301 71 -10.333 89 -15z
M555.003 470.003l-77.999 -87.5c-20.667 -24.333 -36.334 -44.833 -47.001 -61.5c-38 -58 -57 -118.333 -57 -181c0 -14.667 5.66699 -43 17 -85c-109.333 -33.333 -188.333 -90.333 -237 -171c-11.333 -18.667 -19.666 -37.334 -24.999 -56.001
c-26.667 22.667 -50.334 52.667 -71.001 90c-32 56 -48 117.667 -48 185c0 110.667 36.667 203.334 110 278.001c74 74.667 166.667 112 278 112c17.333 0 39 -2 65 -6s57 -9.66699 93 -17zM630.004 37.0029c-12 -63.333 -22.9971 -107.001 -32.9971 -131.001
c-7.33301 -9.33301 -18.5 -20.166 -33.5 -32.499s-34.167 -25.833 -57.5 -40.5c-66 -42 -129.667 -63 -191 -63c-54.667 0 -113.667 16.667 -177 50c15.333 58 52.333 110.333 111 157c41.333 32 89.666 55 144.999 69c35.333 -41.333 72.666 -62 111.999 -62
c25.333 0 66.666 17.667 123.999 53zM598.007 -108.998c0 -11.333 -11.332 -35.334 -33.999 -72.001c-74 -120 -165 -180 -273 -180c-48 0 -86.333 16.333 -115 49c-26.667 30.667 -40 70.334 -40 119.001c6.66699 -7.33301 26.667 -16.333 60 -27
c42 -13.333 81.667 -20 119 -20c87.333 0 181.666 43.667 282.999 131z" />
    <glyph glyph-name="H" unicode="H" horiz-adv-x="940" 
d="M1200 565c0 26 -19.9932 39 -59.9932 39c-46.667 0 -96.334 -12 -149.001 -36c-52 -23.333 -93.333 -53 -124 -89c-21.333 -25.333 -39.333 -48.333 -54 -69s-26.334 -39 -35.001 -55c-32 -6.66699 -62.333 -12.667 -91 -18l-81 -15c3.33301 15.333 6.5 28 9.5 38
s5.16699 17.667 6.5 23c27.333 58.667 51.333 98.334 72 119.001c16 10.667 30.167 19.667 42.5 27s23.166 12.666 32.499 15.999c30.667 -20 54.667 -30 72 -30c24 0 36 9 36 27c0 17.333 -18.667 26 -56 26c-16.667 0 -34.334 -2 -53.001 -6c-14 10 -40.667 34.333 -80 73
c-32 32 -59.667 54.333 -83 67c-32.667 18.667 -70.334 28 -113.001 28c-48.667 0 -95.334 -14 -140.001 -42c-46 -28.667 -80.333 -64.334 -103 -107.001c-12 -22 -18 -57.333 -18 -106c-43.333 -9.33301 -83.333 -26.333 -120 -51
c-72.667 -48.667 -109 -118.667 -109 -210c0 -64 19.333 -116.333 58 -157c14 -15.333 37 -32.666 69 -51.999c-17.333 -56 -26 -100 -26 -132c0 -80.667 24 -149.334 72 -206.001c51.333 -61.333 116 -92 194 -92c99.333 0 163.666 46 192.999 138l-10 -3
c-29.333 -84 -90.333 -126 -183 -126c-63.333 0 -119.666 23.667 -168.999 71c-57.333 55.333 -86 128 -86 218c0 46.667 8.33301 89 25 127c19.333 -11.333 42.333 -17 69 -17c112 0 208 42.333 288 127c28 29.333 49.667 60.666 65 93.999c6 10.667 20 45.667 42 105
l172 34l-27.5 -72l-27.5 -72c-29.333 -69.333 -54 -114.666 -74 -135.999c-3.33301 -3.33301 -9.33301 -8.66602 -18 -15.999l-36 -30c-23.333 13.333 -41.333 20 -54 20c-22 0 -33 -9.33301 -33 -28c0 -17.333 10.667 -26 32 -26c16.667 0 35.667 5.66699 57 17
c33.333 -19.333 60.333 -29 81 -29c40.667 0 83.667 23 129 69v12c-51.333 -48 -94.333 -72 -129 -72c-15.333 0 -37.333 8.33301 -66 25c34 11.333 80.333 46.333 139 105c34 34 79.667 116.667 137 248c73.333 18.667 139.666 44.334 198.999 77.001
c77.333 43.333 116 86.666 116 129.999zM1191.01 565c0 -36 -33.667 -74.002 -101 -114.002c-30 -17.333 -61.667 -32.666 -95 -45.999s-69 -24.333 -107 -33c12.667 40.667 44.334 86.334 95.001 137.001c57.333 57.333 109.666 86 156.999 86c34 0 51 -10 51 -30z
M867.007 541.998c0 -10.667 -5.66797 -16 -17.001 -16c-14.667 0 -36 8 -64 24c20.667 6 38.334 9 53.001 9c18.667 0 28 -5.66699 28 -17zM750.006 556.998c-12.667 -5.33301 -25.833 -11.665 -39.5 -18.998l-43.5 -24c-8 -4.66699 -24.333 -18.334 -49 -41.001
c-33.333 -31.333 -55.333 -55.333 -66 -72l-31 -54.5c-9.33301 -17 -17.666 -33.167 -24.999 -48.5l-42 -9c0 33.333 -6.66699 61.666 -20 84.999c16 8.66699 32.167 18.334 48.5 29.001s32.833 22.667 49.5 36l-4 7c-13.333 -11.333 -28.5 -22.333 -45.5 -33
s-35.167 -20.667 -54.5 -30c-26.667 36 -53.334 60.333 -80.001 73c-25.333 12.667 -61 19 -107 19c0 49.333 5 82.666 15 99.999c18.667 30.667 48.667 56.667 90 78c40 19.333 79 29 117 29c100 0 195.667 -41.667 287 -125zM418.007 376.999
c-37.333 -8 -60.667 -11.999 -70 -11.999c-60 0 -95.667 33.667 -107 101c42.667 0 76.667 -6 102 -18c28 -12.667 53 -36.334 75 -71.001zM579.006 8c0 -4 -6.33301 -7.33301 -19 -10c-6.66699 -1.33301 -12 -2.5 -16 -3.5s-7.33301 -1.5 -10 -1.5c-12 0 -18 5 -18 15
c0 11.333 5.33301 17 16 17c12 0 27.667 -5.66699 47 -17zM442.006 272c-34.667 -120.667 -102.332 -181 -202.999 -181c-12.667 0 -26.334 4.33301 -41.001 13c3.33301 6.66699 9 14.5 17 23.5s17.667 19.167 29 30.5c36.667 34.667 71.667 59.667 105 75
c40.667 18 71.667 31 93 39zM442.008 283l-56.999 -23c-16 -6.66699 -29.333 -12.667 -40 -18c-62 -30 -114 -74 -156 -132c-9.33301 0 -18 9.66699 -26 29c-6.66699 16 -10 30 -10 42c0 69.333 37 118.666 111 147.999l-2 6c-79.333 -27.333 -119 -78.666 -119 -153.999
c0 -34.667 12.667 -60.667 38 -78c-4.66699 -2.66699 -13.667 -16.334 -27 -41.001c-10 -18.667 -17.333 -34.334 -22 -47.001l-21 13.5c-6 3.66699 -11 6.83398 -15 9.50098c-56.667 42 -85 100.667 -85 176c0 127.333 73.333 211.333 220 252
c11.333 -73.333 50.666 -110 117.999 -110c18 0 43 4 75 12c12 -25.333 18 -53.666 18 -84.999zM493.009 286l-22 -57.501l-14 -36.5c-24 -58 -55.667 -104.667 -95 -140c-46 -40 -97.333 -60 -154 -60c-23.333 0 -45.333 6.33301 -66 19l18 39
c4.66699 9.33301 9.5 17.833 14.5 25.5s10.167 14.834 15.5 21.501c14.667 -10 30.334 -15 47.001 -15c107.333 0 179.666 65 216.999 195c20.667 6 33.667 9 39 9z" />
    <glyph glyph-name="I" unicode="I" horiz-adv-x="789" 
d="M1032 609l-1.99902 10.002c-3.33301 8 -15.666 15 -36.999 21c-4.66699 1.33301 -10.667 2.83301 -18 4.5s-16.333 3.5 -27 5.5c-41.333 8 -80.666 12 -117.999 12c-124.667 0 -221.667 -31.667 -291 -95c-33.333 -30.667 -56.666 -65.667 -69.999 -105
c-48 36 -101 54 -159 54c-102 0 -181 -37 -237 -111c-23.333 -32 -41 -69 -53 -111c-2.66699 16.667 -4.66699 31 -6 43s-2 21.667 -2 29c0 80 28.333 150.333 85 211c57.333 61.333 125.666 92 204.999 92c34.667 0 68 -7.33301 100 -22l2 9c-29.333 14.667 -63 22 -101 22
c-82.667 0 -153.334 -31.333 -212.001 -94c-58.667 -61.333 -88 -134 -88 -218c0 -40.667 3 -76.334 9 -107.001c0 -97.333 33.667 -172 101 -224c53.333 -40.667 116.666 -61 189.999 -61c94 0 169.833 20.833 227.5 62.5s101.5 107.167 131.5 196.5
c47.333 9.33301 86.666 31 117.999 65c14.667 15.333 29 39.666 43 72.999c10.667 24 16 40 16 48l-9 4c-18 -56 -37 -94.333 -57 -115c-9.33301 -9.33301 -26.333 -21.333 -51 -36c-27.333 -16 -46 -24 -56 -24c0 16 7.33301 43.667 22 83c51.333 142 126 228.667 224 260
c32.667 10.667 72.667 16.667 120 18zM1014 615.002c-62 -2.66699 -107.666 -7.66699 -136.999 -15c-98 -23.333 -178.667 -96 -242 -218c-6 -11.333 -13.667 -28.5 -23 -51.5s-20.333 -51.833 -33 -86.5c-22 10.667 -38.333 19.667 -49 27
c-2.66699 66 -12.334 115.333 -29.001 148c-3.33301 5.33301 -6.66602 11 -9.99902 17s-7.33301 11.667 -12 17c21.333 69.333 68 121.333 140 156c60.667 30 131 45 211 45c27.333 0 59.666 -3 96.999 -9c50.667 -8 79.667 -18 87 -30zM519.002 288.002
c-18.667 29.333 -30 53.332 -34 71.999c-4.66699 36 -7.66699 62.667 -9 80c20 -29.333 32 -57.333 36 -84l4 -34c1.33301 -11.333 2.33301 -22.666 3 -33.999zM519.002 266.001c-20.667 -52 -40 -89.667 -58 -113c-47.333 -60 -113 -90 -197 -90
c-110.667 0 -190.667 67.667 -240 203c38 160.667 133.333 241 286 241c60 0 111.667 -18.667 155 -56c1.33301 -40 4.33301 -71.333 9 -94c7.33301 -32 22.333 -62.333 45 -91zM575.002 232.001c-20.667 -52.667 -57.0029 -105.335 -109.003 -158.002
c-59.333 -59.333 -113.666 -89 -162.999 -89c-79.333 0 -144.666 22.667 -195.999 68c-50 44.667 -78 107 -84 187c25.333 -50 46 -85 62 -105c46 -55.333 105.667 -82.333 179 -81c130.667 0.666992 218.667 68.667 264 204c11.333 -7.33301 20.833 -13.166 28.5 -17.499
s13.834 -7.16602 18.501 -8.49902z" />
    <glyph glyph-name="J" unicode="J" horiz-adv-x="940" 
d="M1180 588c0 11.333 -8.66602 18.002 -25.999 20.002l-72 27c-48 18 -105 27 -171 27c-108 0 -202.333 -28 -283 -84c-4.66699 -3.33301 -10.334 -7.83301 -17.001 -13.5l-24 -19.5c-52.667 48.667 -117.667 73 -195 73c-106.667 0 -189.334 -44 -248.001 -132
c-31.333 -48 -54 -105.333 -68 -172l-27.5 -48c-6.33301 -11.333 -10.166 -18 -11.499 -20c-18.667 -34.667 -28 -81.667 -28 -141c0 -90 28 -163.333 84 -220c56.667 -58 129.667 -87 219 -87c82.667 0 158.667 24 228 72c65.333 45.333 116 106.666 152 183.999
c9.33301 -1.33301 17.333 -2.33301 24 -3s12.334 -1 17.001 -1c39.333 0 75.666 20.667 108.999 62c29.333 37.333 45 71 47 101c-0.666992 2 -1.33398 4.66699 -2.00098 8s-1.66699 7.66602 -3 12.999c-32 -114.667 -82 -172 -150 -172c-4 0 -16 2 -36 6l106.5 236
c25.667 56 41.834 90.667 48.501 104c59.333 113.333 148.333 170 267 170c6 0 14.5 -1.33301 25.5 -4s18.5 -4 22.5 -4c8 0 12 6 12 18zM1130 594.002c-26 -0.666992 -48.666 -1.50293 -67.999 -2.50293s-35.666 -2.83301 -48.999 -5.5
c-88.667 -16 -161.334 -57.333 -218.001 -124c-30.667 -35.333 -59.334 -83 -86.001 -143l-101 -223c-6 0 -14.333 5 -25 15c8 36.667 12 64.667 12 84c0 49.333 -12.667 94.333 -38 135c-4 6.66699 -10.167 14.834 -18.5 24.501s-19.166 21.167 -32.499 34.5
c26 67.333 53.667 113.333 83 138c20.667 -22.667 37 -49 49 -79l8 8c-14.667 32.667 -31.334 59.334 -50.001 80.001c21.333 15.333 39.333 27.833 54 37.5s26.334 16.834 35.001 21.501c71.333 37.333 146.666 56 225.999 56c48 0 97.333 -7.33301 148 -22
c44 -12.667 67.667 -21.667 71 -27v-8zM580.002 535.999c-6 -4.66699 -13.668 -13.5 -23.001 -26.5s-20.333 -30.833 -33 -53.5c-11.333 -20 -21.333 -40 -30 -60c-57.333 37.333 -109 56 -155 56c-58 0 -105.333 -9.33301 -142 -28c-40.667 -18.667 -75.667 -51 -105 -97
c20.667 68 42 118.667 64 152c56.667 86 135.334 129 236.001 129c41.333 0 83 -10 125 -30c30.667 -15.333 51.667 -29.333 63 -42zM581.001 194.999c0 -23.333 -4 -47.332 -12 -71.999c-50 52 -75 105.667 -75 161c0 12 0.666992 25.5 2 40.5s3.33301 31.5 6 49.5
c52.667 -48.667 79 -108.334 79 -179.001zM562.001 108c0 -5.33301 -7.66699 -17.666 -23 -36.999c-49.333 -60 -112.666 -90 -189.999 -90c-82.667 0 -147.334 35 -194.001 105c-40.667 60.667 -61 134.667 -61 222c20 33.333 39.667 58.333 59 75
c46.667 38 108.667 57 186 57c42.667 0 93 -19 151 -57c-6 -44 -9 -77 -9 -99c0 -62.667 27 -121.334 81 -176.001zM601.001 81c-23.333 -63.333 -58.333 -121 -105 -173c-58.667 -64.667 -120 -97 -184 -97c-84 0 -153.333 28.333 -208 85c-55.333 57.333 -83 127 -83 209
c0 67.333 20.333 132.333 61 195c-0.666992 -6 -1.16699 -11.5 -1.5 -16.5s-0.5 -9.16699 -0.5 -12.5c0 -72.667 22.333 -138.667 67 -198c52 -69.333 119.333 -104 202 -104c96 0 171.333 43.333 226 130c12 -6.66699 20.667 -12.667 26 -18z" />
    <glyph glyph-name="K" unicode="K" horiz-adv-x="1052" 
d="M1149 686l-0.00195312 7.00098c-25.333 14 -49 21 -71 21c-70.667 0 -130 -32 -178 -96l-67 -90l-41 -55c-12.667 -16.667 -25.5 -30.667 -38.5 -42s-27 -20.666 -42 -27.999s-31.333 -12.666 -49 -15.999s-37.5 -5.33301 -59.5 -6
c23.333 111.333 63.666 182.333 120.999 213c20.667 -8.66699 38.334 -15 53.001 -19s26.667 -6.33301 36 -7c23.333 -1.33301 35 9 35 31c0 16.667 -11.667 25.667 -35 27c-20 0.666992 -47 -5 -81 -17l-107 78.5l-45 32.5c-32.667 19.333 -68.667 29 -108 29
c-72.667 0 -136.667 -24.667 -192 -74s-83 -110 -83 -182c0 -3.33301 0.166992 -7.16602 0.5 -11.499s0.833008 -9.5 1.5 -15.5l-38 -12.5c-9.33301 -3 -15.666 -5.16699 -18.999 -6.5c-47.333 -18.667 -83.666 -51.334 -108.999 -98.001
c-22 -41.333 -33 -89.666 -33 -144.999c-0 -66 23.333 -120.333 70 -163c45.333 -41.333 101.333 -62 168 -62c102.667 0 187.667 44 255 132c14.667 19.333 28.334 41.166 41.001 65.499s24.334 51.5 35.001 81.5c5.33301 15.333 10 29.666 14 42.999l11 37
c14.667 0 28.667 -8 42 -24c13.333 -14.667 20.666 -30 21.999 -46l11 -178c2 -36 17.333 -64.333 46 -85c27.333 -19.333 59 -29 95 -29c45.333 0 85.666 16 120.999 48c35.333 33.333 53 72 53 116c0 30 -8.83301 54.167 -26.5 72.5s-41.5 27.5 -71.5 27.5
c-8.66699 0 -13 -3 -13 -9v-1c30 0 53.667 -7.83301 71 -23.5s26 -37.834 26 -66.501c0 -34.667 -13 -67.334 -39 -98.001c-27.333 -32 -57.666 -48 -90.999 -48s-61.333 25 -84 75c-2.66699 6.66699 -4.66699 20 -6 40c-0.666992 8 -0.833984 17.5 -0.500977 28.5
s0.833008 23.833 1.5 38.5s1.16699 27.5 1.5 38.5s0.5 20.167 0.5 27.5c0 36 -18 63.667 -54 83c-29.333 15.333 -64 23 -104 23l5 18c34 -6 65 -9 93 -9c64.667 0 110.667 17.667 138 53c10.667 14 24.667 42 42 84c22.667 54.667 37.667 89 45 103
c38.667 72 92 108 160 108c16 0 39.667 -6.33301 71 -19zM836.998 599.001c0 -11.333 -8.66699 -16.998 -26 -16.998c-31.333 6.66699 -53.333 12.667 -66 18c25.333 7.33301 47.333 11.666 66 12.999c17.333 1.33301 26 -3.33398 26 -14.001zM406.998 391.003
c-23.333 -10.667 -51.668 -15.999 -85.001 -15.999c-11.333 0 -22.833 2.16699 -34.5 6.5s-22.5 10.166 -32.5 17.499s-18.667 15.833 -26 25.5s-12.666 20.167 -15.999 31.5c7.33301 1.33301 14.333 2.5 21 3.5s13 1.5 19 1.5c62.667 0 114 -23.333 154 -70z
M716.996 603.004c-41.333 -18.667 -83.6641 -51.665 -126.997 -98.998c-46 -50 -74.333 -95.333 -85 -136c-30.667 -112 -57.667 -191.333 -81 -238c-48.667 -92.667 -110.667 -139 -186 -139c-62 0 -115.333 20.333 -160 61c-45.333 41.333 -68 92 -68 152
c0 116.667 46.333 194.334 139 233.001c11.333 3.33301 21.5 6.5 30.5 9.5s16.5 5.16699 22.5 6.5c7.33301 -24 22.666 -45 45.999 -63c24.667 -18 49.667 -27 75 -27c7.33301 0 15.333 0.5 24 1.5l29 3.5c25.333 4 38 8.33301 38 13c14.667 -18.667 22 -51 22 -97
c0 -54 -18.667 -99.667 -56 -137c-36.667 -36.667 -82 -55 -136 -55c-28 0 -49.167 9 -63.5 27s-21.5 41 -21.5 69c0 62 31 108 93 138l-2 9c-30 -12.667 -54.667 -32.334 -74 -59.001s-29 -56 -29 -88c0 -30.667 8.66699 -56.334 26 -77.001s41 -31 71 -31
c46.667 0 89.667 15.333 129 46c50 38 75 90.667 75 158c0 42 -7.66699 76.667 -23 104c15.333 9.33301 31.666 21.666 48.999 36.999l15 14.5c6.66699 6.33301 14.667 14.833 24 25.5l-7 8c-26 -30.667 -55.333 -56 -88 -76c-44.667 50.667 -99.334 76 -164.001 76
c-7.33301 0 -14.666 -0.333008 -21.999 -1s-14.333 -1.66699 -21 -3c-0.666992 6 -1.16699 11.167 -1.5 15.5s-0.5 7.83301 -0.5 10.5c0 58.667 26.333 108 79 148c48.667 37.333 103 56 163 56c37.333 0 83.666 -10 138.999 -30c54.667 -18.667 97 -40.667 127 -66z" />
    <glyph glyph-name="L" unicode="L" horiz-adv-x="978" 
d="M910 217c0 57.333 -29.001 103.001 -87.001 137.001l-6 -11c51.333 -38 77 -80 77 -126c0 -71.333 -32.333 -124.333 -97 -159c-51.333 -27.333 -116 -41 -194 -41c-74 0 -157 15.667 -249 47c44 58 74.667 104.667 92 140c10 20.667 18.833 44.334 26.5 71.001
s14.167 56.334 19.5 89.001c67.333 28 123.666 65.667 168.999 113c54 56 81 116.333 81 181c0 46.667 -26.333 70 -79 70c-25.333 0 -53.333 -12 -84 -36c-25.333 -19.333 -47.333 -41.333 -66 -66c-31.333 -41.333 -51.333 -71.333 -60 -90
c-19.333 -39.333 -39.666 -103.333 -60.999 -192c-34 -20 -68.333 -30 -103 -30c-56 0 -102.667 21.667 -140 65c-36 40.667 -54 89.667 -54 147c0 75.333 27.667 136.666 83 183.999c53.333 45.333 118 68 194 68c3.33301 0 12.333 -0.666992 27 -2s34.667 -3.33301 60 -6
c-21.333 12 -50.333 18 -87 18c-79.333 0 -146.333 -23.333 -201 -70c-57.333 -50 -86 -114 -86 -192c0 -60 18.667 -111.667 56 -155c38.667 -44.667 88 -67 148 -67c24 0 57 8 99 24c-11.333 -42.667 -25.5 -83.834 -42.5 -123.501s-36.167 -78.5 -57.5 -116.5
c-68.667 36.667 -123.667 55 -165 55c-28 0 -53.333 -6.33301 -76 -19c-28.667 -14.667 -43 -34.667 -43 -60c0 -30.667 16.667 -53.667 50 -69c24.667 -12 55 -18 91 -18c25.333 0 52.333 5.66699 81 17c8.66699 3.33301 19.167 8.16602 31.5 14.499l43.5 23.5l74.5 -35
c21.667 -10 40.834 -17.667 57.501 -23c46.667 -16 93.667 -24 141 -24c82 0 156.333 23.333 223 70c75.333 53.333 113 119 113 197zM728.999 658.001c0 -49.333 -28.001 -104.334 -84.001 -165.001c-51.333 -55.333 -102.666 -92.666 -153.999 -111.999
c0 60.667 14 127.667 42 201c34.667 90.667 78 136 130 136c44 0 66 -20 66 -60zM270.998 55c-9.33301 -8.66699 -19.833 -16.8311 -31.5 -24.498s-24.167 -14.334 -37.5 -20.001s-26.666 -10.167 -39.999 -13.5s-26 -5 -38 -5c-25.333 0 -48.333 5.33301 -69 16
c-25.333 14 -38 32.667 -38 56c0 17.333 10 32.666 30 45.999c17.333 11.333 35.666 17 54.999 17c38.667 0 95 -24 169 -72z" />
    <glyph glyph-name="M" unicode="M" horiz-adv-x="1121" 
d="M1460 658c-63.333 -4 -116.999 -13.667 -160.999 -29c-22 -8 -63.333 -29 -124 -63c-147.333 -83.333 -289.333 -224.333 -426 -423c24 70.667 37 115.667 39 135c0.666992 4.66699 0.666992 30 0 76c0 31.333 1 56.666 3 75.999c9.33301 73.333 27 127.333 53 162
c8 -3.33301 14.667 -5 20 -5c15.333 0 23 5.66699 23 17c0 10 -7 15 -21 15c-12 0 -25 -4 -39 -12c-110 36 -175.333 54 -196 54c-68.667 0 -124.334 -12.667 -167.001 -38c-52 -32 -78 -80.333 -78 -145c0 -36 10.333 -65.333 31 -88c22 -25.333 50.333 -38 85 -38
c26 0 49.333 15.333 70 46h-6c-14 -14 -31 -21 -51 -21c-29.333 0 -53.333 12.333 -72 37c-16.667 22.667 -25 49 -25 79c0 56 22.667 98 68 126c36.667 22.667 85 34 145 34c23.333 0 85.666 -17.333 186.999 -52c-42 -25.333 -85 -72 -129 -140
c-14 -21.333 -33.667 -54 -59 -98l-94 -167c-76.667 -138.667 -162.667 -208 -258 -208c-83.333 0 -151.333 26.333 -204 79c-44.667 44.667 -67 94 -67 148c0 65.333 21 122.666 63 171.999c43.333 51.333 97.666 77 162.999 77c48 0 90.333 -14.667 127 -44
c38 -31.333 57 -71 57 -119c0 -45.333 -16.333 -85.666 -49 -120.999c-34 -38 -73 -57 -117 -57c-34.667 0 -61.5 11.833 -80.5 35.5s-28.5 53.5 -28.5 89.5c0 22 7 50 21 84l-12 3c-13.333 -38.667 -20 -67.667 -20 -87c0 -39.333 10 -71.333 30 -96
c20.667 -26.667 50.667 -40 90 -40c47.333 0 89 20 125 60c34.667 37.333 52 80.333 52 129c0 51.333 -20 93.666 -60 126.999c-38.667 31.333 -83.667 47 -135 47c-68 0 -124.333 -26.333 -169 -79c-44 -52 -66 -112.333 -66 -181s29.667 -126.667 89 -174
c55.333 -42.667 119 -64 191 -64c44.667 0 92 10.667 142 32c54.667 24 91 54.667 109 92l57 122l36 78c43.333 92 83.666 158.333 120.999 199c-29.333 -61.333 -47.333 -111.333 -54 -150c-8 -43.333 -12 -119.333 -12 -228c0 -32 -2.33301 -54 -7 -66
c-3.33301 -10 -7.16602 -20.667 -11.499 -32s-9.16602 -23.333 -14.499 -36c0 -3.33301 1.66699 -7.66602 5 -12.999c20 22 54.333 68.333 103 139l83 117c23.333 32 42.666 57.667 57.999 77c48.667 60.667 105.334 115.667 170.001 165
c-141.333 -179.333 -212 -309.333 -212 -390c0 -28.667 6.33301 -51.667 19 -69c14.667 -20.667 35.334 -31 62.001 -31c40 0 77.667 37 113 111l-7.5 -1.5c-1.66699 -0.333008 -2.83398 -0.5 -3.50098 -0.5c-2.66699 -6.66699 -6.16699 -14.167 -10.5 -22.5
s-10.166 -17.166 -17.499 -26.499c-22 -30 -42 -45 -60 -45c-21.333 0 -32 15.333 -32 46c0 40.667 22.667 109 68 205c82.667 174 149.667 276 201 306c50 29.333 92.333 50.333 127 63c45.333 15.333 95 25 149 29z" />
    <glyph glyph-name="N" unicode="N" horiz-adv-x="1041" 
d="M1355 684c0 29.333 -22.001 44.001 -66.001 44.001c-45.333 0 -92.333 -27 -141 -81c-15.333 7.33301 -36.666 15.666 -63.999 24.999l-101 33c-104 32 -180.667 48 -230 48c-92 0 -158.667 -9.33301 -200 -28c-42 -18.667 -78.333 -51 -109 -97
c-31.333 -46 -48.333 -92.333 -51 -139c-12.667 1.33301 -24.667 2.5 -36 3.5s-21.666 1.5 -30.999 1.5c-90 0 -167 -32 -231 -96c-63.333 -64.667 -95 -141.667 -95 -231c0 -80.667 27.667 -143.667 83 -189c51.333 -43.333 118.333 -65 201 -65c140 0 259 94 357 282
l159 315c-9.33301 -63.333 -14.333 -113.333 -15 -150c-0.666992 -13.333 -0.333984 -29.5 0.999023 -48.5s3.33301 -40.833 6 -65.5c2.66699 -26 4.66699 -48.5 6 -67.5s2 -34.5 2 -46.5c0 -20 -6.66699 -48 -20 -84c-4.66699 -11.333 -8.5 -21 -11.5 -29
s-5.5 -14.333 -7.5 -19c0 -6.66699 4.33301 -10 13 -10c8 0 21.667 15 41 45l72 115c36.667 58.667 75.667 126.667 117 204c5.33301 9.33301 17 31.333 35 66l74 143l20 37c6.66699 12 13.667 23.667 21 35c32.667 -11.333 63.667 -17 93 -17c24 0 47 4.66699 69 14
c26 12 39 29.333 39 52zM1346 684.001c0 -19.333 -12.333 -34 -37 -44c-20 -7.33301 -40.667 -11 -62 -11c-18 0 -47 5 -87 15c38.667 50 81.667 75 129 75c12 0 24.5 -3.16699 37.5 -9.5s19.5 -14.833 19.5 -25.5zM1143 638.001
c-13.333 -20 -26.335 -42.666 -39.002 -67.999c-57.333 -111.333 -94.333 -184.333 -111 -219c-14.667 -28 -33.667 -62 -57 -102s-51.666 -86 -84.999 -138c22.667 63.333 34 109.333 34 138l-20 125l-15 95c-3.33301 21.333 -5 32.666 -5 33.999
c0 38 11.333 72.333 34 103c7.33301 9.33301 17.666 20.333 30.999 33s30 27.334 50 44.001c-61.333 20.667 -112.666 31 -153.999 31c-54.667 0 -111 -12 -169 -36c-73.333 -31.333 -110 -69.666 -110 -114.999c0 -23.333 13.333 -41 40 -53l2 9
c-21.333 13.333 -32 28 -32 44c0 41.333 36 76.666 108 105.999c58.667 24 112.334 36 161.001 36c32 0 76 -9 132 -27c-78 -68 -128 -124 -150 -168l-97 -193.5l-61 -121.5c-92.667 -182.667 -208 -274 -346 -274c-80 0 -145 21 -195 63c-54 44 -81 105 -81 183
c0 89.333 30.667 164.666 92 225.999c60.667 62 136 93 226 93c8.66699 0 18.5 -0.5 29.5 -1.5s23.5 -2.83301 37.5 -5.5c0 -42.667 13 -80.334 39 -113.001c27.333 -32 61.666 -51 102.999 -57c0 -73.333 -17.333 -134.333 -52 -183c-23.333 -33.333 -55 -61.333 -95 -84
c-40.667 -22.667 -80 -34 -118 -34c-42 0 -76.667 14.667 -104 44c-26.667 28.667 -40 65 -40 109c0 54 18 103 54 147c38.667 46.667 84.334 70 137.001 70c34 0 63.333 -12.333 88 -37c25.333 -24 38 -52.667 38 -86c0 -17.333 -7.66699 -43.333 -23 -78
c0.666992 0 1.83398 0.166992 3.50098 0.5l7.5 1.5c14.667 28.667 22 54 22 76c0 38 -13.333 69.333 -40 94c-27.333 25.333 -59.333 38 -96 38c-57.333 0 -105.333 -24 -144 -72c-38 -45.333 -57 -96.666 -57 -153.999c0 -23.333 3.66699 -44.833 11 -64.5
s17.833 -36.667 31.5 -51s29.834 -25.5 48.501 -33.5s39.667 -12 63 -12c41.333 0 82.666 11.667 123.999 35c100 56 150 147 150 273c97.333 13.333 146 64.666 146 153.999c0 16 -6 40.667 -18 74l-9 -2c11.333 -30.667 17 -54.667 17 -72
c0 -83.333 -46 -130.333 -138 -141c-10.667 42.667 -25.667 76 -45 100c-18.667 24.667 -47.334 45.334 -86.001 62.001c18 100.667 70 171.667 156 213c66.667 32 128.667 48 186 48c70 0 200 -35.333 390 -106zM532.997 321.002
c-36 7.33301 -65.334 25.332 -88.001 53.999s-34 61.334 -34 98.001c37.333 -14.667 65.333 -35 84 -61c12.667 -18 25.334 -48.333 38.001 -91z" />
    <glyph glyph-name="O" unicode="O" horiz-adv-x="600" 
d="M570 476c0 34 -9.66699 65.6641 -29 94.9971c-22.667 32.667 -50 49 -82 49c-55.333 0 -108 -34.333 -158 -103c-46.667 -64.667 -70 -125.667 -70 -183c0 -24 6.5 -44.333 19.5 -61s31.167 -25 54.5 -25c44.667 0 84.334 22.333 119.001 67
c32.667 40.667 49 84.334 49 131.001c0 16 -4.33301 31.5 -13 46.5s-20.334 22.5 -35.001 22.5c-17.333 0 -39 -13 -65 -39l7 -7c20.667 24 40 36 58 36c12 0 21.333 -7.33301 28 -22c6 -12 9 -24.333 9 -37c0 -34 -14.333 -71.667 -43 -113
c-33.333 -49.333 -71.333 -74 -114 -74c-20.667 0 -36.667 7.66699 -48 23c-10 12.667 -15 30 -15 52c0 54.667 22.333 113.334 67 176.001c48 67.333 98 101 150 101c37.333 0 56 -27 56 -81c0 -79.333 -36 -184.333 -108 -315
c-32.667 -58.667 -66.667 -107.334 -102 -146.001c-52 -56.667 -101 -85 -147 -85c-26 0 -47 10 -63 30c-14 18.667 -21 41.334 -21 68.001c0 116.667 55 251.667 165 405c27.333 38 53.333 67.333 78 88s59 41.667 103 63h-42c-53.333 -7.33301 -110.666 -39 -171.999 -95
c-56.667 -51.333 -103.334 -109.333 -140.001 -174c-44 -76 -66 -146.333 -66 -211c0 -49.333 13.667 -91.333 41 -126c28.667 -36 67.667 -54 117 -54c64.667 0 129.667 27.333 195 82c54 44.667 100 100 138 166c18 30.667 35.333 71.334 52 122.001
c18 54 27 96.667 27 128z" />
    <glyph glyph-name="P" unicode="P" horiz-adv-x="1046" 
d="M1259 630c-49.333 22 -102.334 33.001 -159.001 33.001c-45.333 0 -98.333 -10.667 -159 -32c-61.333 35.333 -135.333 53 -222 53c-106 0 -189 -31.333 -249 -94c-37.333 16.667 -75 25 -113 25c-98 0 -182 -36.333 -252 -109c-70 -73.333 -105 -158.666 -105 -255.999
c0 -90 30 -160.333 90 -211c57.333 -47.333 131.333 -71 222 -71c88 0 169.333 21.333 244 64c92.667 53.333 154.334 130.666 185.001 231.999c18.667 -2 42.334 -3 71.001 -3c62 0 116.667 16.667 164 50c53.333 37.333 80 85.666 80 144.999
c0 27.333 -8.33301 55.333 -25 84c-13.333 16.667 -26 31.667 -38 45l-33 36c47.333 22.667 94 34 140 34c55.333 0 107.666 -10.333 156.999 -31zM983.999 487.001c0 -54 -19.667 -101.332 -59 -141.999c-39.333 -40 -86 -60 -140 -60h-22c-6 0 -11.333 0.333008 -16 1
l69 182c22 57.333 62.667 103.666 122 138.999c30.667 -22.667 46 -62.667 46 -120zM611.999 318.002c-17.333 -9.33301 -34.666 -14 -51.999 -14c-40.667 0 -73.334 14.333 -98.001 43c-25.333 29.333 -38 63.666 -38 102.999c0 33.333 16.333 75.333 49 126
c48.667 -21.333 86 -56 112 -104c18 -31.333 27 -82.666 27 -153.999zM916.999 621.002c-28.667 -16.667 -55.6709 -35.001 -81.0039 -55.001s-48.666 -42.333 -69.999 -67c-20 -22 -43.333 -54 -70 -96l-69 -144c-42.667 -90 -72 -143 -88 -159
c-76.667 -76.667 -162.667 -115 -258 -115c-80.667 0 -146.667 23.667 -198 71c-50 48 -75 112.667 -75 194c0 93.333 34.667 176.333 104 249c68.667 72 150.334 108 245.001 108c30.667 0 66.334 -8.66699 107.001 -26c-34 -49.333 -51 -93 -51 -131
c0 -22 3.5 -42.5 10.5 -61.5s17 -35.333 30 -49s28.5 -24.5 46.5 -32.5s38 -12 60 -12c18 0 34.667 3.33301 50 10c-10 -40 -28.333 -77.667 -55 -113c-53.333 -71.333 -123.666 -107 -210.999 -107c-65.333 0 -120.666 20.667 -165.999 62
c-46.667 42.667 -70 96.667 -70 162c0 14 6 39 18 75l-10 -3c-12 -24 -18 -48 -18 -72c0 -70 24 -126.333 72 -169c45.333 -42.667 103.333 -64 174 -64c136 0 229.333 78.333 280 235c18.667 20.667 31.334 36.334 38.001 47.001l-3 15c-15.333 -24 -27 -40 -35 -48
c0 101.333 -27 175 -81 221c-6.66699 5.33301 -15.334 11.333 -26.001 18s-23.334 13.667 -38.001 21c60.667 60.667 140.667 91 240 91c85.333 0 151.333 -18.333 198 -55z" />
    <glyph glyph-name="Q" unicode="Q" horiz-adv-x="664" 
d="M640 497c0 48 -18.6689 90 -56.002 126s-79.666 54 -126.999 54c-60.667 0 -118.667 -24.333 -174 -73c-58 -50 -87 -104.333 -87 -163c0 -30.667 7.33301 -55.334 22 -74.001c17.333 -21.333 40 -32 68 -32c38.667 0 72.667 22.667 102 68
c26 40.667 39 81.334 39 122.001c0 39.333 -16.333 59 -49 59c-58.667 0 -99.334 -49 -122.001 -147c0.666992 -7.33301 3.33398 -13 8.00098 -17c2.66699 18 6.83398 35 12.501 51s12.834 31.333 21.501 46c22 37.333 48.667 56 80 56c26.667 0 40 -16 40 -48
c0 -37.333 -12.667 -75.666 -38 -114.999c-28 -43.333 -59.333 -65 -94 -65c-18.667 0 -34 9.33301 -46 28c-10.667 15.333 -16 33 -16 53c0 29.333 11.667 63.333 35 102c27.333 44.667 54 77.667 80 99c34.667 28 74 42 118 42c32 0 58.333 -8.83301 79 -26.5
s31 -41.834 31 -72.501c0 -37.333 -12 -84.333 -36 -141c-22 -52.667 -40 -86 -54 -100c-36 -50.667 -84.667 -106.667 -146 -168l-40.5 -39.5l-37.5 -34.5c-1.33301 0.666992 -7.5 2.33398 -18.5 5.00098s-26.167 6.66699 -45.5 12c-24 6.66699 -46 10 -66 10
c-26.667 0 -52 -5.66699 -76 -17c-28.667 -14 -43 -33.667 -43 -59c0 -16.667 8 -30 24 -40c13.333 -8.66699 29.333 -13 48 -13c48 0 98.667 15 152 45l36.5 -16c10.333 -4.66699 18.833 -8.66699 25.5 -12c35.333 -13.333 74 -19.333 116 -18
c38 1.33301 69.333 9.66602 94 24.999c28.667 18.667 43 46.667 43 84c0 32 -16 55.667 -48 71l-2 -13l25 -16c9.33301 -9.33301 14 -23.333 14 -42c0 -20 -7.16699 -36.5 -21.5 -49.5s-31.5 -19.5 -51.5 -19.5c-34.667 0 -88.334 12.667 -161.001 38
c228 156.667 342 301.667 342 435zM206.998 45c-44.667 -35.333 -88.334 -53 -131.001 -53c-14 0 -27.333 4.33301 -40 13s-19 19.667 -19 33c0 12 5.33301 22 16 30s22 12 34 12c28.667 0 75.334 -11.667 140.001 -35z" />
    <glyph glyph-name="R" unicode="R" horiz-adv-x="1139" 
d="M1234 668c-47.333 20 -93 30.0039 -137 30.0039c-56.667 0 -107 -9 -151 -27c-13.333 -4.66699 -21 -8 -23 -10c-53.333 32 -118.333 48 -195 48c-121.333 0 -210.666 -33.667 -267.999 -101c-39.333 12 -75.333 18 -108 18c-96 0 -178.667 -36.667 -248 -110
s-104 -158 -104 -254c0 -86.667 28.667 -156.667 86 -210c54.667 -50 126.667 -75 216 -75c73.333 0 146.666 15 219.999 45c85.333 35.333 140.666 82.666 165.999 141.999l61 137c29.333 -19.333 44 -42 44 -68c0 -7.33301 -0.333008 -16.5 -1 -27.5
s-1.66699 -24.167 -3 -39.5c-1.33301 -14.667 -2.33301 -27.5 -3 -38.5s-1 -20.167 -1 -27.5c0 -38.667 16.333 -69.334 49 -92.001c28.667 -20.667 63 -31 103 -31c34.667 0 63.667 8 87 24c26.667 18.667 40 44.667 40 78s-13.333 68.333 -40 105l-8 -6
c24 -41.333 36 -74.333 36 -99c0 -12.667 -2.5 -24.334 -7.5 -35.001s-11.833 -20 -20.5 -28s-18.667 -14.167 -30 -18.5s-23.333 -6.5 -36 -6.5c-24.667 0 -44.834 8 -60.501 24s-23.5 36.333 -23.5 61v92c0 29.333 -5.66699 53.666 -17 72.999
c-3.33301 5.33301 -9.16602 12.833 -17.499 22.5s-19.166 21.167 -32.499 34.5c66 8.66699 120 27 162 55c53.333 36 80 83.667 80 143c0 49.333 -26.333 94.333 -79 135c-14 10.667 -23 17.667 -27 21c44.667 24.667 96 37 154 37c48.667 0 93.667 -9 135 -27zM976 511.004
c0 -52.667 -19.667 -98.667 -59 -138c-38.667 -38.667 -85.334 -58 -140.001 -58c-2.66699 0 -6 0.166992 -10 0.5s-8.66699 0.833008 -14 1.5c7.33301 34 14.833 64.5 22.5 91.5s15.834 50.167 24.501 69.5c34 82.667 75 137.667 123 165
c35.333 -25.333 53 -69.333 53 -132zM605 334.004c-24 -10.667 -49.667 -16.001 -77 -16.001c-74 0 -111 49.667 -111 149c0 38.667 14.667 80.667 44 126c44 -21.333 79.667 -50.333 107 -87c28 -39.333 42 -82.666 42 -129.999c0 -13.333 -1.66699 -27.333 -5 -42z
M907 652.003c-102 -58 -173.666 -133.671 -214.999 -227.004l-68 -157l-41 -95c-55.333 -121.333 -149 -182 -281 -182c-87.333 0 -157.666 22.667 -210.999 68c-55.333 49.333 -83 117 -83 203c0 92.667 34.333 175.334 103 248.001s149 109 241 109
c28 0 61.333 -6.66699 100 -20c-30.667 -34.667 -46 -78.667 -46 -132c0 -107.333 40.667 -161 122 -161c30 0 55.667 5.33301 77 16c-17.333 -73.333 -48.333 -132.333 -93 -177c-49.333 -49.333 -110 -74 -182 -74c-107.333 0 -185 55 -233 165
c-9.33301 0 -14 2.66699 -14 8c47.333 -121.333 129.666 -182 246.999 -182c74 0 137.333 26.333 190 79c50 48.667 82.333 110.334 97 185.001c24.667 14 39.667 32.667 45 56l-5 14c-2.66699 -20 -15.334 -38.667 -38.001 -56c2 8.66699 3 19.334 3 32.001
c0 75.333 -29.333 138 -88 188c-14.667 12.667 -36.334 27.334 -65.001 44.001c56.667 64.667 143 97 259 97c76.667 0 136.334 -16.333 179.001 -49z" />
    <glyph glyph-name="S" unicode="S" horiz-adv-x="710" 
d="M696 616c0 32 -11.999 50 -35.999 54c-22.667 0 -38.334 -4 -47.001 -12c-27.333 35.333 -74.333 53 -141 53c-74.667 0 -143.667 -22.667 -207 -68c-69.333 -50 -104 -111.333 -104 -184c-40 -26.667 -70.333 -52.667 -91 -78c-45.333 -57.333 -68 -127 -68 -209
c0 -90.667 32 -168.334 96 -233.001c64.667 -64.667 142 -97 232 -97c84 0 157 30 219 90v8c-70 -58 -143 -87 -219 -87c-88 0 -163 31.333 -225 94c-61.333 62.667 -92 137.667 -92 225c0 77.333 20.667 143.666 62 198.999c12.667 16.667 26.167 31.334 40.5 44.001
s30.166 23.334 47.499 32.001c6.66699 -26 16.334 -46.667 29.001 -62c-46 -57.333 -69 -115.666 -69 -174.999c0 -62 21.333 -114 64 -156s95.667 -63 159 -63c68.667 0 127.667 23 177 69c50 46 75 103 75 171c0 35.333 -8 103.666 -24 204.999c5.33301 0 26 21.667 62 65
c40 48 60 86.333 60 115zM610.001 642c4.66699 -8.66699 7 -18.332 7 -28.999c0 -14.667 -4.33301 -29.334 -13 -44.001c-9.33301 -18 -20.333 -27.333 -33 -28c0 34 13 67.667 39 101zM669.001 624.002c0 -55.333 -32 -112.334 -96 -171.001l-2 75
c8 2 15.5 5.83301 22.5 11.5s13.167 12.334 18.5 20.001s9.5 16 12.5 25s4.5 17.833 4.5 26.5c0 14 -3.33301 26.333 -10 37c1.33301 0 4.83301 1.66699 10.5 5s10.167 5 13.5 5c17.333 0 26 -11.333 26 -34zM604.001 654.001c-15.333 -8 -28.667 -25 -40 -51
c-9.33301 -24 -14 -45.667 -14 -65c-32 0 -64.5 -1 -97.5 -3s-66.5 -5.33301 -100.5 -10c-75.333 -9.33301 -135.333 -30.333 -180 -63c2 72 39.333 132 112 180c61.333 40.667 124 61 188 61c59.333 0 103.333 -16.333 132 -49zM549 528.001l-5.00195 -96
c-35.333 -24 -64.333 -41 -87 -51c-10.667 11.333 -20.667 20.833 -30 28.5s-17.666 13.5 -24.999 17.5c-18.667 9.33301 -41.667 14 -69 14c-48 0 -92 -16 -132 -48c-12 14 -21.333 33.667 -28 59l30.5 17l19.5 11c36.667 18.667 81.334 30.667 134.001 36
c64 6.66699 128 10.667 192 12zM444.998 375.001c-39.333 -21.333 -77.666 -32 -114.999 -32c-58 0 -98.667 13.667 -122 41c32 32 73.667 48 125 48c45.333 0 82.666 -19 111.999 -57zM542.998 369.001c0 -76 -19.667 -150.331 -59 -222.998
c-47.333 -85.333 -106.333 -128 -177 -128c-58 0 -103.333 26 -136 78c-24 38 -36.667 76 -38 114c-0.666992 55.333 21 110.666 65 165.999c24.667 -28.667 68.667 -43 132 -43c38.667 0 79.667 10.333 123 31c10.667 -20.667 16 -41.667 16 -63
c0 -29.333 -10 -55.333 -30 -78c-18.667 -22.667 -42.667 -34 -72 -34c-30 0 -45 14 -45 42c0 20.667 18.667 32.667 56 36c-14.667 24.667 -29.667 37 -45 37c-18 0 -33 -6.83301 -45 -20.5s-18 -29.834 -18 -48.501c0 -20 7.5 -36.667 22.5 -50s32.833 -20 53.5 -20
c32 0 62.667 12 92 36c30 24.667 45 52.667 45 84s-6.66699 59.666 -20 84.999c35.333 18.667 62 34.334 80 47.001v-48z" />
    <glyph glyph-name="T" unicode="T" horiz-adv-x="990" 
d="M1416 603c-36.667 -7.33301 -63.666 -11.001 -80.999 -11.001c-43.333 0 -93 14 -149 42l-92.5 47l-58.5 30c-57.333 28 -116 42 -176 42c-53.333 0 -114.333 -15.667 -183 -47c-68 74.667 -156.667 112 -266 112c-120 0 -220.333 -47.333 -301 -142
c-66 -77.333 -101.667 -159.333 -107 -246l9 -1c2.66699 38 17.667 84.667 45 140c36.667 74 84 131.333 142 172c62.667 44.667 133.334 67 212.001 67c102.667 0 186 -36 250 -108c-25.333 -11.333 -60.666 -46.666 -105.999 -105.999c-49.333 16 -85 24 -107 24
c-101.333 0 -185 -34.333 -251 -103c-65.333 -69.333 -98 -154.666 -98 -255.999c0 -98.667 33.333 -181.334 100 -248.001s149.667 -100 249 -100c106 0 198.667 29.667 278 89c80 59.333 133.333 140.333 160 243c26 106.667 43 178.667 51 216c16 76 83 121.333 201 136
l2 11c-77.333 -7.33301 -135.333 -21.333 -174 -42c-54 -29.333 -90.667 -72.666 -110 -129.999l-54 -165l-39 -118c-23.333 -68.667 -64 -124 -122 -166c-58.667 -43.333 -123 -65 -193 -65c-93.333 0 -173.333 33 -240 99c-66.667 66.667 -100 146.667 -100 240
c0 98 32.333 180.333 97 247s145.667 100 243 100c14 0 47.667 -8 101 -24c-34 -51.333 -51 -99.333 -51 -144c0 -54 14 -99.333 42 -136c31.333 -41.333 72.666 -62 123.999 -62c18 0 33 2 45 6c-6.66699 -23.333 -14.834 -45.5 -24.501 -66.5s-21.167 -41.167 -34.5 -60.5
c-12 -18 -36.333 -46.333 -73 -85l8 -6c73.333 63.333 121 140.333 143 231c23.333 25.333 37 41 41 47c21.333 33.333 32 69.333 32 108c0 48.667 -15.667 105.334 -47 170.001c-20.667 42.667 -41 76 -61 100c48 12 103.667 18 167 18c50 0 129 -20.667 237 -62
c107.333 -40.667 181.666 -61 222.999 -61c26.667 0 54.667 3.33301 84 10c1.33301 1.33301 3.5 3.66602 6.5 6.99902s5.16699 5.66602 6.5 6.99902zM786.001 413.999c0 -55.333 -19 -100.334 -57 -135.001c0.666992 10.667 1.16699 19.667 1.5 27s0.5 13.333 0.5 18
c0 64 -12.667 116.333 -38 157s-66.333 76 -123 106c31.333 38 67 68.667 107 92c13.333 -13.333 32.333 -43.666 57 -90.999c34.667 -64.667 52 -122.667 52 -174zM712.001 262.998c-18.667 -7.33301 -35 -11.001 -49 -11.001c-47.333 0 -85.333 20.333 -114 61
c-26 36 -39 78.667 -39 128c0 20.667 7 46.667 21 78c10.667 26 21.667 45 33 57c101.333 -53.333 152 -137.666 152 -252.999c0 -10.667 -0.333008 -21 -1 -31s-1.66699 -19.667 -3 -29z" />
    <glyph glyph-name="U" unicode="U" horiz-adv-x="865" 
d="M1543 423c0 62.667 -29.665 111.667 -88.998 147c-51.333 30 -110 45 -176 45c-56 0 -100 -4.33301 -132 -13c-27.333 -7.33301 -76.333 -24.333 -147 -51c-22.667 17.333 -43.667 31.833 -63 43.5s-37.333 20.834 -54 27.501c-36.667 13.333 -81.667 20 -135 20h-46v-6
h54c53.333 0 125.333 -32.333 216 -97c-136 -88 -243.333 -195 -322 -321l-43.5 -71l-27.5 -45c-46.667 -72.667 -93.334 -109 -140.001 -109c-24.667 0 -37 15 -37 45c0 29.333 16 66 48 110l54 73.5l35 46.5l32 44.5c8 11 13.333 18.833 16 23.5
c11.333 21.333 17 45.666 17 72.999c0 72 -20.5 127.833 -61.5 167.5s-97.5 59.5 -169.5 59.5c-111.333 0 -202.333 -33.333 -273 -100c-62.667 -58.667 -94 -122.334 -94 -191.001c0 -46 15.667 -84.667 47 -116c32.667 -31.333 72 -47 118 -47
c67.333 0 122.666 14 165.999 42l-3 6c-46 -26 -100.333 -39 -163 -39c-42.667 0 -79.667 14.667 -111 44c-30 30 -45 66.667 -45 110c0 66 31 127.667 93 185c70.667 64.667 159 97 265 97c52.667 0 95.667 -13 129 -39c35.333 -29.333 53 -69.666 53 -120.999
c0 -25.333 -17 -61.333 -51 -108l-58.5 -81l-37.5 -52c-34 -49.333 -51 -95.666 -51 -138.999c0 -26 7.33301 -49.333 22 -70c16 -23.333 36 -35 60 -35c40.667 0 88 32.333 142 97c0 -64.667 19.667 -97 59 -97c48.667 0 90.667 22.667 126 68v18
c-37.333 -45.333 -74.333 -68 -111 -68c-10 0 -15 5 -15 15c0 28 37 104.667 111 230c55.333 94 137 184 245 270c130 -138 262.333 -207 397 -207c30 0 57.667 7 83 21c45.333 25.333 68 56.666 68 93.999zM1533 423c0 -30.667 -16.332 -56.333 -48.999 -77
c-28.667 -18.667 -59.334 -28 -92.001 -28c-102 0 -227 72 -375 216c98 47.333 185 71 261 71c64 0 120 -14 168 -42c58 -34 87 -80.667 87 -140z" />
    <glyph glyph-name="V" unicode="V" horiz-adv-x="597" 
d="M1186 443c0 65.333 -22.667 118.002 -68 158.002s-100.666 60 -165.999 60c-90.667 0 -165.667 -27.333 -225 -82c-26.667 -24 -58 -64.667 -94 -122c-119.333 -192 -225.666 -335 -318.999 -429c72 112.667 108 196.667 108 252c0 25.333 -4 62.666 -12 111.999
c-8 48.667 -12 86 -12 112c0 46 14 79.667 42 101c4 -0.666992 7.5 -1.16699 10.5 -1.5s5.83301 -0.5 8.5 -0.5c31.333 0 47 8.66699 47 26c0 9.33301 -5.33301 14 -16 14c-14.667 0 -32.667 -8.66699 -54 -26l-76 26c-54 18.667 -100.667 28 -140 28
c-58.667 0 -108.334 -14 -149.001 -42c-46 -32 -69 -76 -69 -132c0 -30 8.83301 -56.667 26.5 -80s40.834 -38.666 69.501 -45.999l-19.5 22.5l-15.5 17.5c-19.333 25.333 -29 51.666 -29 78.999c0 52.667 17.667 94.667 53 126s79.666 47 132.999 47
c50.667 0 119.667 -18.333 207 -55c-32 -20 -56.667 -56.667 -74 -110c-10.667 -32 -20 -74.667 -28 -128l-6 -221c-0.666992 -32 -4.66699 -56.667 -12 -74l-42 -95c4.66699 -2 10.667 -3 18 -3c98.667 101.333 183.334 203 254.001 305l52.5 78
c18.333 28 37.166 58.333 56.499 91c25.333 41.333 61 78.666 107 111.999c65.333 47.333 132 71 200 71c62.667 0 114.667 -15.667 156 -47c45.333 -35.333 68 -83.333 68 -144c0 -65.333 -22.333 -124.333 -67 -177c-46.667 -56.667 -102 -85 -166 -85
c-48.667 0 -89.334 16 -122.001 48s-49 72 -49 120c0 84 40.667 140 122 168v7c-6 0 -17.333 -4.33301 -34 -13c-65.333 -34 -98 -88 -98 -162c0 -51.333 17.333 -94 52 -128s77.667 -51 129 -51c68 0 126 29 174 87c45.333 55.333 68 117.333 68 186zM493 626.002
c0 -10 -10.001 -15 -30.001 -15c-1.33301 0 -3.33301 0.166992 -6 0.5s-5.66699 0.833008 -9 1.5c12.667 12.667 24.334 19 35.001 19c6.66699 0 10 -2 10 -6z" />
    <glyph glyph-name="W" unicode="W" horiz-adv-x="897" 
d="M1500 435c0 68 -23.666 122.672 -70.999 164.005c-45.333 40 -102 60 -170 60c-56 0 -114.333 -18.333 -175 -55c-60.667 -36 -105 -78.333 -133 -127c-62.667 -110 -124.667 -202.333 -186 -277l-71.5 -85.5l-67.5 -78.5l42.5 72c11 19.333 19.167 34.333 24.5 45
c22.667 46 34 88.667 34 128c0 11.333 -1 25.666 -3 42.999s-4.66699 37.333 -8 60c-3.33301 23.333 -6 43.666 -8 60.999s-3 31.666 -3 42.999c0 34.667 13 74.667 39 120c-33.333 -29.333 -55.333 -54.333 -66 -75c-71.333 -137.333 -136.333 -244.333 -195 -321
c-12.667 -16.667 -27 -34 -43 -52l-54 -58l-44.5 -45c-13 -13.333 -24.833 -24.666 -35.5 -33.999c78 124.667 117 210.667 117 258c0 26.667 -4 67.667 -12 123c-8 54.667 -12 95.667 -12 123c0 17.333 16 42.666 48 75.999c6 0 12 0.5 18 1.5s12.333 2.16699 19 3.5
c17.333 5.33301 26 12.333 26 21s-8 13 -24 13c-12 0 -26.333 -8 -43 -24c0 1.33301 -23.667 11 -71 29c-53.333 20 -99.333 30 -138 30c-63.333 0 -115.666 -13.333 -156.999 -40c-49.333 -31.333 -74 -76.666 -74 -135.999c0 -56 31 -96 93 -120v6
c-22 17.333 -37.333 32 -46 44c-11.333 17.333 -17 37.666 -17 60.999c0 56 19.667 100.667 59 134c36.667 30 84 45 142 45c56 0 123.667 -20 203 -60c-40 -50 -62.667 -80 -68 -90c-28 -47.333 -42 -93.333 -42 -138c0 -62.667 -1.16699 -116.5 -3.5 -161.5
s-5.83301 -81.833 -10.5 -110.5s-22 -69.334 -52 -122.001c0 -7.33301 3.66699 -11 11 -11c9.33301 0 37.666 23.667 84.999 71c29.333 30 54.666 57 75.999 81s38.666 45.333 51.999 64c58 78.667 106 149.667 144 213v-148c0 -34.667 -0.333008 -55.667 -1 -63
c-1.33301 -30 -4.16602 -56.333 -8.49902 -79s-10.166 -41.667 -17.499 -57c-21.333 -46 -32 -71 -32 -75s3 -6 9 -6c16.667 0 68 54 154 162l100.5 129.5c28.333 37.667 51.166 70.167 68.499 97.5c62 94 114.667 158.667 158 194c59.333 48.667 132.666 73 219.999 73
c60.667 0 110.334 -18.333 149.001 -55s58 -85 58 -145c0 -62 -21.333 -119.333 -64 -172c-45.333 -56 -97.666 -84 -156.999 -84c-52.667 0 -97.334 15.667 -134.001 47c-35.333 32 -53 74.333 -53 127c0 74 43.333 129.333 130 166l-3 9
c-92.667 -36 -139 -94.333 -139 -175c0 -54.667 19.333 -99.334 58 -134.001s85.667 -52 141 -52c64.667 0 120.667 28.667 168 86c44 54 66 114.667 66 182zM497.001 627.005c0 -8 -13.667 -11.999 -41 -11.999c8.66699 11.333 18.667 17.666 30 18.999
c7.33301 1.33301 11 -1 11 -7z" />
    <glyph glyph-name="X" unicode="X" horiz-adv-x="734" 
d="M950 648l-9.00098 5.99805c-14.667 0 -37 -6.33301 -67 -19c-63.333 -25.333 -148.333 -93.333 -255 -204c-14.667 110.667 -48 173.334 -100 188.001c-3.33301 0.666992 -8.33301 1 -15 1h-26c-18.667 16.667 -39 25 -61 25c-36 0 -69.667 -9.66699 -101 -29
c-22 -14 -51.333 -41.333 -88 -82l5 -6c19.333 20.667 36.5 37.834 51.5 51.501s27.833 23.834 38.5 30.501c28 18 59 27 93 27c19.333 0 36.333 -7.33301 51 -22c-136.667 -58.667 -223 -146.667 -259 -264c-56.667 -19.333 -104 -51 -142 -95
c-42 -48 -63 -100.333 -63 -157c0 -19.333 3.5 -36.833 10.5 -52.5s16.5 -29.167 28.5 -40.5s26.333 -20.166 43 -26.499s35 -9.5 55 -9.5c54.667 0 116.667 26 186 78c15.333 11.333 35.5 28.666 60.5 51.999l91.5 88c2 -18.667 4 -35.834 6 -51.501
s3.66699 -30.167 5 -43.5c10.667 -78.667 51.334 -118 122.001 -118c18 0 37.667 5 59 15l-3 9c-21.333 -10 -40 -15 -56 -15c-34.667 0 -52 28.333 -52 85c0 28.667 7 72 21 130c14 58.667 21 101 21 127l121 146.5l63 75.5c36.667 42.667 77.334 72 122.001 88
c17.333 6 31.666 10 42.999 12zM482.999 554.998c0 -46 -14.334 -92.665 -43.001 -139.998c-27.333 -44.667 -60.333 -81.334 -99 -110.001c-19.333 33.333 -51.333 50 -96 50c-3.33301 0 -7.16602 -0.166992 -11.499 -0.5s-9.5 -0.833008 -15.5 -1.5
c16.667 55.333 49.667 106.666 99 153.999c44.667 42.667 96.667 75.667 156 99c6.66699 -15.333 10 -32.333 10 -51zM331.998 299c-27.333 -17.333 -50.667 -26 -70 -26c-32 0 -48 18 -48 54c0 2 0.166992 4.33301 0.5 7s0.833008 5.66699 1.5 9
c6 0.666992 11.167 1.16699 15.5 1.5s8.16602 0.5 11.499 0.5c42.667 0 72.334 -15.333 89.001 -46zM523.997 512l-19.001 -202.997l-130.5 -156c-32.333 -38 -53.833 -62.333 -64.5 -73c-65.333 -64 -122 -96 -170 -96c-35.333 0 -65 10 -89 30c-26 22 -39 50.333 -39 85
c0 53.333 19.667 103.333 59 150c36.667 42 82 72.333 136 91c-0.666992 -3.33301 -1.16699 -6.33301 -1.5 -9s-0.5 -5.33398 -0.5 -8.00098c0 -16.667 5.33301 -30.834 16 -42.501s24.334 -17.5 41.001 -17.5c24 0 49 9 75 27c0.666992 -4 1.16699 -7.5 1.5 -10.5
s0.5 -5.83301 0.5 -8.5c0 -40 -22 -84 -66 -132c-43.333 -47.333 -84.666 -71 -123.999 -71c-15.333 0 -28 5 -38 15s-15 22.667 -15 38c0 25.333 17.667 58.666 53 99.999l-6 4c-37.333 -35.333 -56 -70 -56 -104c0 -16 6.33301 -30.333 19 -43s27 -19 43 -19
c43.333 0 87.666 24 132.999 72c46 48.667 69 94.667 69 138c0 8 -1.66699 17 -5 27c42.667 26.667 77.667 64.334 105 113.001c27.333 49.333 41 98.333 41 147c0 14.667 -2.66699 31.667 -8 51c26.667 -26.667 40 -58.334 40 -95.001z" />
    <glyph glyph-name="Y" unicode="Y" horiz-adv-x="1049" 
d="M1611 -94c0 69.333 -22.6602 129.671 -67.9932 181.004c-46.667 52.667 -105.334 79 -176.001 79c-48 0 -89.333 -13.667 -124 -41c-36.667 -28.667 -55 -67 -55 -115c0 -40.667 13 -74.334 39 -101.001c26.667 -26.667 60.667 -40 102 -40c6.66699 0 10 3.66699 10 11
c-91.333 12 -137 55.333 -137 130c0 44 17 79 51 105c31.333 23.333 69.333 35 114 35c62.667 0 117.667 -25 165 -75c44.667 -48.667 67 -105 67 -169c0 -88 -31 -161 -93 -219s-137.333 -87 -226 -87c-114 0 -230.667 39.667 -350 119
c-60.667 40.667 -111.334 83.334 -152.001 128.001l10.5 22l10.5 22l63.5 150.5l39.5 94.5c50.667 124 112 232 184 324c100.667 128.667 200.334 193 299.001 193c95.333 0 148.666 -40 159.999 -120l11 -6c0 28 -5.33301 50.333 -16 67c-28 44.667 -85.667 67 -173 67
c-157.333 0 -303.333 -109 -438 -327c-16.667 -26 -40 -72.333 -70 -139c-25.333 -55.333 -45.666 -94.666 -60.999 -117.999c-33.333 -51.333 -65.333 -77 -96 -77c-28 0 -42 19.333 -42 58c0 22.667 3.33301 45 10 67c11.333 24.667 30.666 58 57.999 100
c14 21.333 25.833 40.166 35.5 56.499s17.167 30.166 22.5 41.499c18 38 27 74.667 27 110c0 57.333 -20 105.666 -60 144.999c-39.333 40 -87.666 60 -144.999 60c-34.667 0 -66 -3.66699 -94 -11l-71 -26c-16 52 -40.5 89 -73.5 111s-77.5 33 -133.5 33
c-156 0 -234 -44.667 -234 -134c0 -38.667 18.667 -70.667 56 -96c32.667 -22 69.667 -33 111 -33c31.333 0 59 4.33301 83 13c22.667 8 49.167 19.5 79.5 34.5s64.833 33.833 103.5 56.5c0 -35.333 -2.33301 -62 -7 -80c-13.333 -35.333 -24 -60.666 -32 -75.999l8 -2
c27.333 45.333 41 92.333 41 141c0 10.667 -0.333008 17.667 -1 21c60 27.333 114.667 41 164 41c22 0 42.167 -3.66699 60.5 -11s34.166 -17.5 47.499 -30.5s23.666 -28.667 30.999 -47s11 -38.5 11 -60.5c0 -36.667 -13.333 -75.334 -40 -116.001l-75 -117
c-26.667 -40.667 -40 -86 -40 -136c0 -32.667 6.33301 -60.334 19 -83.001c16 -27.333 39.333 -41 70 -41c24 0 50.667 13.667 80 41c5.33301 5.33301 13.166 13.833 23.499 25.5l38.5 44.5c-20.667 -103.333 -36.667 -170 -48 -200c-5.33301 -13.333 -12.333 -26 -21 -38
l-51 46.5c-12.667 11.667 -21.334 19.5 -26.001 23.5c-91.333 78 -188.333 117 -291 117c-78.667 0 -148.334 -18.667 -209.001 -56c-70 -44 -105 -103.333 -105 -178s35.333 -133.334 106 -176.001c59.333 -36.667 128.666 -55 207.999 -55c166 0 291.333 84.333 376 253
c175.333 -165.333 344.333 -248 507 -248c92 0 170 30 234 90c64.667 60 97 135.667 97 227zM433.007 597.005c-122.667 -70.667 -210.668 -106 -264.001 -106c-40 0 -75.333 10 -106 30c-36 22.667 -54 52.667 -54 90c0 85.333 75.667 128 227 128
c106.667 0 172.334 -47.333 197.001 -142zM759.006 -147.995c-25.333 -47.333 -56.334 -87.333 -93.001 -120c-75.333 -67.333 -165 -101 -269 -101c-66 0 -128 14.333 -186 43c-72.667 34.667 -109 81.667 -109 141c0 72.667 32.333 130 97 172
c54.667 34.667 120.667 52 198 52c80 0 155 -23 225 -69c17.333 -11.333 37.333 -26.833 60 -46.5s48.334 -43.5 77.001 -71.5z" />
    <glyph glyph-name="Z" unicode="Z" horiz-adv-x="676" 
d="M707 499c0 47.333 -19.6689 86.6709 -59.002 118.004c-35.333 28 -78 42.667 -128 44c-50 0.666992 -105 -15.333 -165 -48c-11.333 2 -20.333 3 -27 3c-24 0 -61 -8 -111 -24c-31.333 -10 -63.333 -30 -96 -60c-52 -47.333 -91 -107.333 -117 -180
c1.33301 -0.666992 2.5 -1.33398 3.5 -2.00098s2.16699 -1.33398 3.5 -2.00098c20 59.333 49 110 87 152c14 16 29.833 30.5 47.5 43.5s36.334 24.167 56.001 33.5s40 16.5 61 21.5s41.5 7.5 61.5 7.5c2.66699 0 5.66699 -0.166992 9 -0.5s7 -0.833008 11 -1.5
c-7.33301 -4.66699 -16.5 -10.834 -27.5 -18.501l-37.5 -27.5c-124.667 -94.667 -187 -186.334 -187 -275.001c0 -17.333 2.83301 -33.5 8.5 -48.5s13.667 -28 24 -39s22.5 -19.833 36.5 -26.5s29.667 -10 47 -10c64.667 0 121.667 40.667 171 122
c42.667 70.667 64 141.334 64 212.001c0 50 -24 88.667 -72 116c14.667 10 35.334 19.333 62.001 28c28 9.33301 50 14 66 14c34 0 60.5 -10.833 79.5 -32.5s28.5 -49.5 28.5 -83.5c0 -72.667 -40.667 -161.667 -122 -267c-35.333 -45.333 -96.333 -111.333 -183 -198
c-112 -1.33301 -168 -20 -168 -56c0 -17.333 13 -26 39 -26c22.667 0 73.667 20 153 60c10 0 18.667 -7.66699 26 -23c6.66699 -12.667 10 -24.334 10 -35.001c0 -10 -3.33301 -23.667 -10 -41h-20c-8 0 -17.333 -0.333008 -28 -1s-20 -1 -28 -1h-20
c-65.333 0 -133.333 -18.667 -204 -56c-80 -44 -120 -96.333 -120 -157c0 -34 16.667 -59.667 50 -77c25.333 -13.333 57 -20 95 -20c74.667 0 146.667 29.667 216 89c70 60 110.333 126.667 121 200l67 -13l1 9l-69 16c-2 62.667 -26 102.667 -72 120
c52 36.667 97.333 70.667 136 102s70.667 59.666 96 84.999c89.333 90.667 134 175.334 134 254.001zM433.998 493.005c0 -66 -20.668 -134.333 -62.001 -205c-47.333 -80 -102 -120 -164 -120c-29.333 0 -54.666 11.667 -75.999 35c-20.667 22.667 -31 49.334 -31 80.001
c0 99.333 85.667 206 257 320c50.667 -20.667 76 -57.334 76 -110.001zM277.997 52.0049c-52.667 -34.667 -88.333 -52.002 -107 -52.002c-12.667 0 -19 4.33301 -19 13c0 16 17 27.667 51 35c6 1.33301 13 2.33301 21 3s16.667 1.33398 26 2.00098
c8 0.666992 14.333 0.833984 19 0.500977s7.66699 -0.833008 9 -1.5zM347.998 -62.9971c-15.333 -67.333 -61.668 -126.332 -139.001 -176.999c-74.667 -49.333 -147 -74 -217 -74c-35.333 0 -53 16 -53 48c0 45.333 30.667 89.666 92 132.999c68.667 48 148.667 72 240 72
c10.667 0 22.334 -0.166992 35.001 -0.5s26.667 -0.833008 42 -1.5z" />
    <glyph glyph-name="bracketleft" unicode="[" horiz-adv-x="300" 
d="M702 930h-198l-585 -1049h196l12 22h-110l563 1005h110z" />
    <glyph glyph-name="backslash" unicode="\" horiz-adv-x="237" 
d="M260 218l-8 7c-31.333 -50 -67.333 -93.333 -108 -130c-34.667 -31.333 -80 -64.333 -136 -99l6 -11c111.333 63.333 193.333 141 246 233z" />
    <glyph glyph-name="bracketright" unicode="]" horiz-adv-x="300" 
d="M601 930h-198l-12 -22h110l-561 -1005h-110l-12 -22h196z" />
    <glyph glyph-name="asciicircum" unicode="^" horiz-adv-x="265" 
d="M299 493v40l-114 37l-114 -37v-40l114 38z" />
    <glyph glyph-name="underscore" unicode="_" horiz-adv-x="500" 
d="M503 -123v50h-511v-50h511z" />
    <glyph glyph-name="grave" unicode="`" horiz-adv-x="300" 
d="M222 365l-64 134c-12 15.333 -25.333 23 -40 23c-12 0 -22.167 -4 -30.5 -12s-12.5 -18 -12.5 -30c0 -14 7 -27.333 21 -40l100 -75h26z" />
    <glyph glyph-name="a" unicode="a" 
d="M449 218l-7.99902 7c-16 -19.333 -33.833 -39.666 -53.5 -60.999l-64.5 -67c-64.667 -64.667 -108.334 -97 -131.001 -97c-14.667 0 -22 6.66699 -22 20c0 9.33301 5.66699 24.666 17 45.999l131 246c-3.33301 -1.33301 -9 -6 -17 -14c-8 -8.66699 -13.333 -13 -16 -13
c-4.66699 0 -11.667 1 -21 3s-16.333 3 -21 3c-6 0 -13 -5 -21 -15c-11.333 16 -28.333 24 -51 24c-56.667 0 -108 -22 -154 -66c-45.333 -43.333 -68 -93.333 -68 -150c0 -64.667 22 -97 66 -97c34 0 65.667 19 95 57c18 -38 43.333 -57 76 -57c48 0 135.667 77 263 231z
M207.001 258c0 -12 -34 -76 -102 -192c-26 -44 -52.333 -66 -79 -66c-13.333 0 -20 11 -20 33c0 36 19 84.667 57 146c42.667 68.667 83.667 103 123 103c14 0 21 -8 21 -24z" />
    <glyph glyph-name="b" unicode="b" horiz-adv-x="399" 
d="M422 218l-8.00098 6.99805c-44.667 -58.667 -102 -89 -172 -91c16 24 24 54.333 24 91c0 50 -25 75 -75 75c-18.667 0 -33.334 -11.333 -44.001 -34c-8 -17.333 -12 -36.666 -12 -57.999c0 -38 12 -63.333 36 -76c-12 -25.333 -30 -52.333 -54 -81
c-29.333 -35.333 -52.666 -52.333 -69.999 -51c-21.333 0 -32 10 -32 30s16.667 61.667 50 125l50.5 96c11.667 22 18.167 34.333 19.5 37c37.333 15.333 85.333 50.666 144 105.999c76 72.667 114 139.334 114 200.001c0 10 -2.83301 19.5 -8.5 28.5
s-13.167 13.5 -22.5 13.5c-58.667 0 -143.334 -76.333 -254.001 -229c-17.333 -24.667 -33.666 -50 -48.999 -76s-29.666 -53.333 -42.999 -82c-32.667 -72 -49 -134.333 -49 -187c0 -21.333 5.5 -39.166 16.5 -53.499s27.167 -21.5 48.5 -21.5c33.333 0 72 15 116 45
c40.667 28.667 70 58.667 88 90c76.667 0.666992 138.667 32.667 186 96zM350.999 583.998c-1.33301 -25.333 -20.668 -67.667 -58.001 -127c-45.333 -72 -96 -122.667 -152 -152c12 28 23.667 53.333 35 76s22.333 43.667 33 63l28 45.5l32 49.5
c34.667 50.667 58.334 76 71.001 76c8 0 11.667 -10.333 11 -31zM203.997 247.997c0 -25.333 -9.00098 -60 -27.001 -104c-18.667 14 -28 35.333 -28 64c0 16 2.33301 31 7 45c6.66699 20.667 16.334 31 29.001 31s19 -12 19 -36z" />
    <glyph glyph-name="c" unicode="c" horiz-adv-x="389" 
d="M411 218l-7.99902 7c-44.667 -62 -96 -113.333 -154 -154c-69.333 -48 -136.333 -72 -201 -72c-30 0 -45 12 -45 36c0 37.333 20.333 88.333 61 153c42.667 68 79 102 109 102c22.667 0 34 -7 34 -21c0 -6 -3.66699 -13 -11 -21s-14 -12 -20 -12
c-8.66699 0 -18.334 4.33301 -29.001 13c-6.66699 -8.66699 -10 -20 -10 -34c0 -17.333 12 -26 36 -26c15.333 0 29.166 6 41.499 18s18.5 25.667 18.5 41s-6.16699 27.833 -18.5 37.5s-26.166 14.5 -41.499 14.5c-63.333 0 -116.333 -22 -159 -66
c-43.333 -43.333 -65 -96.333 -65 -159c0 -58.667 33 -88 99 -88c68.667 0 137.667 24 207 72c56.667 40 108.667 93 156 159z" />
    <glyph glyph-name="d" unicode="d" horiz-adv-x="432" 
d="M587 594c0 23.333 -9.66602 34.999 -28.999 34.999c-45.333 0 -106.333 -49.333 -183 -148c-46.667 -59.333 -93 -128.666 -139 -207.999c-18 18 -35 27 -51 27c-64.667 0 -119.667 -21.333 -165 -64c-46 -43.333 -69 -96.333 -69 -159
c0 -23.333 6.33301 -43.666 19 -60.999c15.333 -19.333 33 -29 53 -29c18.667 0 33.667 4.33301 45 13c7.33301 5.33301 22.666 22.333 45.999 51c9.33301 -24.667 18.333 -41.334 27 -50.001c13.333 -11.333 31 -17 53 -17c23.333 0 56.333 19.667 99 59
c14 13.333 34.5 34.5 61.5 63.5l100.5 111.5l-8 7l-93.5 -102c-25.667 -27.333 -46.167 -48.333 -61.5 -63c-43.333 -40 -74.666 -60 -93.999 -60c-14 0 -21 8 -21 24c0 14.667 37.667 91.667 113 231c53.333 24.667 114.666 73.667 183.999 147
c75.333 79.333 113 143.333 113 192zM545.001 586.999c0 -46.667 -29.667 -103.667 -89 -171c-48 -54.667 -97.667 -98 -149 -130c122 215.333 195.333 323 220 323c12 0 18 -7.33301 18 -22zM215.001 259.999c0 -24 -27.668 -75.332 -83.001 -153.999l-39.5 -56.5
l-13.5 -18.5c-16 -20.667 -33.333 -31 -52 -31c-14.667 0 -22 11 -22 33c0 33.333 21.667 83.333 65 150c46 69.333 84.333 104 115 104c6.66699 0 13.334 -2.83301 20.001 -8.5s10 -11.834 10 -18.501z" />
    <glyph glyph-name="e" unicode="e" horiz-adv-x="308" 
d="M330 218l-8.00098 7c-25.333 -42 -65 -86.667 -119 -134c-68 -60 -124 -90 -168 -90c-18 0 -27 12.333 -27 37c0 20.667 6 44 18 70c30.667 0 69.334 10.667 116.001 32c60.667 28 91 63 91 105c0 15.333 -5.66699 28.333 -17 39s-24.666 16 -39.999 16
c-46.667 0 -94.334 -20 -143.001 -60c-56 -46 -84 -101 -84 -165c0 -25.333 8.16699 -46.333 24.5 -63s36.833 -25 61.5 -25c48.667 0 108 32 178 96c54 50 93 95 117 135zM182.999 264c0 -23.333 -18.333 -51.333 -55 -84c-37.333 -32 -68 -48 -92 -48
c52 103.333 94 155 126 155c14 0 21 -7.66699 21 -23z" />
    <glyph glyph-name="f" unicode="f" horiz-adv-x="237" 
d="M371 566c0 9.33301 -4.16797 17.834 -12.501 25.501s-17.166 11.5 -26.499 11.5c-42 0 -98.333 -46 -169 -138c-22 -28.667 -44.167 -59.667 -66.5 -93s-44.833 -69.333 -67.5 -108h-59l-10 -18h58c-17.333 -32 -37.833 -72 -61.5 -120l-82.5 -172
c-50 -106.667 -86.333 -176.334 -109 -209.001c-37.333 -53.333 -75 -80 -113 -80c-21.333 0 -40.333 6.33301 -57 19c-18.667 12.667 -28 29.667 -28 51c0 14.667 5 31.667 15 51c10.667 22 23 33 37 33s21 -8.66699 21 -26c0 -8 -10.333 -13.333 -31 -16
c10 -17.333 21 -26 33 -26c14 0 26.667 4.33301 38 13s17 20 17 34c0 13.333 -4.83301 25.166 -14.5 35.499s-21.167 15.5 -34.5 15.5c-25.333 0 -47.666 -10.667 -66.999 -32c-18.667 -21.333 -28 -45.666 -28 -72.999c0 -26.667 9.5 -48.334 28.5 -65.001
s42.5 -25 70.5 -25c52 0 102.667 26.667 152 80c45.333 49.333 97.666 131 156.999 245l135 267h71l10 18h-55c56 28.667 109 70.667 159 126c60 64.667 90 123.334 90 176.001zM331.999 558.001c0 -31.333 -16 -70.333 -48 -117
c-41.333 -61.333 -100.333 -120.333 -177 -177c11.333 25.333 25.5 53.5 42.5 84.5l59.5 103.5c54.667 90 90 135 106 135c11.333 0 17 -9.66699 17 -29z" />
    <glyph glyph-name="g" unicode="g" horiz-adv-x="347" 
d="M369 218l-7.99902 7.00098c-56.667 -94.667 -139 -176 -247 -244c17.333 41.333 32.666 76.166 45.999 104.499s24.666 50.5 33.999 66.5l52 89.5l44 70.5c-1.33301 -0.666992 -3.5 -2.33398 -6.5 -5.00098l-12.5 -11l-17 -14l-12 5c-8 2.66699 -16.667 4 -26 4
c-5.33301 0 -12.333 -3 -21 -9c-11.333 12 -24.333 18 -39 18c-52 0 -100.333 -23.333 -145 -70c-44 -46 -66 -95 -66 -147c0 -64 23.333 -96 70 -96c17.333 0 37.333 13.333 60 40l-30 -77c-25.333 -9.33301 -49.833 -19.833 -73.5 -31.5s-46.167 -24.834 -67.5 -39.501
c-60 -41.333 -90 -82 -90 -122c0 -11.333 2.5 -21.666 7.5 -30.999s11.5 -17.166 19.5 -23.499s17.333 -11.333 28 -15s22 -5.5 34 -5.5c36 0 68.667 17.667 98 53c21.333 26.667 42.333 63 63 109c4.66699 10.667 10.834 25.667 18.501 45s16.834 44 27.501 74
c119.333 74.667 205.666 159.667 258.999 255zM179.001 266.001c0 -24 -20 -72.332 -60 -144.999c-43.333 -79.333 -76.333 -119 -99 -119c-12 0 -18 8.33301 -18 25c0 35.333 18.333 85.666 55 150.999c39.333 71.333 74 107 104 107c12 0 18 -6.33301 18 -19z
M40.001 -65.998c-15.333 -46.667 -36.335 -90 -63.002 -130c-37.333 -55.333 -72.666 -83 -105.999 -83c-28 0 -42 13 -42 39c0 32.667 27.667 68.667 83 108c44.667 32 87.334 54 128.001 66z" />
    <glyph glyph-name="h" unicode="h" horiz-adv-x="342" 
d="M390 608c0 20 -11.998 30 -35.998 30c-45.333 0 -114.333 -67 -207 -201c-26.667 -38.667 -53.167 -79.834 -79.5 -123.501l-79.5 -138.5l-43 -80.5l-63 -118.5c6 3.33301 13.333 9.33301 22 18c6.66699 4.66699 12 7 16 7c3.33301 0 9.16602 -1 17.499 -3
s14.5 -3 18.5 -3c9.33301 0 22.666 16 39.999 48l26.5 53l27.5 54c23.333 42 47.333 73 72 93s45 30 61 30c5.33301 0 8 -3.33301 8 -10c0 -5.33301 -21.667 -41.333 -65 -108c-42.667 -64.667 -64 -105.334 -64 -122.001c0 -14.667 5.33301 -26 16 -34s23.667 -12 39 -12
c30 0 70 25.667 120 77c8.66699 8.66699 23.5 25.834 44.5 51.501l83.5 102.5l-8 7l-79 -92.5l-38 -43.5c-51.333 -54 -86.666 -81 -105.999 -81c-9.33301 0 -14 6 -14 18l66 101c43.333 66.667 65 110.334 65 131.001c0 28 -13.667 42 -41 42
c-33.333 0 -76.333 -25 -129 -75l10 22l10 22c49.333 25.333 103.666 66.666 162.999 123.999c84 80.667 126 152.334 126 215.001zM345.002 593c0 -35.333 -20 -80.333 -60 -135c-46 -63.333 -103.333 -117.333 -172 -162c66 114 110 188 132 222
c42.667 66.667 72.667 100 90 100c6.66699 0 10 -8.33301 10 -25z" />
    <glyph glyph-name="i" unicode="i" horiz-adv-x="236" 
d="M198 416c0 10 -3.5 18.168 -10.5 24.501s-15.5 9.5 -25.5 9.5c-14 0 -26 -5.16699 -36 -15.5s-15 -22.5 -15 -36.5c0 -10.667 3.66699 -19.834 11 -27.501s16.333 -11.5 27 -11.5c13.333 0 24.833 6 34.5 18s14.5 25 14.5 39zM258 218.001l-8.00098 6.99902
c-26 -31.333 -63 -71.333 -111 -120c-65.333 -66 -105.666 -99 -120.999 -99c-14.667 0 -22 8.66699 -22 26c0 13.333 2.66699 26 8 38l127 242c-4 -1.33301 -10.667 -6.66602 -20 -15.999s-15.333 -14 -18 -14c-0.666992 0 -5 1.5 -13 4.5s-15 4.5 -21 4.5
c-10 0 -19 -7 -27 -21l-37.5 -67.5c-10.333 -18.333 -18.166 -32.833 -23.499 -43.5c-24.667 -44.667 -37 -82.667 -37 -114c0 -38.667 20.667 -58 62 -58c43.333 0 130.666 77 261.999 231z" />
    <glyph glyph-name="j" unicode="j" horiz-adv-x="198" 
d="M188 413c0 24.667 -11.667 37 -35 37c-14 0 -26.667 -5.66699 -38 -17s-17 -24 -17 -38c0 -25.333 12.333 -38 37 -38c14.667 0 27.167 5.66699 37.5 17s15.5 24.333 15.5 39zM221 218l-7.99805 6.99707c-64.667 -69.333 -118.834 -125.333 -162.501 -168
s-76.834 -72.667 -99.501 -90l180 345c-2.66699 -0.666992 -9 -5.66699 -19 -15c-9.33301 -9.33301 -15.666 -14 -18.999 -14s-8.83301 1.5 -16.5 4.5s-12.834 4.5 -15.501 4.5c-11.333 0 -23.666 -11.667 -36.999 -35c-58.667 -103.333 -107.334 -210.333 -146.001 -321
c-24.667 -5.33301 -49 -13.666 -73 -24.999s-47.667 -25.333 -71 -42c-57.333 -41.333 -86 -82.666 -86 -123.999c0 -22.667 9.66699 -40.667 29 -54c16.667 -12.667 37 -19 61 -19c60.667 0 107.667 37.667 141 113l43 102l26 65
c53.333 34.667 144.333 123.334 273 266.001zM-128.998 -84.0029c-11.333 -32 -29.333 -68 -54 -108c-40.667 -64.667 -78.667 -97 -114 -97c-28 0 -42 12.333 -42 37c0 34 26.667 70.667 80 110c50 36 93.333 55.333 130 58z" />
    <glyph glyph-name="k" unicode="k" horiz-adv-x="339" 
d="M411 605c0 8.66699 -4.49805 16 -13.498 22s-18.167 9 -27.5 9c-43.333 0 -114.333 -66 -213 -198c-38 -50 -69.667 -94 -95 -132s-45.333 -71 -60 -99l-72 -138.5l-50 -93.5c2.66699 1.33301 9.33398 6.33301 20.001 15c9.33301 7.33301 15.333 11 18 11
c3.33301 0 8.66602 -1 15.999 -3s12.666 -3 15.999 -3c13.333 0 26 11.333 38 34c15.333 32 28 57.167 38 75.5s17 30.5 21 36.5h37c20 -1.33301 30 -4.33301 30 -9c0 -6 -6.66699 -23.333 -20 -52c-12.667 -27.333 -19 -46 -19 -56c0 -24.667 14.667 -37 44 -37
s72.666 30.667 129.999 92c8.66699 9.33301 22.167 25.333 40.5 48l72.5 91l-8 7c-115.333 -144 -184.666 -216 -207.999 -216c-7.33301 0 -11 2.66699 -11 8c0 2.66699 7 16.667 21 42c14 26 21 43.333 21 52c0 8 -6 21 -18 39c70 36.667 105 73.667 105 111
c0 26 -13.333 39 -40 39c-32.667 0 -76.334 -23.333 -131.001 -70l21 32c5.33301 8 9 13.667 11 17c47.333 21.333 105 67 173 137c75.333 78.667 113 141.667 113 189zM363.002 597c-1.33301 -33.333 -25.334 -82.333 -72.001 -147c-50 -69.333 -101 -118.333 -153 -147
c5.33301 16 16 38.667 32 68s38 65.333 66 108c58.667 92.667 97.334 139 116.001 139c7.33301 0 11 -7 11 -21zM198.001 245c0 -18 -9 -35.334 -27 -52.001c-14.667 -13.333 -31.667 -23.666 -51 -30.999c-11.333 -4 -33.333 -6 -66 -6c10.667 20 28.667 42 54 66
c28.667 28 51.667 42 69 42c14 0 21 -6.33301 21 -19z" />
    <glyph glyph-name="l" unicode="l" horiz-adv-x="234" 
d="M393 624c0 8.66699 -2.99902 16.834 -8.99902 24.501s-13.333 11.5 -22 11.5c-36.667 0 -95.667 -51.667 -177 -155c-28 -36 -53.833 -71.167 -77.5 -105.5s-45.167 -68.5 -64.5 -102.5c-55.333 -97.333 -83 -173.333 -83 -228c0 -22.667 4.33301 -41.334 13 -56.001
c11.333 -18 26.333 -26.667 45 -26c49.333 2 97.333 30.333 144 85c26.667 30.667 58.334 79.334 95.001 146.001l-8 7c-22.667 -44.667 -51.334 -88.334 -86.001 -131.001c-46.667 -58.667 -86 -88 -118 -88c-14 0 -21 8 -21 24c0 36 10.333 76 31 120l48 105
c90 52.667 163.333 121.667 220 207c45.333 68.667 68.666 122.667 69.999 162zM350.001 618c0 -32 -22 -84 -66 -156c-51.333 -83.333 -104.666 -141.333 -159.999 -174c7.33301 20.667 19.166 47.167 35.499 79.5s36.833 70.833 61.5 115.5c58 104 96.333 156 115 156
c9.33301 0 14 -7 14 -21z" />
    <glyph glyph-name="m" unicode="m" horiz-adv-x="533" 
d="M555 218l-7.99219 6.99805l-121 -135c-52.667 -58.667 -87 -88 -103 -88c-13.333 0 -20 8 -20 24c0 6 5 17 15 33l97 157c11.333 19.333 17 31 17 35c0 12.667 -4.5 24 -13.5 34s-19.833 15 -32.5 15c-22.667 0 -41.334 -5 -56.001 -15
c-11.333 -7.33301 -32.333 -25.333 -63 -54c0 46 -15 69 -45 69c-40 0 -87.333 -28 -142 -84l51 96c-4 -1.33301 -10.333 -6.33301 -19 -15c-9.33301 -8 -15 -12 -17 -12c-3.33301 0 -9.5 1 -18.5 3s-15.833 3 -20.5 3c-8.66699 0 -15.334 -4.33301 -20.001 -13
c-3.33301 -3.33301 -11.333 -17.333 -24 -42l-138 -261c18.667 18.667 30.667 28 36 28c1.33301 0 3.66602 -0.333008 6.99902 -1s7.16602 -1.5 11.499 -2.5s8.66602 -1.83301 12.999 -2.5s7.83301 -1 10.5 -1c8 0 24 23.667 48 71c29.333 57.333 53.333 96 72 116
c59.333 61.333 97.333 92 114 92c7.33301 0 11 -4.66699 11 -14c0 -7.33301 -49.667 -102.666 -149 -285.999c18.667 18.667 30.667 28 36 28c2 0 7.16699 -1.16699 15.5 -3.5s14.166 -3.5 17.499 -3.5c13.333 0 22.333 4.33301 27 13l49 88.5
c14 25.667 25.667 47.834 35 66.501c60.667 74 99.667 111 117 111c12 0 18 -5.66699 18 -17c0 -8 -20 -42.333 -60 -103c-40 -61.333 -60 -97 -60 -107c0 -17.333 5.66699 -31.833 17 -43.5s25.666 -17.5 42.999 -17.5c21.333 0 42.666 8.66699 63.999 26
c10.667 8.66699 32.667 31.667 66 69z" />
    <glyph glyph-name="n" unicode="n" horiz-adv-x="386" 
d="M408 218l-8.00098 7.00195l-147 -162c-36 -40 -63.667 -60 -83 -60c-14 0 -21 6 -21 18c0 3.33301 6 14.666 18 33.999l93 145c12.667 19.333 19 37.333 19 54c0 30.667 -15.333 46 -46 46c-36 0 -86 -28 -150 -84l51 96
c-1.33301 -0.666992 -3.66602 -2.33398 -6.99902 -5.00098s-7.66602 -6.33398 -12.999 -11.001c-10.667 -8.66699 -16.334 -13 -17.001 -13c-2.66699 0 -8.16699 1.33301 -16.5 4s-14.5 4 -18.5 4c-11.333 0 -21.333 -8 -30 -24l-152 -292c18.667 18.667 31 28 37 28
c3.33301 0 9.33301 -1.16699 18 -3.5s15 -3.5 19 -3.5c10 0 21 11 33 33l25 47.5c6 11.667 10 19.167 12 22.5c10 17.333 21.167 34.5 33.5 51.5s25.833 34.167 40.5 51.5c40.667 46.667 74 70 100 70c10 0 15 -3 15 -9c0 -5.33301 -4.66699 -15.333 -14 -30l-83 -127
c-14.667 -22.667 -21.667 -43 -21 -61c2 -39.333 21.333 -59 58 -59c31.333 0 65 19.667 101 59l107.5 120c25.667 28.667 41.167 46.334 46.5 53.001z" />
    <glyph glyph-name="o" unicode="o" horiz-adv-x="369" 
d="M392 218l-7.99805 6.99902c-44.667 -41.333 -85 -70.666 -121 -87.999c-7.33301 -3.33301 -13.5 -5.83301 -18.5 -7.5s-8.83301 -2.83398 -11.5 -3.50098l9 20c2.66699 6 4.66699 10.667 6 14c6 14.667 9 30 9 46c0 25.333 -7.33301 47.333 -22 66s-34.334 28 -59.001 28
c-56.667 0 -108.667 -22.667 -156 -68c-46 -45.333 -69 -96.666 -69 -153.999c0 -22.667 6.66699 -43.334 20 -62.001c15.333 -19.333 33.666 -29 54.999 -29c37.333 0 75.333 12.333 114 37c34.667 24 62.667 53 84 87c20 6 35 11 45 15
c58.667 32.667 99.667 63.334 123 92.001zM197.002 262.999c0 -34.667 -13 -79.332 -39 -133.999c-20 2.66699 -32.667 12.667 -38 30c18 2 27 8.66699 27 20c0 14 -7 21 -21 21c-20.667 0 -31 -10.667 -31 -32c0 -20.667 18.333 -37 55 -49
c-48 -79.333 -89.333 -119 -124 -119c-12.667 0 -19 10.667 -19 32c0 35.333 19.333 85.666 58 150.999c40.667 70 76.667 105 108 105c16 0 24 -8.33301 24 -25z" />
    <glyph glyph-name="p" unicode="p" horiz-adv-x="372" 
d="M395 218l-8.00098 6.99902c-35.333 -57.333 -73.666 -107.666 -114.999 -150.999c-59.333 -61.333 -111.333 -92 -156 -92c-11.333 0 -22.333 6 -33 18c98 72 147 144.667 147 218c0 21.333 -5.66699 39.666 -17 54.999c-13.333 18 -29.666 27 -48.999 27
c-20.667 0 -37.334 -6.33301 -50.001 -19l17 31c-3.33301 -1.33301 -10 -6.33301 -20 -15c-9.33301 -9.33301 -15.333 -14 -18 -14s-8.16699 1.33301 -16.5 4s-14.166 4 -17.499 4c-8.66699 0 -15.334 -3.16699 -20.001 -9.5s-7.66699 -10.5 -9 -12.5l-78 -144l-83 -157
l-96 -182l-82 -147l42 37c19.333 -8.66699 36 -13 50 -13c13.333 0 34.333 35.333 63 106c42.667 104.667 80 185.334 112 242.001c6 -29.333 20 -44 42 -44s45.667 8.66699 71 26c13.333 -15.333 28.333 -23 45 -23c48.667 0 102.667 30.667 162 92
c42.667 44.667 81.667 96.667 117 156zM169.999 257.999c0 -27.333 -14.334 -66.667 -43.001 -118c-11.333 -21.333 -22.833 -40.833 -34.5 -58.5s-23.834 -34.167 -36.501 -49.5c-23.333 17.333 -39.666 26 -48.999 26c-11.333 0 -19.333 -1 -24 -3
c14.667 36.667 34.667 76 60 118c42.667 70.667 78.334 106 107.001 106c13.333 0 20 -7 20 -21zM44.998 20.998l-14.999 -15.001c-2 -1.33301 -4.33301 -3.33301 -7 -6c-7.33301 -4 -15 -6 -23 -6s-14.5 4.33301 -19.5 13s-7.5 17.334 -7.5 26.001c0 8 8.66699 12 26 12
c13.333 0 28.666 -8 45.999 -24z" />
    <glyph glyph-name="q" unicode="q" horiz-adv-x="371" 
d="M393 218l-7.99902 7c-24.667 -36.667 -48.667 -68.167 -72 -94.5s-45.666 -47.833 -66.999 -64.5c-15.333 -11.333 -32.5 -22 -51.5 -32s-39.833 -18.667 -62.5 -26l176 304c-4 -1.33301 -10.333 -6.33301 -19 -15s-14.667 -13 -18 -13s-8.83301 1.16699 -16.5 3.5
s-13.5 3.5 -17.5 3.5c-10 0 -18 -3 -24 -9c-15.333 12 -29.333 18 -42 18c-53.333 0 -103.333 -22 -150 -66c-46 -43.333 -69 -91.333 -69 -144c0 -68.667 20 -103 60 -103c22 0 48.667 12 80 36l-57.5 -83c-15 -21.333 -25.833 -37.333 -32.5 -48
c-38 -64 -57 -113 -57 -147c0 -58 21.333 -87 64 -87s80 28.667 112 86c28.667 50.667 43 99 43 145c0 30.667 -11.667 66.334 -35 107.001c58 14 109.333 41.667 154 83c17.333 15.333 35.166 34.666 53.499 57.999s37.166 50.333 56.499 81zM197.001 264
c0 -14.667 -3.33301 -28.667 -10 -42c-18.667 -40 -36.667 -75.333 -54 -106s-34.333 -56.667 -51 -78c-15.333 -20 -30 -30 -44 -30c-17.333 0 -26 9 -26 27c0 34 20.333 82.333 61 145c42.667 66 78 99 106 99c12 0 18 -5 18 -15zM149.001 -111
c0 -30 -9 -66.999 -27 -110.999c-21.333 -52 -44 -78 -68 -78c-22.667 0 -34 14 -34 42c0 43.333 9.66699 86 29 128c2.66699 5.33301 9.66699 17.666 21 36.999l47 80c21.333 -44 32 -76.667 32 -98z" />
    <glyph glyph-name="r" unicode="r" horiz-adv-x="294" 
d="M317 218l-7.99902 6.99609c-100 -144 -176.333 -216 -229 -216c-17.333 0 -26 9 -26 27c0 6.66699 6.33301 20.334 19 41.001l79 135c14 24 21 40.333 21 49c0 10.667 -3.33301 19.834 -10 27.501s-15 11.5 -25 11.5c-15.333 0 -50.333 -23 -105 -69
c23.333 27.333 35 50.333 35 69c0 15.333 -8 23 -24 23c-15.333 0 -28.333 -9 -39 -27c-11.333 -17.333 -17 -33.666 -17 -48.999c0 -25.333 7.66699 -38 23 -38c11.333 0 23.666 5 36.999 15c13.333 10.667 22 16 26 16c2.66699 0 4 -2.33301 4 -7
c0 -6 -13.667 -32.667 -41 -80s-41 -78.666 -41 -93.999c0.666992 -48 18 -72 52 -72c51.333 0 104 27.667 158 83c30 30.667 67 80 111 148zM53.001 298.996c0 -13.333 -13 -36.333 -39 -69c-7.33301 0 -11 5.66699 -11 17s4.33301 24.333 13 39s18 22 28 22c6 0 9 -3 9 -9
z" />
    <glyph glyph-name="s" unicode="s" horiz-adv-x="248" 
d="M270 218l-8 6.99902c-38.667 -64 -75 -108.667 -109 -134c-23.333 -17.333 -54.666 -30.333 -93.999 -39c12 18.667 18 49 18 91c0 26.667 -10 63 -30 109c20.667 36.667 31 62.334 31 77.001c0 12 -8.33301 18 -25 18c-19.333 0 -33.333 -12 -42 -36
c-7.33301 -18.667 -11 -38.667 -11 -60c0 -11.333 3 -28 9 -50c6.66699 -20 10 -35.667 10 -47c0 -14.667 -3.33301 -31 -10 -49s-15.334 -31 -26.001 -39c-3.33301 1.33301 -14.666 10 -33.999 26c-14 12 -26.333 18 -37 18c-14.667 0 -26.334 -5.5 -35.001 -16.5
s-13 -24.167 -13 -39.5c0 -46 26.333 -69 79 -69c42 0 78.667 17.667 110 53c38 6 70.333 17.667 97 35c38 26 78 74.333 120 145zM66 326.999c0 -19.333 -8.33301 -40.334 -25 -63.001c-4 6.66699 -6 17.334 -6 32.001c0 6 1.66699 14 5 24c4 12 8.66699 18 14 18
c8 0 12 -3.66699 12 -11zM-27 55.998c-5.33301 -8 -18.668 -12 -40.001 -12c-21.333 4 -32 13.333 -32 28c0 13.333 6 20 18 20c4.66699 0 14.334 -5.66699 29.001 -17c14 -12 22.333 -18.333 25 -19z" />
    <glyph glyph-name="t" unicode="t" horiz-adv-x="236" 
d="M258 218l-8 7l-53 -69.5l-43 -55.5c-18 -22 -38 -41.667 -60 -59c-30.667 -23.333 -55.334 -35 -74.001 -35c-6.66699 0 -12.5 4.5 -17.5 13.5s-7.5 17.167 -7.5 24.5c0 10 7 27.667 21 53l104 182h75l6 15h-75l101 177h-11l-39 -58.5
c-11.333 -16.333 -21.333 -29.5 -30 -39.5c-27.333 -32 -57 -58.333 -89 -79h-79l-16 -15h72l-77 -159c-14 -29.333 -21 -52.333 -21 -69s4.83301 -31.5 14.5 -44.5s22.5 -19.5 38.5 -19.5c50.667 0 102.334 27.333 155.001 82c15.333 16.667 32.5 37.167 51.5 61.5
s39.5 53.5 61.5 87.5z" />
    <glyph glyph-name="u" unicode="u" horiz-adv-x="416" 
d="M438 218l-8.00098 6.99805c-30 -43.333 -65.333 -85.666 -106 -126.999c-57.333 -59.333 -100.666 -89 -129.999 -89c-17.333 0 -26 6.66699 -26 20c0 10 5.33301 24.667 16 44l127 239c-3.33301 -0.666992 -9.66602 -5.66699 -18.999 -15
c-8.66699 -8.66699 -14.334 -13 -17.001 -13c-3.33301 0 -9.16602 1.16699 -17.499 3.5s-14.5 3.5 -18.5 3.5c-10.667 0 -18.334 -4.33301 -23.001 -13l-78 -139c-9.33301 -16.667 -27 -41.667 -53 -75c-30.667 -38.667 -52 -58 -64 -58c-16 0 -24 8.66699 -24 26
c0 16.667 5.33301 35.334 16 56.001l119 224c-3.33301 -1.33301 -9.33301 -6.33301 -18 -15s-14.667 -13 -18 -13c-4 0 -9.83301 1.16699 -17.5 3.5s-12.834 3.5 -15.501 3.5c-12.667 0 -21.667 -4.66699 -27 -14l-73 -136c-22 -41.333 -33 -76.666 -33 -105.999
c0 -32 17 -48 51 -48c22.667 0 42.667 6 60 18c5.33301 4.66699 13.166 12.167 23.499 22.5s22.833 24.166 37.5 41.499c4.66699 -54.667 24.334 -82 59.001 -82c46 0 100.667 30.667 164 92c19.333 19.333 38.333 40.333 57 63s37.334 48 56.001 76z" />
    <glyph glyph-name="v" unicode="v" horiz-adv-x="377" 
d="M399 218l-7.99805 6.99902c-64 -56 -118.667 -84 -164 -84c18.667 24.667 28 54.667 28 90c0 17.333 -5.33301 34.333 -16 51c-11.333 17.333 -25 26 -41 26c-20.667 0 -38.334 -11 -53.001 -33c-13.333 -19.333 -20 -39.666 -20 -60.999
c0 -23.333 10.667 -47.666 32 -72.999c-45.333 -94 -88.666 -141 -129.999 -141c-20 0 -30 12.667 -30 38c0 12.667 4.33301 27.667 13 45l119 228c-4.66699 -1.33301 -11.334 -6.33301 -20.001 -15s-13.667 -13 -15 -13c-2.66699 0 -8.33398 1.33301 -17.001 4
s-15.334 4 -20.001 4c-9.33301 0 -16.666 -4.66699 -21.999 -14l-70 -131c-19.333 -36.667 -29 -71.334 -29 -104.001c0 -14.667 5.5 -27.5 16.5 -38.5s23.833 -16.5 38.5 -16.5c48.667 0 97.667 17 147 51c42 30 69 60 81 90c60.667 2.66699 120.667 32.667 180 90z
M207.002 239.999c0 -10 -14 -39 -42 -87c-18.667 22.667 -28 42.667 -28 60c0 14.667 4 29.667 12 45c8.66699 18 20 27 34 27c16 0 24 -15 24 -45z" />
    <glyph glyph-name="w" unicode="w" horiz-adv-x="552" 
d="M575 218l-8.00586 6.99902c-8 -19.333 -31 -39 -69 -59c-33.333 -18 -62.666 -28.667 -87.999 -32c20.667 30.667 31 62.667 31 96c0 18 -5.33301 34.667 -16 50c-10.667 18.667 -24.667 28 -42 28c-24 0 -43 -10.333 -57 -31c-13.333 -18.667 -20 -40 -20 -64
c0 -31.333 11 -57.333 33 -78c-47.333 -90 -92.333 -135 -135 -135c-18.667 0 -28 10.667 -28 32c0 13.333 6.33301 31.666 19 54.999l119 225c-4 -1.33301 -10.333 -6.33301 -19 -15s-14.667 -13 -18 -13c-4 0 -10.167 1.16699 -18.5 3.5s-14.5 3.5 -18.5 3.5
c-9.33301 0 -16.666 -4.66699 -21.999 -14l-76 -141c-7.33301 -14.667 -15.666 -28.5 -24.999 -41.5s-19.666 -25.833 -30.999 -38.5c-29.333 -33.333 -55.333 -50 -78 -50c-9.33301 0 -14 8.66699 -14 26c0 10.667 4 24.667 12 42l126 238
c-3.33301 -0.666992 -9.66602 -5.66699 -18.999 -15c-8.66699 -8.66699 -14.334 -13 -17.001 -13c-4 0 -10.5 1.16699 -19.5 3.5s-15.5 3.5 -19.5 3.5c-9.33301 0 -17.666 -6.66699 -24.999 -20l-78 -147c-15.333 -29.333 -23 -53.666 -23 -72.999
c0 -18 4.33301 -32.667 13 -44c10 -13.333 23.333 -20 40 -20c26 0 51.667 9.66699 77 29c7.33301 6 16.166 14 26.499 24s21.833 22.333 34.5 37c-4 -13.333 -6 -25.666 -6 -36.999c0 -8 1.33301 -14.333 4 -19c12.667 -22.667 32.334 -34 59.001 -34
c38.667 0 80.667 13.667 126 41c42 26 74.333 56.333 97 91c88.667 17.333 146.334 50.333 173.001 99zM380.994 265.999c0 -16.667 -4.00098 -37.333 -12.001 -62c-3.33301 -12 -7.16602 -22.5 -11.499 -31.5s-8.83301 -16.833 -13.5 -23.5c-16 12.667 -24 34 -24 64
c0 16.667 3 32 9 46c6.66699 18.667 17.667 28 33 28c12.667 0 19 -7 19 -21z" />
    <glyph glyph-name="x" unicode="x" horiz-adv-x="389" 
d="M411 218l-8 6.99902c-16.667 -22.667 -35.167 -45.167 -55.5 -67.5s-42.833 -44.166 -67.5 -65.499c-61.333 -54 -108.666 -81 -141.999 -81c-36.667 0 -55 56 -55 168c3.33301 8 19.666 22.333 48.999 43c34.667 24 62.667 36 84 36c14 0 31.667 -8 53 -24
c10.667 16.667 16 29.667 16 39c0 18 -13 27 -39 27c-20 0 -45.667 -10.667 -77 -32c-18 -12 -46.667 -35.333 -86 -70l-2 131c-2 -1.33301 -5 -7 -9 -17s-7.33301 -15 -10 -15h-35c-15.333 0 -23 -14.333 -23 -43c0 -8 0.333008 -18 1 -30s1.66699 -26.333 3 -43
s2.33301 -31 3 -43s1 -22 1 -30c-8.66699 -14 -20 -29 -34 -45c-23.333 -24 -41.333 -36 -54 -36c-12 0 -26.667 9.66699 -44 29c-16 -13.333 -24 -25.333 -24 -36c0 -22 12 -33 36 -33c28.667 0 70.334 32.333 125.001 97c22.667 -64.667 52.667 -97 90 -97
c81.333 0 182.666 77 303.999 231z" />
    <glyph glyph-name="y" unicode="y" horiz-adv-x="383" 
d="M405 218l-7.99805 6.99805l-132 -124l-69 -66c-26.667 -24.667 -52.334 -43.667 -77.001 -57l71 105c22 34 41.667 68 59 102l66 127c-4 -1.33301 -10.333 -6.33301 -19 -15c-9.33301 -9.33301 -15.333 -14 -18 -14c-3.33301 0 -9 1.33301 -17 4s-14.333 4 -19 4
c-10 0 -19.333 -8 -28 -24l-105 -188c-11.333 -21.333 -30.333 -39.333 -57 -54c-21.333 -12 -36.333 -18 -45 -18s-13 9.33301 -13 28c0 12.667 5 29 15 49l122 228c-4 -1.33301 -10.333 -6.33301 -19 -15c-9.33301 -9.33301 -15 -14 -17 -14c-4 0 -10.333 1.33301 -19 4
s-15.334 4 -20.001 4c-10 0 -19.333 -8 -28 -24l-80 -152c-11.333 -21.333 -17 -42 -17 -62c0 -44 17.667 -66 53 -66c21.333 0 53.666 16 96.999 48l-42 -83c-72 -22.667 -125.333 -44.667 -160 -66c-51.333 -31.333 -77 -66.666 -77 -105.999
c0 -22.667 7.83301 -41.167 23.5 -55.5s34.834 -21.5 57.501 -21.5c36 0 69.667 15.667 101 47c10.667 11.333 21.667 25.333 33 42s23.333 36.334 36 59.001l18 35.5l39 76.5c40.667 22.667 70.667 42.667 90 60l44.5 42c12.333 11.333 21.833 20.333 28.5 27z
M36.002 -58.002l-44.499 -73.5c-12.333 -19.667 -22.833 -35.167 -31.5 -46.5c-41.333 -55.333 -77.333 -83 -108 -83c-28 0 -42 14 -42 42c0 36 24.333 68.333 73 97c13.333 7.33301 32.666 16.5 57.999 27.5s57 23.167 95 36.5z" />
    <glyph glyph-name="z" unicode="z" horiz-adv-x="312" 
d="M335 218l-8 7.00098c-91.333 -128.667 -182.333 -214.334 -273 -257.001c-2.66699 12 -11.667 26.667 -27 44c28.667 9.33301 59.667 32.666 93 69.999c42 46.667 63 95 63 145c0 20 -6.33301 37.167 -19 51.5s-28.667 21.5 -48 21.5
c-44.667 0 -83.334 -32.333 -116.001 -97v-17c28 39.333 51.667 59 71 59c24 0 36 -11.667 36 -35c0 -26 -9.66699 -60 -29 -102c-18.667 -39.333 -38.667 -67.666 -60 -84.999c-21.333 12 -42.333 18 -63 18c-8.66699 0 -17.5 -2.5 -26.5 -7.5s-13.5 -11.5 -13.5 -19.5
c0 -15.333 12 -23 36 -23c12.667 0 30.667 4 54 12c4 -9.33301 6 -27.333 6 -54c-61.333 -16.667 -117.666 -41.667 -168.999 -75c-68.667 -44 -103 -91.333 -103 -142c0 -24 7.5 -42.5 22.5 -55.5s34.5 -19.5 58.5 -19.5c65.333 0 122.333 23.333 171 70
c49.333 47.333 74 102.666 74 165.999c0 14.667 -0.5 27.334 -1.5 38.001s-2.16699 19.667 -3.5 27c102 48 193.667 134.667 275 260zM0 13.001c-24 -9.33301 -40.333 -13.668 -49 -13.001c-15.333 0 -23 4.66699 -23 14c0 12.667 9 18.667 27 18
c14.667 -1.33301 29.667 -7.66602 45 -18.999zM11 -63.001c0 -46 -21.332 -101.333 -63.999 -166c-47.333 -69.333 -92 -104 -134 -104c-12.667 0 -23.834 4 -33.501 12s-14.5 18 -14.5 30c0 45.333 31.333 93.333 94 144c54 44 104.667 72 152 84z" />
    <glyph glyph-name="braceleft" unicode="{" horiz-adv-x="863" 
d="M821 244l0.000976562 11.0029c-36.667 45.333 -67 77.333 -91 96c-38.667 29.333 -79.334 44 -122.001 44c-60 0 -96.333 -26 -109 -78c-36.667 3.33301 -70.334 -2.33398 -101.001 -17.001c-47.333 -21.333 -71 -59 -71 -113c0 -12.667 4.66699 -29.334 14 -50.001
c-55.333 -22 -100 -33 -134 -33c-43.333 0 -83.666 16.667 -120.999 50c-36.667 34 -55 72.667 -55 116c0 36 14.333 66.333 43 91c28.667 26 61 39 97 39c32.667 0 62.667 -9.66699 90 -29c30 -22 45 -48.667 45 -80c0 -23.333 -8 -43 -24 -59s-35.667 -24 -59 -24
c-14 0 -26.167 4.5 -36.5 13.5s-15.5 20.167 -15.5 33.5c0 20.667 8.66699 31 26 31c7.33301 0 16 -5.33301 26 -16c3.33301 8 5 15 5 21c0 12.667 -4.66699 22.834 -14 30.501s-20.333 11.5 -33 11.5c-18 0 -32.833 -6.66699 -44.5 -20s-17.5 -29.333 -17.5 -48
c0 -11.333 2.66699 -21.666 8 -30.999s12.333 -17.5 21 -24.5s18.667 -12.5 30 -16.5s23 -6 35 -6c27.333 0 51.333 10.333 72 31c21.333 21.333 32 45.666 32 72.999c0 36 -15.333 65 -46 87c-30 22 -63.333 33 -100 33c-46.667 0 -85.334 -13.333 -116.001 -40
c-33.333 -29.333 -50 -66.333 -50 -111c0 -50 21 -92.333 63 -127c39.333 -33.333 84 -50 134 -50c30.667 0 79 14 145 42c14.667 -19.333 29.5 -35.5 44.5 -48.5s30.667 -23.667 47 -32s34 -14.333 53 -18s40.5 -5.5 64.5 -5.5c48 0 91.667 11 131 33
c46.667 26 70 61.667 70 107c0 29.333 -16.333 53.333 -49 72c-26 14 -56 21.667 -90 23c-17.333 18 -31.333 30 -42 36c-5.33301 3.33301 -12.333 6.66602 -21 9.99902s-19.334 6.66602 -32.001 9.99902c20.667 38 52.334 57 95.001 57
c38.667 0 76.334 -13.333 113.001 -40c22.667 -16.667 52.667 -45 90 -85zM604.001 257.003c-32 -1.33301 -54.333 -5.33301 -67 -12c-10.667 20.667 -16 39.667 -16 57c33.333 -8 61 -23 83 -45zM618.001 223.003c0 -16.667 -7 -25.001 -21 -25.001
c-22 0 -40.667 11.667 -56 35c18 6.66699 33.333 10.334 46 11.001h26c3.33301 -8.66699 5 -15.667 5 -21zM748.001 161.002c0 -37.333 -19.668 -68.667 -59.001 -94c-33.333 -20.667 -70.666 -31 -111.999 -31c-80 0 -147 34 -201 102l88.5 51.5
c25 15 45.167 27.833 60.5 38.5c20.667 -30.667 44.667 -46 72 -46c24.667 0 37 11.333 37 34c0 9.33301 -3.66699 18.666 -11 27.999c30.667 -3.33301 57 -10.666 79 -21.999c30.667 -16 46 -36.333 46 -61zM519 240.001l-82.999 -50.501l-66 -40.5
c-8 22.667 -12 40.667 -12 54c0 36.667 14.667 64.667 44 84c25.333 16.667 57.666 23.334 96.999 20.001c2 -24 8.66699 -46.333 20 -67z" />
    <glyph glyph-name="braceright" unicode="}" horiz-adv-x="863" 
d="M819 260c0 44.667 -16.666 81.6641 -49.999 110.997c-30.667 26.667 -69.334 40 -116.001 40c-36.667 0 -69.667 -10.667 -99 -32c-31.333 -23.333 -47 -52.666 -47 -87.999c0 -28 10.333 -52.333 31 -73s45 -31 73 -31c12 0 23.667 2 35 6s21.333 9.5 30 16.5
s15.667 15.167 21 24.5s8 19.666 8 30.999c0 18.667 -5.83301 34.667 -17.5 48s-26.5 20 -44.5 20c-12.667 0 -23.667 -3.83301 -33 -11.5s-14 -17.834 -14 -30.501c0 -6 1.66699 -13 5 -21c10 10.667 18.667 16 26 16c17.333 0 26 -10.333 26 -31
c0 -13.333 -5.16699 -24.5 -15.5 -33.5s-22.5 -13.5 -36.5 -13.5c-23.333 0 -43 8 -59 24s-24 35.667 -24 59c0 31.333 15 58 45 80c27.333 19.333 57.333 29 90 29c35.333 0 67.666 -13 96.999 -39c28.667 -24.667 43 -55 43 -91c0 -43.333 -18.333 -82 -55 -116
c-37.333 -33.333 -77.666 -50 -120.999 -50c-34.667 0 -79.334 11 -134.001 33c9.33301 20.667 14 37.334 14 50.001c0 54 -23.667 91.667 -71 113c-30.667 14.667 -64.334 20.334 -101.001 17.001c-13.333 52 -49.666 78 -108.999 78
c-42.667 0 -83.334 -14.667 -122.001 -44c-24 -18.667 -54.333 -50.667 -91 -96v-11c37.333 40 67.333 68.333 90 85c36.667 26.667 74.334 40 113.001 40c42 0 73.667 -19 95 -57c-12.667 -3.33301 -23.5 -6.66602 -32.5 -9.99902s-16.167 -6.66602 -21.5 -9.99902
c-9.33301 -5.33301 -23 -17.333 -41 -36c-34 -1.33301 -64 -9 -90 -23c-32.667 -18.667 -49 -42.667 -49 -72c0 -45.333 23.333 -81 70 -107c38.667 -22 82.334 -33 131.001 -33c24 0 45.5 1.83301 64.5 5.5s36.667 9.66699 53 18s31.833 19 46.5 32s29.667 29.167 45 48.5
c66 -28 114.333 -42 145 -42c50 0 94.667 16.667 134 50c42 34.667 63 77 63 127zM466.001 202.997c0 -13.333 -3.99902 -31.332 -11.999 -53.999l-90 54.5l-59 36.5c11.333 20.667 18 43 20 67c39.333 3.33301 71.666 -3.33398 96.999 -20.001
c29.333 -19.333 44 -47.333 44 -84zM303.002 301.998c0 -17.333 -5.33398 -36.333 -16.001 -57c-9.33301 4.66699 -20.333 8 -33 10c-3.33301 0.666992 -7.66602 1 -12.999 1s-12.333 0.333008 -21 1c22 22 49.667 37 83 45zM283.001 232.998
c-15.333 -23.333 -34 -34.999 -56 -34.999c-14 0 -21 8.33301 -21 25c0 5.33301 1.66699 12.333 5 21h26c12.667 -0.666992 28 -4.33398 46 -11.001zM448.001 137.999c-54 -68 -121.001 -101.999 -201.001 -101.999c-41.333 0 -78.666 10.333 -111.999 31
c-39.333 25.333 -59 56.666 -59 93.999c0 24.667 15.333 45 46 61c22 11.333 48.333 18.666 79 21.999c-7.33301 -9.33301 -11 -18.666 -11 -27.999c0 -22.667 12.333 -34 37 -34c27.333 0 51.333 15.333 72 46l84 -49.5z" />
    <glyph glyph-name="asciitilde" unicode="~" horiz-adv-x="495" 
d="M95 156c4.66699 38.667 22.668 58 54.001 58c8.66699 0 42.667 -9.66699 102 -29c47.333 -15.333 79.333 -23 96 -23c18 0 35.667 5 53 15c31.333 18.667 49.666 53 54.999 103h-55c-7.33301 -38 -25.333 -57 -54 -57c-11.333 0 -41 8 -89 24
c-54 18.667 -90.667 28 -110 28c-30.667 0 -56.667 -13.667 -78 -41c-17.333 -23.333 -27 -49.333 -29 -78h55z" />
    <glyph glyph-name="exclamdown" unicode="&#xa1;" horiz-adv-x="328" 
d="M-1 30c0 -25.333 8.33301 -37.998 25 -37.998c31.333 0 60.333 31.333 87 94l87 206.5l59 137.5c3.33301 8.66699 7.5 18.167 12.5 28.5s10.833 21.166 17.5 32.499h-11c-48 -77.333 -84 -133.333 -108 -168c-112.667 -162.667 -169 -260.334 -169 -293.001zM312 621.002
c0 -33.333 14.001 -49.999 42.001 -49.999c15.333 0 28.666 6.16699 39.999 18.5s17 26.166 17 41.499c0 32.667 -13.667 49 -41 49c-15.333 0 -28.833 -6 -40.5 -18s-17.5 -25.667 -17.5 -41z" />
    <glyph glyph-name="cent" unicode="&#xa2;" horiz-adv-x="355" 
d="M315 409c0 36 -17.6689 59.667 -53.002 71l36 67l-16 5l-36 -67c-96 0 -167.333 -50.333 -214 -151c-18.667 -39.333 -28 -77 -28 -113c0 -43.333 18.667 -71 56 -83l-48 -90l16 -7l49 92c10.667 0 20.334 0.5 29.001 1.5s16.667 2.16699 24 3.5
c20.667 4.66699 47 21 79 49l-9 13c-35.333 -29.333 -64 -44 -86 -44c-12.667 0 -23 5.16699 -31 15.5s-12 22.166 -12 35.499c0 44 17.667 91.333 53 142c48 68 90.667 102 128 102c28 0 42 -11 42 -33c0 -9.33301 -4 -18.666 -12 -27.999s-16.333 -14 -25 -14
c-9.33301 0 -14 6.33301 -14 19c0 6 5.66699 12.667 17 20c-9.33301 7.33301 -16.333 11 -21 11c-29.333 0 -44 -17 -44 -51c0 -26.667 16 -40 48 -40c20.667 0 37.834 7.16699 51.501 21.5s20.5 31.833 20.5 52.5z" />
    <glyph glyph-name="currency" unicode="&#xa4;" horiz-adv-x="517" 
d="M100 101l23.0029 -23.001l45 44c27.333 -21.333 57.666 -32 90.999 -32c32 0 62.333 10.667 91 32l45 -45l23 24l-44 45c21.333 30.667 32 61 32 91c0 30.667 -10.333 61.334 -31 92.001l43 44l-23 24l-44 -44c-28.667 20.667 -59.334 31 -92.001 31
s-63.334 -10.333 -92.001 -31l-44 44l-24 -24l44 -44c-20.667 -27.333 -31 -58 -31 -92s10.667 -64.333 32 -91zM259.003 347.999c30.667 0 56.666 -10.667 77.999 -32c22 -21.333 33 -47.666 33 -78.999c0 -15.333 -3 -29.666 -9 -42.999s-14 -25 -24 -35
s-21.667 -18 -35 -24s-27.666 -9 -42.999 -9s-29.666 3 -42.999 9s-25 14 -35 24s-18 21.667 -24 35s-9 27.666 -9 42.999s3 29.666 9 42.999s14 25 24 35s21.667 18 35 24s27.666 9 42.999 9z" />
    <glyph glyph-name="brokenbar" unicode="&#xa6;" horiz-adv-x="243" 
d="M89 675v-350h66v350h-66zM89 175v-349h66v349h-66z" />
    <glyph glyph-name="section" unicode="&#xa7;" horiz-adv-x="463" 
d="M387 325c32 54.667 48.002 89.666 48.002 104.999c0 14.667 -7.66699 27.667 -23 39c-16.667 12.667 -41 19 -73 19c-57.333 0 -107.333 -18.333 -150 -55c-38 -33.333 -57 -66 -57 -98c0 -15.333 6.66699 -32.333 20 -51c-22.667 -14.667 -41.834 -27.667 -57.501 -39
s-27.834 -21.333 -36.501 -30c-26.667 -26.667 -40 -55.667 -40 -87c0 -18 7 -34.333 21 -49s54.333 -48 121 -100l22 -18l14 -11c28.667 -24 43 -42.667 43 -56c0 -32.667 -25 -49 -75 -49c-29.333 0 -57 6 -83 18l14 27c-49.333 2.66699 -84.333 5.66699 -105 9l-36 -71
c0 -4.66699 3 -8 9 -10c16.667 -6 48.667 -9 96 -9c84 0 149.333 18.667 196 56c34 26.667 51 54.667 51 84c0 13.333 -3.66699 25 -11 35s-13 16.667 -17 20c52.667 28 82.667 45 90 51c33.333 25.333 50 53.333 50 84c0 22.667 -10 44.667 -30 66
c-26 23.333 -49.167 43.333 -69.5 60l-52.5 42c-58 46.667 -87 77 -87 91c0 6.66699 8.83301 13.334 26.5 20.001s39.167 10 64.5 10c78.667 0 118 -19.333 118 -58c0 -9.33301 -4 -23.333 -12 -42zM251.002 198.999c36.667 -30 59.333 -49.999 68 -59.999
c12.667 -13.333 19 -28.333 19 -45c0 -30.667 -23 -58.334 -69 -83.001l-51.5 42.5l-43.5 35.5l-23 19.5c-6 5 -9.66699 8.16699 -11 9.5c-34 28.667 -51 53.334 -51 74.001c0 29.333 23.667 56.666 71 81.999l17 -15c6.66699 -6 14.667 -12.667 24 -20z" />
    <glyph glyph-name="dieresis" unicode="&#xa8;" horiz-adv-x="300" 
d="M264 418c0 30 -12.667 45 -38 45c-13.333 0 -25.333 -5.5 -36 -16.5s-16 -23.167 -16 -36.5c0 -30 12.333 -45 37 -45c13.333 0 25.5 5.5 36.5 16.5s16.5 23.167 16.5 36.5zM130 418c0 30 -12.333 45 -37 45c-13.333 0 -25.5 -5.5 -36.5 -16.5s-16.5 -23.167 -16.5 -36.5
c0 -30 12.667 -45 38 -45c13.333 0 25.333 5.5 36 16.5s16 23.167 16 36.5z" />
    <glyph glyph-name="copyright" unicode="&#xa9;" horiz-adv-x="800" 
d="M762 361c0 102 -34.332 187.665 -102.999 256.998c-68.667 70.667 -152.334 106 -251.001 106s-182.667 -35.667 -252 -107s-104 -156.666 -104 -255.999s34.667 -184.666 104 -255.999c68.667 -70 152.667 -105 252 -105c98 0 181.667 35 251 105
c68.667 70.667 103 156 103 256zM112.001 360.998c0 85.333 29.001 159.666 87.001 222.999s127.667 95 209 95s150.666 -31.667 207.999 -95s86 -137.666 86 -222.999s-29 -159.333 -87 -222c-56.667 -62.667 -125.667 -94 -207 -94s-151 31.333 -209 94
s-87 136.667 -87 222zM582.002 272.998h-19.999c-22 -56 -63.333 -84 -124 -84c-100 0 -149.333 62 -148 186c0.666992 52 13.5 93.667 38.5 125s59.5 47 103.5 47c71.333 0 109.333 -29.333 114 -88h20v72c0 10.667 -8 18 -24 22c-36 13.333 -71.333 20 -106 20
c-72.667 0 -130.334 -23 -173.001 -69c-36.667 -38.667 -55 -83 -55 -133c0 -70 21.333 -123 64 -159c38.667 -32.667 90.667 -49 156 -49c37.333 0 74 6 110 18c18.667 6 28 12.667 28 20z" />
    <glyph glyph-name="registered" unicode="&#xae;" horiz-adv-x="420" 
d="M389 495c0 50 -17.6689 92.667 -53.002 128c-35.333 36 -78 54 -128 54c-49.333 0 -91.666 -17.667 -126.999 -53s-53 -78.333 -53 -129c0 -50 17.667 -92.667 53 -128c34.667 -34.667 77.334 -52 128.001 -52c48.667 0 90.667 17.667 126 53c36 34.667 54 77 54 127z
M353.998 494c0 -40 -14.332 -74.333 -42.999 -103c-29.333 -28 -63.333 -42 -102 -42c-40.667 0 -75.334 14 -104.001 42c-28 28.667 -42 63 -42 103s14 74.667 42 104c29.333 29.333 64 44 104 44c40.667 0 75 -14.667 103 -44s42 -64 42 -104zM308.999 403v6.00098
c-8 0 -15 3.66699 -21 11l-62 74c36 6 54 22.667 54 50c0 34 -26 51 -78 51h-84v-7c14.667 -0.666992 22 -9.66699 22 -27v-122c0 -12 -1.16699 -19.833 -3.5 -23.5s-8.5 -5.83398 -18.5 -6.50098v-6h76v6c-15.333 0 -23 8.66699 -23 26v57h21l73 -89h44zM246.999 543.001
c0 -28.667 -25.333 -43 -76 -43v67c0 11.333 5 17 15 17c40.667 0 61 -13.667 61 -41z" />
    <glyph glyph-name="degree" unicode="&#xb0;" horiz-adv-x="459" 
d="M274 537c0 38.667 -20.333 58 -61 58c-37.333 0 -75.333 -19.333 -114 -58c-38 -38 -57 -75.667 -57 -113c0 -46.667 21.333 -70 64 -70c40.667 0 78.667 20 114 60c36 40.667 54 81.667 54 123zM249 527c0 -32.667 -17.333 -66.333 -52 -101
c-31.333 -31.333 -56 -47 -74 -47c-13.333 0 -20 8 -20 24c0 28 13 61.667 39 101c28 42.667 55 64 81 64c17.333 0 26 -13.667 26 -41z" />
    <glyph glyph-name="acute" unicode="&#xb4;" horiz-adv-x="300" 
d="M255 484c0 25.333 -14.668 38 -44.001 38c-13.333 0 -26.666 -7.66699 -39.999 -23l-118 -134h30l151 79c14 12.667 21 26 21 40z" />
    <glyph glyph-name="questiondown" unicode="&#xbf;" horiz-adv-x="522" 
d="M11 117c0 -37.333 16 -68 48 -92c28.667 -22 62.334 -33 101.001 -33c62.667 0 120.667 20 174 60c57.333 43.333 86 95.333 86 156c0 16.667 -5.33301 30.667 -16 42s-24.334 17 -41.001 17c-19.333 0 -41.666 -8.66699 -66.999 -26l10 -3c20.667 12 39 18 55 18
c14 0 25.5 -4.66699 34.5 -14s13.5 -21 13.5 -35c0 -45.333 -25.333 -88 -76 -128c-47.333 -37.333 -94.666 -56 -141.999 -56c-28.667 0 -53.334 7.66699 -74.001 23c-22 16.667 -33 39.334 -33 68.001c0 37.333 26 80.666 78 129.999c34 32 61.667 54.667 83 68l100.5 63
c24.333 16 40.166 26.667 47.499 32c19.333 15.333 29 33.333 29 54c0 27.333 -14 41 -42 41c-9.33301 0 -24.666 -2.66699 -45.999 -8l11 -7c7.33301 2.66699 15.666 4 24.999 4c25.333 0 38 -10 38 -30c0 -8 -3.5 -16.667 -10.5 -26s-14.167 -16 -21.5 -20l-208 -103
c-38.667 -19.333 -73 -46 -103 -80c-36 -40 -54 -78.333 -54 -115zM406 620c0 -33.333 14 -49.999 42 -49.999c15.333 0 28.833 6.16699 40.5 18.5s17.5 26.166 17.5 41.499c0 32.667 -14 49 -42 49c-15.333 0 -28.833 -6 -40.5 -18s-17.5 -25.667 -17.5 -41z" />
    <glyph glyph-name="Agrave" unicode="&#xc0;" horiz-adv-x="1061" 
d="M1056 617c0.666992 0 1 -0.333008 1 -1c-3.33301 -5.33301 -16.333 -21.333 -39 -48c-76.667 -88.667 -121 -169.667 -133 -243c-32 -6 -69.333 -9 -112 -9c16.667 46 51 99 103 159l37 38c14 14 30.333 28.667 49 44c46.667 40 78 60 94 60zM1215 -14
c0 -38 -19 -70.999 -57 -98.999c-35.333 -26 -72.666 -39 -111.999 -39c-96.667 0 -183.334 32.333 -260.001 97c110 66.667 176.667 105.334 200 116.001c38 17.333 74.667 26 110 26c16 0 31.167 -2.5 45.5 -7.5s27 -11.833 38 -20.5s19.667 -19.334 26 -32.001
s9.5 -26.334 9.5 -41.001zM696 -7.99902c-14.667 -3.33301 -25.667 -5 -33 -5c-14.667 0 -22 4.33301 -22 13c0 4 3 6 9 6c8.66699 0 24 -4.66699 46 -14zM741 299.001c-62 -96 -107 -159.333 -135 -190c-73.333 -81.333 -143.333 -122 -210 -122
c-73.333 0 -110 38 -110 114c0 58 28.667 106.667 86 146c50.667 34.667 106.667 52 168 52h201zM991 715.001l-56.999 119.003c50 -8.66699 95.667 -27.334 137 -56.001c72.667 -48.667 109 -112.334 109 -191.001c0 -111.333 -64.667 -192.666 -194 -243.999
c8 110 45 195.667 111 257c22.667 20.667 34 34.667 34 42c0 10.667 -3.33301 16 -10 16c-109.333 -32 -206 -104 -290 -216c-36 -47.333 -62 -89.333 -78 -126h-249c-68.667 0 -128.334 -18.333 -179.001 -55c-57.333 -41.333 -86 -94.666 -86 -159.999
c0 -42.667 16 -75.334 48 -98.001c28.667 -20 65 -30 109 -30c97.333 0 193 69.333 287 208l48.5 73.5l30.5 46.5c51.333 0 92 3 122 9c0 -31.333 -12.333 -77 -37 -137l-25 -61l-19 -44c-3.33301 -7.33301 -15.666 -20.666 -36.999 -39.999
c-20.667 -18.667 -34.334 -28 -41.001 -28c-32 14.667 -58.667 22 -80 22c-16.667 0 -25 -6.66699 -25 -20c0 -20 18.333 -30 55 -30c6.66699 0 13.834 0.5 21.501 1.5l25.5 3.5l36 -32c-142 -84 -264 -126 -366 -126c-110 0 -201.333 32.333 -274 97
c-76.667 66 -115 153.333 -115 262c0 102.667 31.667 186.667 95 252c62.667 64.667 145.667 97 249 97c17.333 0 36.666 -4.33301 57.999 -13v12c-22 8 -41.333 12 -58 12c-108 0 -194 -33 -258 -99c-63.333 -66.667 -95 -153.667 -95 -261c0 -111.333 39 -201 117 -269
c74.667 -66.667 168.334 -100 281.001 -100c94 0 196.667 30 308 90l41.5 23.5c11 6.33301 19.833 11.166 26.5 14.499l51.5 -35c15 -10 28.167 -18 39.5 -24c58.667 -30 121 -44.667 187 -44c43.333 1.33301 83.666 16 120.999 44c41.333 32 62 68.333 62 109
c0 33.333 -14.333 61 -43 83c-25.333 20.667 -55.666 31 -90.999 31c-36.667 0 -72.334 -8 -107.001 -24c-27.333 -12.667 -98 -53.667 -212 -123l-30 28c64 33.333 119.667 83.666 167 150.999c24 35.333 40.667 65.666 50 90.999c10 27.333 17 61 21 101
c140 54.667 210 142 210 262c0 82.667 -37.667 149.667 -113 201c-48 32.667 -99.667 53.334 -155 62.001c-10.667 14.667 -23.667 22 -39 22c-14 0 -25.333 -5.33301 -34 -16h-2c-82 0 -159.333 -24.333 -232 -73c-80.667 -54.667 -121 -121.334 -121 -200.001
c0 -98 38.667 -163 116 -195l3 13c-70 30.667 -105 91.334 -105 182.001c0 74 38.333 137 115 189c67.333 45.333 140.333 68.666 219 69.999c-1.33301 -5.33301 -2 -9.33301 -2 -12c0 -14 7 -27.333 21 -40l100 -75h26z" />
    <glyph glyph-name="Aacute" unicode="&#xc1;" horiz-adv-x="1061" 
d="M1056 617c0.666992 0 1 -0.333008 1 -1c-3.33301 -5.33301 -16.333 -21.333 -39 -48c-76.667 -88.667 -121 -169.667 -133 -243c-32 -6 -69.333 -9 -112 -9c16.667 46 51 99 103 159l37 38c14 14 30.333 28.667 49 44c46.667 40 78 60 94 60zM1215 -14
c0 -38 -19 -70.999 -57 -98.999c-35.333 -26 -72.666 -39 -111.999 -39c-96.667 0 -183.334 32.333 -260.001 97c110 66.667 176.667 105.334 200 116.001c38 17.333 74.667 26 110 26c16 0 31.167 -2.5 45.5 -7.5s27 -11.833 38 -20.5s19.667 -19.334 26 -32.001
s9.5 -26.334 9.5 -41.001zM696 -7.99902c-14.667 -3.33301 -25.667 -5 -33 -5c-14.667 0 -22 4.33301 -22 13c0 4 3 6 9 6c8.66699 0 24 -4.66699 46 -14zM741 299.001c-62 -96 -107 -159.333 -135 -190c-73.333 -81.333 -143.333 -122 -210 -122
c-73.333 0 -110 38 -110 114c0 58 28.667 106.667 86 146c50.667 34.667 106.667 52 168 52h201zM1299 832.001c0 25.333 -14.666 38.0029 -43.999 38.0029c-13.333 0 -26.666 -7.66699 -39.999 -23l-87 -98c-12.667 13.333 -28.334 26.333 -47.001 39
c-67.333 45.333 -144 68 -230 68c-83.333 0 -160.666 -24.333 -231.999 -73c-80.667 -54.667 -121 -121.334 -121 -200.001c0 -98 38.667 -163 116 -195l3 13c-70 30.667 -105 91.334 -105 182.001c0 75.333 39 138.666 117 189.999c68.667 46 142.667 69 222 69
c83.333 0 156.666 -21.333 219.999 -64c19.333 -12.667 35.333 -26 48 -40l-22 -25h30l10 5c28.667 -36.667 43 -80.334 43 -131.001c0 -111.333 -64.667 -192.666 -194 -243.999c8 110 45 195.667 111 257c22.667 20.667 34 34.667 34 42c0 10.667 -3.33301 16 -10 16
c-109.333 -32 -206 -104 -290 -216c-36 -47.333 -62 -89.333 -78 -126h-249c-68.667 0 -128.334 -18.333 -179.001 -55c-57.333 -41.333 -86 -94.666 -86 -159.999c0 -42.667 16 -75.334 48 -98.001c28.667 -20 65 -30 109 -30c97.333 0 193 69.333 287 208l48.5 73.5
l30.5 46.5c51.333 0 92 3 122 9c0 -31.333 -12.333 -77 -37 -137l-25 -61l-19 -44c-3.33301 -7.33301 -15.666 -20.666 -36.999 -39.999c-20.667 -18.667 -34.334 -28 -41.001 -28c-32 14.667 -58.667 22 -80 22c-16.667 0 -25 -6.66699 -25 -20c0 -20 18.333 -30 55 -30
c6.66699 0 13.834 0.5 21.501 1.5l25.5 3.5l36 -32c-142 -84 -264 -126 -366 -126c-110 0 -201.333 32.333 -274 97c-76.667 66 -115 153.333 -115 262c0 102.667 31.667 186.667 95 252c62.667 64.667 145.667 97 249 97c17.333 0 36.666 -4.33301 57.999 -13v12
c-22 8 -41.333 12 -58 12c-108 0 -194 -33 -258 -99c-63.333 -66.667 -95 -153.667 -95 -261c0 -111.333 39 -201 117 -269c74.667 -66.667 168.334 -100 281.001 -100c94 0 196.667 30 308 90l41.5 23.5c11 6.33301 19.833 11.166 26.5 14.499l51.5 -35
c15 -10 28.167 -18 39.5 -24c58.667 -30 121 -44.667 187 -44c43.333 1.33301 83.666 16 120.999 44c41.333 32 62 68.333 62 109c0 33.333 -14.333 61 -43 83c-25.333 20.667 -55.666 31 -90.999 31c-36.667 0 -72.334 -8 -107.001 -24
c-27.333 -12.667 -98 -53.667 -212 -123l-30 28c64 33.333 119.667 83.666 167 150.999c24 35.333 40.667 65.666 50 90.999c10 27.333 17 61 21 101c140 54.667 210 142 210 262c0 52 -15 98 -45 138l129 67c14 12.667 21 26 21 40z" />
    <glyph glyph-name="Acircumflex" unicode="&#xc2;" horiz-adv-x="1061" 
d="M1056 617c0.666992 0 1 -0.333008 1 -1c-3.33301 -5.33301 -16.333 -21.333 -39 -48c-76.667 -88.667 -121 -169.667 -133 -243c-32 -6 -69.333 -9 -112 -9c16.667 46 51 99 103 159l37 38c14 14 30.333 28.667 49 44c46.667 40 78 60 94 60zM1215 -14
c0 -38 -19 -70.999 -57 -98.999c-35.333 -26 -72.666 -39 -111.999 -39c-96.667 0 -183.334 32.333 -260.001 97c110 66.667 176.667 105.334 200 116.001c38 17.333 74.667 26 110 26c16 0 31.167 -2.5 45.5 -7.5s27 -11.833 38 -20.5s19.667 -19.334 26 -32.001
s9.5 -26.334 9.5 -41.001zM696 -7.99902c-14.667 -3.33301 -25.667 -5 -33 -5c-14.667 0 -22 4.33301 -22 13c0 4 3 6 9 6c8.66699 0 24 -4.66699 46 -14zM741 299.001c-62 -96 -107 -159.333 -135 -190c-73.333 -81.333 -143.333 -122 -210 -122
c-73.333 0 -110 38 -110 114c0 58 28.667 106.667 86 146c50.667 34.667 106.667 52 168 52h201zM1179 774.001l24 -54.998h19l-8 151l-125 -88c-68.667 49.333 -148 74 -238 74c-83.333 0 -160.666 -24.333 -231.999 -73c-80.667 -54.667 -121 -121.334 -121 -200.001
c0 -98 38.667 -163 116 -195l3 13c-70 30.667 -105 91.334 -105 182.001c0 75.333 39 138.666 117 189.999c68.667 46 142.667 69 222 69c84 0 157.333 -21.333 220 -64l6 -4l-78 -55h38l73 28c46.667 -42.667 70 -96 70 -160c0 -111.333 -64.667 -192.666 -194 -243.999
c8 110 45 195.667 111 257c22.667 20.667 34 34.667 34 42c0 10.667 -3.33301 16 -10 16c-109.333 -32 -206 -104 -290 -216c-36 -47.333 -62 -89.333 -78 -126h-249c-68.667 0 -128.334 -18.333 -179.001 -55c-57.333 -41.333 -86 -94.666 -86 -159.999
c0 -42.667 16 -75.334 48 -98.001c28.667 -20 65 -30 109 -30c97.333 0 193 69.333 287 208l48.5 73.5l30.5 46.5c51.333 0 92 3 122 9c0 -31.333 -12.333 -77 -37 -137l-25 -61l-19 -44c-3.33301 -7.33301 -15.666 -20.666 -36.999 -39.999
c-20.667 -18.667 -34.334 -28 -41.001 -28c-32 14.667 -58.667 22 -80 22c-16.667 0 -25 -6.66699 -25 -20c0 -20 18.333 -30 55 -30c6.66699 0 13.834 0.5 21.501 1.5l25.5 3.5l36 -32c-142 -84 -264 -126 -366 -126c-110 0 -201.333 32.333 -274 97
c-76.667 66 -115 153.333 -115 262c0 102.667 31.667 186.667 95 252c62.667 64.667 145.667 97 249 97c17.333 0 36.666 -4.33301 57.999 -13v12c-22 8 -41.333 12 -58 12c-108 0 -194 -33 -258 -99c-63.333 -66.667 -95 -153.667 -95 -261c0 -111.333 39 -201 117 -269
c74.667 -66.667 168.334 -100 281.001 -100c94 0 196.667 30 308 90l41.5 23.5c11 6.33301 19.833 11.166 26.5 14.499l51.5 -35c15 -10 28.167 -18 39.5 -24c58.667 -30 121 -44.667 187 -44c43.333 1.33301 83.666 16 120.999 44c41.333 32 62 68.333 62 109
c0 33.333 -14.333 61 -43 83c-25.333 20.667 -55.666 31 -90.999 31c-36.667 0 -72.334 -8 -107.001 -24c-27.333 -12.667 -98 -53.667 -212 -123l-30 28c64 33.333 119.667 83.666 167 150.999c24 35.333 40.667 65.666 50 90.999c10 27.333 17 61 21 101
c140 54.667 210 142 210 262c0 64.667 -23.333 120 -70 166z" />
    <glyph glyph-name="Atilde" unicode="&#xc3;" horiz-adv-x="1061" 
d="M1056 617c0.666992 0 1 -0.333008 1 -1c-3.33301 -5.33301 -16.333 -21.333 -39 -48c-76.667 -88.667 -121 -169.667 -133 -243c-32 -6 -69.333 -9 -112 -9c16.667 46 51 99 103 159l37 38c14 14 30.333 28.667 49 44c46.667 40 78 60 94 60zM1215 -14
c0 -38 -19 -70.999 -57 -98.999c-35.333 -26 -72.666 -39 -111.999 -39c-96.667 0 -183.334 32.333 -260.001 97c110 66.667 176.667 105.334 200 116.001c38 17.333 74.667 26 110 26c16 0 31.167 -2.5 45.5 -7.5s27 -11.833 38 -20.5s19.667 -19.334 26 -32.001
s9.5 -26.334 9.5 -41.001zM696 -7.99902c-14.667 -3.33301 -25.667 -5 -33 -5c-14.667 0 -22 4.33301 -22 13c0 4 3 6 9 6c8.66699 0 24 -4.66699 46 -14zM741 299.001c-62 -96 -107 -159.333 -135 -190c-73.333 -81.333 -143.333 -122 -210 -122
c-73.333 0 -110 38 -110 114c0 58 28.667 106.667 86 146c50.667 34.667 106.667 52 168 52h201zM1275 878.001c-11.333 -18 -23.332 -26.998 -35.999 -26.998c-12 0 -29.333 3 -52 9c-22 6.66699 -39 10 -51 10c-12.667 0 -24.667 -7.66699 -36 -23l-34 -49
c-62.667 38.667 -134.334 58 -215.001 58c-83.333 0 -160.666 -24.333 -231.999 -73c-80.667 -54.667 -121 -121.334 -121 -200.001c0 -98 38.667 -163 116 -195l3 13c-70 30.667 -105 91.334 -105 182.001c0 75.333 39 138.666 117 189.999c68.667 46 142.667 69 222 69
c83.333 0 156.666 -21.333 219.999 -64c72.667 -48.667 109 -112.334 109 -191.001c0 -111.333 -64.667 -192.666 -194 -243.999c8 110 45 195.667 111 257c22.667 20.667 34 34.667 34 42c0 10.667 -3.33301 16 -10 16c-109.333 -32 -206 -104 -290 -216
c-36 -47.333 -62 -89.333 -78 -126h-249c-68.667 0 -128.334 -18.333 -179.001 -55c-57.333 -41.333 -86 -94.666 -86 -159.999c0 -42.667 16 -75.334 48 -98.001c28.667 -20 65 -30 109 -30c97.333 0 193 69.333 287 208l48.5 73.5l30.5 46.5c51.333 0 92 3 122 9
c0 -31.333 -12.333 -77 -37 -137l-25 -61l-19 -44c-3.33301 -7.33301 -15.666 -20.666 -36.999 -39.999c-20.667 -18.667 -34.334 -28 -41.001 -28c-32 14.667 -58.667 22 -80 22c-16.667 0 -25 -6.66699 -25 -20c0 -20 18.333 -30 55 -30c6.66699 0 13.834 0.5 21.501 1.5
l25.5 3.5l36 -32c-142 -84 -264 -126 -366 -126c-110 0 -201.333 32.333 -274 97c-76.667 66 -115 153.333 -115 262c0 102.667 31.667 186.667 95 252c62.667 64.667 145.667 97 249 97c17.333 0 36.666 -4.33301 57.999 -13v12c-22 8 -41.333 12 -58 12
c-108 0 -194 -33 -258 -99c-63.333 -66.667 -95 -153.667 -95 -261c0 -111.333 39 -201 117 -269c74.667 -66.667 168.334 -100 281.001 -100c94 0 196.667 30 308 90l41.5 23.5c11 6.33301 19.833 11.166 26.5 14.499l51.5 -35c15 -10 28.167 -18 39.5 -24
c58.667 -30 121 -44.667 187 -44c43.333 1.33301 83.666 16 120.999 44c41.333 32 62 68.333 62 109c0 33.333 -14.333 61 -43 83c-25.333 20.667 -55.666 31 -90.999 31c-36.667 0 -72.334 -8 -107.001 -24c-27.333 -12.667 -98 -53.667 -212 -123l-30 28
c64 33.333 119.667 83.666 167 150.999c24 35.333 40.667 65.666 50 90.999c10 27.333 17 61 21 101c140 54.667 210 142 210 262c0 82.667 -37.333 149.334 -112 200.001c10 18 22 27 36 27c0.666992 0 4.83398 -0.833008 12.501 -2.5l33.5 -7.5c30 -6 48 -9 54 -9
c15.333 0 28 7 38 21l36 52z" />
    <glyph glyph-name="Adieresis" unicode="&#xc4;" horiz-adv-x="1061" 
d="M1056 617c0.666992 0 1 -0.333008 1 -1c-3.33301 -5.33301 -16.333 -21.333 -39 -48c-76.667 -88.667 -121 -169.667 -133 -243c-32 -6 -69.333 -9 -112 -9c16.667 46 51 99 103 159l37 38c14 14 30.333 28.667 49 44c46.667 40 78 60 94 60zM1215 -14
c0 -38 -19 -70.999 -57 -98.999c-35.333 -26 -72.666 -39 -111.999 -39c-96.667 0 -183.334 32.333 -260.001 97c110 66.667 176.667 105.334 200 116.001c38 17.333 74.667 26 110 26c16 0 31.167 -2.5 45.5 -7.5s27 -11.833 38 -20.5s19.667 -19.334 26 -32.001
s9.5 -26.334 9.5 -41.001zM696 -7.99902c-14.667 -3.33301 -25.667 -5 -33 -5c-14.667 0 -22 4.33301 -22 13c0 4 3 6 9 6c8.66699 0 24 -4.66699 46 -14zM741 299.001c-62 -96 -107 -159.333 -135 -190c-73.333 -81.333 -143.333 -122 -210 -122
c-73.333 0 -110 38 -110 114c0 58 28.667 106.667 86 146c50.667 34.667 106.667 52 168 52h201zM1116 825.001c0 30 -12.3311 44.999 -36.998 44.999c-13.333 0 -25.333 -5.16699 -36 -15.5s-16.334 -22.166 -17.001 -35.499c-52 24.667 -110.333 37 -175 37
c-83.333 0 -160.666 -24.333 -231.999 -73c-80.667 -54.667 -121 -121.334 -121 -200.001c0 -98 38.667 -163 116 -195l3 13c-70 30.667 -105 91.334 -105 182.001c0 75.333 39 138.666 117 189.999c68.667 46 142.667 69 222 69c64 0 122.667 -13 176 -39
c2.66699 -20.667 15 -31 37 -31c3.33301 0 7.66602 0.666992 12.999 2c68.667 -48 103 -110.333 103 -187c0 -111.333 -64.667 -192.666 -194 -243.999c8 110 45 195.667 111 257c22.667 20.667 34 34.667 34 42c0 10.667 -3.33301 16 -10 16
c-109.333 -32 -206 -104 -290 -216c-36 -47.333 -62 -89.333 -78 -126h-249c-68.667 0 -128.334 -18.333 -179.001 -55c-57.333 -41.333 -86 -94.666 -86 -159.999c0 -42.667 16 -75.334 48 -98.001c28.667 -20 65 -30 109 -30c97.333 0 193 69.333 287 208l48.5 73.5
l30.5 46.5c51.333 0 92 3 122 9c0 -31.333 -12.333 -77 -37 -137l-25 -61l-19 -44c-3.33301 -7.33301 -15.666 -20.666 -36.999 -39.999c-20.667 -18.667 -34.334 -28 -41.001 -28c-32 14.667 -58.667 22 -80 22c-16.667 0 -25 -6.66699 -25 -20c0 -20 18.333 -30 55 -30
c6.66699 0 13.834 0.5 21.501 1.5l25.5 3.5l36 -32c-142 -84 -264 -126 -366 -126c-110 0 -201.333 32.333 -274 97c-76.667 66 -115 153.333 -115 262c0 102.667 31.667 186.667 95 252c62.667 64.667 145.667 97 249 97c17.333 0 36.666 -4.33301 57.999 -13v12
c-22 8 -41.333 12 -58 12c-108 0 -194 -33 -258 -99c-63.333 -66.667 -95 -153.667 -95 -261c0 -111.333 39 -201 117 -269c74.667 -66.667 168.334 -100 281.001 -100c94 0 196.667 30 308 90l41.5 23.5c11 6.33301 19.833 11.166 26.5 14.499l51.5 -35
c15 -10 28.167 -18 39.5 -24c58.667 -30 121 -44.667 187 -44c43.333 1.33301 83.666 16 120.999 44c41.333 32 62 68.333 62 109c0 33.333 -14.333 61 -43 83c-25.333 20.667 -55.666 31 -90.999 31c-36.667 0 -72.334 -8 -107.001 -24
c-27.333 -12.667 -98 -53.667 -212 -123l-30 28c64 33.333 119.667 83.666 167 150.999c24 35.333 40.667 65.666 50 90.999c10 27.333 17 61 21 101c140 54.667 210 142 210 262c0 78.667 -34.333 143.334 -103 194.001c16.667 10.667 25 25.334 25 44.001zM1250 825
c0 30 -12.667 45 -38 45c-13.333 0 -25.333 -5.5 -36 -16.5s-16 -23.167 -16 -36.5c0 -30 12.333 -45 37 -45c13.333 0 25.5 5.5 36.5 16.5s16.5 23.167 16.5 36.5z" />
    <glyph glyph-name="Aring" unicode="&#xc5;" horiz-adv-x="1061" 
d="M1056 617c0.666992 0 1 -0.333008 1 -1c-3.33301 -5.33301 -16.333 -21.333 -39 -48c-76.667 -88.667 -121 -169.667 -133 -243c-32 -6 -69.333 -9 -112 -9c16.667 46 51 99 103 159l37 38c14 14 30.333 28.667 49 44c46.667 40 78 60 94 60zM1215 -14
c0 -38 -19 -70.999 -57 -98.999c-35.333 -26 -72.666 -39 -111.999 -39c-96.667 0 -183.334 32.333 -260.001 97c110 66.667 176.667 105.334 200 116.001c38 17.333 74.667 26 110 26c16 0 31.167 -2.5 45.5 -7.5s27 -11.833 38 -20.5s19.667 -19.334 26 -32.001
s9.5 -26.334 9.5 -41.001zM696 -7.99902c-14.667 -3.33301 -25.667 -5 -33 -5c-14.667 0 -22 4.33301 -22 13c0 4 3 6 9 6c8.66699 0 24 -4.66699 46 -14zM741 299.001c-62 -96 -107 -159.333 -135 -190c-73.333 -81.333 -143.333 -122 -210 -122
c-73.333 0 -110 38 -110 114c0 58 28.667 106.667 86 146c50.667 34.667 106.667 52 168 52h201zM988 804.001c0 -20 7.16602 -36.9971 21.499 -50.9971s31.5 -21 51.5 -21c16.667 0 32.334 5.66699 47.001 17c48 -44 72 -98 72 -162
c0 -111.333 -64.667 -192.666 -194 -243.999c8 110 45 195.667 111 257c22.667 20.667 34 34.667 34 42c0 10.667 -3.33301 16 -10 16c-109.333 -32 -206 -104 -290 -216c-36 -47.333 -62 -89.333 -78 -126h-249c-68.667 0 -128.334 -18.333 -179.001 -55
c-57.333 -41.333 -86 -94.666 -86 -159.999c0 -42.667 16 -75.334 48 -98.001c28.667 -20 65 -30 109 -30c97.333 0 193 69.333 287 208l48.5 73.5l30.5 46.5c51.333 0 92 3 122 9c0 -31.333 -12.333 -77 -37 -137l-25 -61l-19 -44
c-3.33301 -7.33301 -15.666 -20.666 -36.999 -39.999c-20.667 -18.667 -34.334 -28 -41.001 -28c-32 14.667 -58.667 22 -80 22c-16.667 0 -25 -6.66699 -25 -20c0 -20 18.333 -30 55 -30c6.66699 0 13.834 0.5 21.501 1.5l25.5 3.5l36 -32c-142 -84 -264 -126 -366 -126
c-110 0 -201.333 32.333 -274 97c-76.667 66 -115 153.333 -115 262c0 102.667 31.667 186.667 95 252c62.667 64.667 145.667 97 249 97c17.333 0 36.666 -4.33301 57.999 -13v12c-22 8 -41.333 12 -58 12c-108 0 -194 -33 -258 -99c-63.333 -66.667 -95 -153.667 -95 -261
c0 -111.333 39 -201 117 -269c74.667 -66.667 168.334 -100 281.001 -100c94 0 196.667 30 308 90l41.5 23.5c11 6.33301 19.833 11.166 26.5 14.499l51.5 -35c15 -10 28.167 -18 39.5 -24c58.667 -30 121 -44.667 187 -44c43.333 1.33301 83.666 16 120.999 44
c41.333 32 62 68.333 62 109c0 33.333 -14.333 61 -43 83c-25.333 20.667 -55.666 31 -90.999 31c-36.667 0 -72.334 -8 -107.001 -24c-27.333 -12.667 -98 -53.667 -212 -123l-30 28c64 33.333 119.667 83.666 167 150.999c24 35.333 40.667 65.666 50 90.999
c10 27.333 17 61 21 101c140 54.667 210 142 210 262c0 67.333 -25.667 124.666 -77 171.999c10.667 12.667 16 27.667 16 45c0 20.667 -7 38 -21 52s-31 21 -51 21c-32.667 0 -55 -14.667 -67 -44c-46 15.333 -93.667 23 -143 23c-83.333 0 -160.666 -24.333 -231.999 -73
c-80.667 -54.667 -121 -121.334 -121 -200.001c0 -98 38.667 -163 116 -195l3 13c-70 30.667 -105 91.334 -105 182.001c0 75.333 39 138.666 117 189.999c68.667 46 142.667 69 222 69c48 0 94 -7.66699 138 -23c-0.666992 -3.33301 -1 -8.33301 -1 -15zM1094 779.004
c-22 16.667 -45.999 30.667 -71.999 42c7.33301 17.333 20.333 26 39 26c11.333 0 21.166 -4.16699 29.499 -12.5s12.5 -18.5 12.5 -30.5c0 -10 -3 -18.333 -9 -25zM1018 804.004l0.000976562 2.99902c12 -5.33301 23.5 -11.166 34.5 -17.499s21.5 -13.166 31.5 -20.499
c-6.66699 -4.66699 -14.334 -7 -23.001 -7c-12 0 -22.167 4.16699 -30.5 12.5s-12.5 18.166 -12.5 29.499z" />
    <glyph glyph-name="Ccedilla" unicode="&#xc7;" horiz-adv-x="933" 
d="M1153 -252c0 54 -34.6631 95.666 -103.996 124.999c-52 22.667 -109.667 34 -173 34c-60.667 0 -125 -13.333 -193 -40l-113 -44.5l-72 -29.5c-66 -26.667 -124 -40 -174 -40c-93.333 0 -169 33 -227 99c-55.333 63.333 -83 141.666 -83 234.999
c0 118 43.667 220 131 306c88 86 191 129 309 129c13.333 0 28.666 -0.333008 45.999 -1s36.666 -1.66699 57.999 -3c53.333 -3.33301 80 -7.66602 80 -12.999c-20.667 -11.333 -41.334 -26 -62.001 -44s-41.667 -39 -63 -63c-69.333 -78.667 -104 -157 -104 -235
c0 -85.333 31.667 -143.666 95 -174.999c27.333 -37.333 59.666 -56 96.999 -56c70 0 140.667 47.667 212 143l-8 9c-73.333 -92 -141.333 -138 -204 -138c-25.333 0 -46.333 10.333 -63 31c4 -0.666992 7.5 -1.16699 10.5 -1.5s5.83301 -0.5 8.5 -0.5
c65.333 0 127.666 31.667 186.999 95c58.667 62.667 88 127.667 88 195c0 61.333 -26.333 92 -79 92c-76 0 -141.333 -38.333 -196 -115c-46.667 -64.667 -70 -128 -70 -190c0 -9.33301 0.333008 -15 1 -17c-15.333 15.333 -22.666 35.333 -21.999 60
c0.666992 36 12.667 78 36 126c26.667 55.333 57.667 102.666 93 141.999c46.667 50.667 89.667 92.667 129 126c46 -6.66699 84.833 -11.5 116.5 -14.5s56.834 -4.5 75.501 -4.5c38 0 71.667 6 101 18c40 16.667 60 41 60 73c0 38.667 -33.667 58 -101 58
c-94.667 0 -203 -34 -325 -102c-4.66699 0.666992 -12.334 1.5 -23.001 2.5s-24.667 2.5 -42 4.5c-51.333 6 -95.333 9 -132 9c-122.667 0 -228.667 -43.667 -318 -131c-88.667 -86.667 -133 -191.667 -133 -315c0 -99.333 28.333 -180.666 85 -243.999
c59.333 -67.333 138 -101 236 -101c56 0 116 13.333 180 40l110.5 44.5l69.5 29.5c66 26.667 130 40 192 40c55.333 0 109.666 -11.333 162.999 -34c68 -29.333 102 -67.333 102 -114c0 -13.333 -5 -29.333 -15 -48c0.666992 -0.666992 1.33398 -1.5 2.00098 -2.5
s1.66699 -2.16699 3 -3.5c14.667 20.667 22 38.667 22 54zM1066 560.999c0 -53.333 -50 -80 -150 -80c-33.333 0 -90.333 6 -171 18c96.667 72.667 173.667 109 231 109c60 0 90 -15.667 90 -47zM798.004 271.999c0 -54.667 -26.333 -114.333 -79 -179
c-55.333 -66 -109.666 -99 -162.999 -99c-14.667 0 -28.334 4 -41.001 12c-7.33301 20.667 -11 38 -11 52c0 57.333 23.333 117.333 70 180c50 67.333 102.667 101 158 101c44 0 66 -22.333 66 -67zM333.004 -201c37.333 9.33301 72 24.334 104 45.001
c42 26.667 63 55.667 63 87c0 18.667 -9.66699 28 -29 28c-12 0 -23.667 -4.33301 -35 -13s-17 -18.667 -17 -30c0 -4 1.66699 -10.167 5 -18.5s5 -12.833 5 -13.5c0 -14.667 -13.333 -30.334 -40 -47.001c-20 -11.333 -39.667 -20.333 -59 -27z" />
    <glyph glyph-name="Egrave" unicode="&#xc8;" horiz-adv-x="973" 
d="M900 543c0 34 -14.001 63.002 -42.001 87.002c-27.333 22 -58 33 -92 33c-104.667 0 -167.667 -51.667 -189 -155c-85.333 10 -147.333 15 -186 15c-90 0 -172 -15.667 -246 -47c-96.667 -40.667 -145 -101.334 -145 -182.001c0 -20.667 5.33301 -41.334 16 -62.001l12 8
c-10 20 -15 38.333 -15 55c0 75.333 47.333 132.333 142 171c72 29.333 150.667 44 236 44c54.667 0 116.667 -6 186 -18c0.666992 -0.666992 2.66699 -6 6 -16l4 -13c2.66699 -9.33301 6.33398 -18.666 11.001 -27.999s10.334 -19 17.001 -29
c-3.33301 0.666992 -7.33301 1 -12 1h-15c-66 0 -119.333 -20 -160 -60c-40.667 -38.667 -61 -91 -61 -157c0 -72.667 25.333 -128.334 76 -167.001c45.333 -35.333 105.333 -53 180 -53c65.333 0 121.666 23 168.999 69c48 46.667 72 102.667 72 168
c0 32.667 -8.66699 60.334 -26 83.001c-18.667 24.667 -44 37 -76 37c-44 0 -84.667 -17.667 -122 -53c-36.667 -34.667 -55 -74.334 -55 -119.001c0 -12.667 2 -24.667 6 -36s9.83301 -21.333 17.5 -30s16.667 -15.5 27 -20.5s21.5 -7.5 33.5 -7.5
c45.333 0 78.666 23.667 99.999 71c11.333 26.667 17 62.667 17 108h-12c0 -43.333 -7 -79.333 -21 -108c-18 -38 -46 -57 -84 -57c-20.667 0 -37.5 8 -50.5 24s-19.5 34.667 -19.5 56c0 39.333 17.333 75.333 52 108c35.333 33.333 72.333 50 111 50
c28.667 0 51 -11 67 -33c14 -19.333 21 -43.666 21 -72.999c0 -60 -22.667 -111.667 -68 -155c-44.667 -42.667 -97.667 -64 -159 -64c-48 0 -87.667 20.667 -119 62c-28 38 -42 82.333 -42 133c0 45.333 15.667 87.333 47 126c30.667 38.667 69 58 115 58
c16.667 0 31.667 -3.66699 45 -11c12 -15.333 25.333 -23 40 -23c8 0.666992 12 4.66699 12 12c0 6.66699 -5.66699 13 -17 19c-14 7.33301 -21.333 12 -22 14c-7.33301 10 -12.666 26.333 -15.999 49c-1.33301 15.333 -2.33301 26 -3 32c42.667 -15.333 77 -23 103 -23
c33.333 0 63.333 9.33301 90 28c29.333 21.333 44 47.666 44 78.999zM887.999 543.002c0 -32 -12.998 -56.334 -38.998 -73.001c-22.667 -14.667 -50.334 -22 -83.001 -22c-36 0 -70 10 -102 30c-2.66699 4.66699 -4 11.334 -4 20.001c0 32 14.667 61.667 44 89
s60.666 41 93.999 41c24 0 45 -8.16699 63 -24.5s27 -36.5 27 -60.5zM775.001 713.001l-64 134c-12 15.333 -25.333 23 -40 23c-12 0 -22.167 -4 -30.5 -12s-12.5 -18 -12.5 -30c0 -14 7 -27.333 21 -40l100 -75h26z" />
    <glyph glyph-name="Eacute" unicode="&#xc9;" horiz-adv-x="973" 
d="M900 543c0 34 -14.001 63.002 -42.001 87.002c-27.333 22 -58 33 -92 33c-104.667 0 -167.667 -51.667 -189 -155c-85.333 10 -147.333 15 -186 15c-90 0 -172 -15.667 -246 -47c-96.667 -40.667 -145 -101.334 -145 -182.001c0 -20.667 5.33301 -41.334 16 -62.001l12 8
c-10 20 -15 38.333 -15 55c0 75.333 47.333 132.333 142 171c72 29.333 150.667 44 236 44c54.667 0 116.667 -6 186 -18c0.666992 -0.666992 2.66699 -6 6 -16l4 -13c2.66699 -9.33301 6.33398 -18.666 11.001 -27.999s10.334 -19 17.001 -29
c-3.33301 0.666992 -7.33301 1 -12 1h-15c-66 0 -119.333 -20 -160 -60c-40.667 -38.667 -61 -91 -61 -157c0 -72.667 25.333 -128.334 76 -167.001c45.333 -35.333 105.333 -53 180 -53c65.333 0 121.666 23 168.999 69c48 46.667 72 102.667 72 168
c0 32.667 -8.66699 60.334 -26 83.001c-18.667 24.667 -44 37 -76 37c-44 0 -84.667 -17.667 -122 -53c-36.667 -34.667 -55 -74.334 -55 -119.001c0 -12.667 2 -24.667 6 -36s9.83301 -21.333 17.5 -30s16.667 -15.5 27 -20.5s21.5 -7.5 33.5 -7.5
c45.333 0 78.666 23.667 99.999 71c11.333 26.667 17 62.667 17 108h-12c0 -43.333 -7 -79.333 -21 -108c-18 -38 -46 -57 -84 -57c-20.667 0 -37.5 8 -50.5 24s-19.5 34.667 -19.5 56c0 39.333 17.333 75.333 52 108c35.333 33.333 72.333 50 111 50
c28.667 0 51 -11 67 -33c14 -19.333 21 -43.666 21 -72.999c0 -60 -22.667 -111.667 -68 -155c-44.667 -42.667 -97.667 -64 -159 -64c-48 0 -87.667 20.667 -119 62c-28 38 -42 82.333 -42 133c0 45.333 15.667 87.333 47 126c30.667 38.667 69 58 115 58
c16.667 0 31.667 -3.66699 45 -11c12 -15.333 25.333 -23 40 -23c8 0.666992 12 4.66699 12 12c0 6.66699 -5.66699 13 -17 19c-14 7.33301 -21.333 12 -22 14c-7.33301 10 -12.666 26.333 -15.999 49c-1.33301 15.333 -2.33301 26 -3 32c42.667 -15.333 77 -23 103 -23
c33.333 0 63.333 9.33301 90 28c29.333 21.333 44 47.666 44 78.999zM887.999 543.002c0 -32 -12.998 -56.334 -38.998 -73.001c-22.667 -14.667 -50.334 -22 -83.001 -22c-36 0 -70 10 -102 30c-2.66699 4.66699 -4 11.334 -4 20.001c0 32 14.667 61.667 44 89
s60.666 41 93.999 41c24 0 45 -8.16699 63 -24.5s27 -36.5 27 -60.5zM970.001 832.001c0 25.333 -14.668 38 -44.001 38c-13.333 0 -26.666 -7.66699 -39.999 -23l-118 -134h30l151 79c14 12.667 21 26 21 40z" />
    <glyph glyph-name="Ecircumflex" unicode="&#xca;" horiz-adv-x="973" 
d="M900 543c0 34 -14.001 63.002 -42.001 87.002c-27.333 22 -58 33 -92 33c-104.667 0 -167.667 -51.667 -189 -155c-85.333 10 -147.333 15 -186 15c-90 0 -172 -15.667 -246 -47c-96.667 -40.667 -145 -101.334 -145 -182.001c0 -20.667 5.33301 -41.334 16 -62.001l12 8
c-10 20 -15 38.333 -15 55c0 75.333 47.333 132.333 142 171c72 29.333 150.667 44 236 44c54.667 0 116.667 -6 186 -18c0.666992 -0.666992 2.66699 -6 6 -16l4 -13c2.66699 -9.33301 6.33398 -18.666 11.001 -27.999s10.334 -19 17.001 -29
c-3.33301 0.666992 -7.33301 1 -12 1h-15c-66 0 -119.333 -20 -160 -60c-40.667 -38.667 -61 -91 -61 -157c0 -72.667 25.333 -128.334 76 -167.001c45.333 -35.333 105.333 -53 180 -53c65.333 0 121.666 23 168.999 69c48 46.667 72 102.667 72 168
c0 32.667 -8.66699 60.334 -26 83.001c-18.667 24.667 -44 37 -76 37c-44 0 -84.667 -17.667 -122 -53c-36.667 -34.667 -55 -74.334 -55 -119.001c0 -12.667 2 -24.667 6 -36s9.83301 -21.333 17.5 -30s16.667 -15.5 27 -20.5s21.5 -7.5 33.5 -7.5
c45.333 0 78.666 23.667 99.999 71c11.333 26.667 17 62.667 17 108h-12c0 -43.333 -7 -79.333 -21 -108c-18 -38 -46 -57 -84 -57c-20.667 0 -37.5 8 -50.5 24s-19.5 34.667 -19.5 56c0 39.333 17.333 75.333 52 108c35.333 33.333 72.333 50 111 50
c28.667 0 51 -11 67 -33c14 -19.333 21 -43.666 21 -72.999c0 -60 -22.667 -111.667 -68 -155c-44.667 -42.667 -97.667 -64 -159 -64c-48 0 -87.667 20.667 -119 62c-28 38 -42 82.333 -42 133c0 45.333 15.667 87.333 47 126c30.667 38.667 69 58 115 58
c16.667 0 31.667 -3.66699 45 -11c12 -15.333 25.333 -23 40 -23c8 0.666992 12 4.66699 12 12c0 6.66699 -5.66699 13 -17 19c-14 7.33301 -21.333 12 -22 14c-7.33301 10 -12.666 26.333 -15.999 49c-1.33301 15.333 -2.33301 26 -3 32c42.667 -15.333 77 -23 103 -23
c33.333 0 63.333 9.33301 90 28c29.333 21.333 44 47.666 44 78.999zM887.999 543.002c0 -32 -12.998 -56.334 -38.998 -73.001c-22.667 -14.667 -50.334 -22 -83.001 -22c-36 0 -70 10 -102 30c-2.66699 4.66699 -4 11.334 -4 20.001c0 32 14.667 61.667 44 89
s60.666 41 93.999 41c24 0 45 -8.16699 63 -24.5s27 -36.5 27 -60.5zM868.001 774.001l24 -55h19l-8 151l-215 -151h38z" />
    <glyph glyph-name="Edieresis" unicode="&#xcb;" horiz-adv-x="973" 
d="M900 543c0 34 -14.001 63.002 -42.001 87.002c-27.333 22 -58 33 -92 33c-104.667 0 -167.667 -51.667 -189 -155c-85.333 10 -147.333 15 -186 15c-90 0 -172 -15.667 -246 -47c-96.667 -40.667 -145 -101.334 -145 -182.001c0 -20.667 5.33301 -41.334 16 -62.001l12 8
c-10 20 -15 38.333 -15 55c0 75.333 47.333 132.333 142 171c72 29.333 150.667 44 236 44c54.667 0 116.667 -6 186 -18c0.666992 -0.666992 2.66699 -6 6 -16l4 -13c2.66699 -9.33301 6.33398 -18.666 11.001 -27.999s10.334 -19 17.001 -29
c-3.33301 0.666992 -7.33301 1 -12 1h-15c-66 0 -119.333 -20 -160 -60c-40.667 -38.667 -61 -91 -61 -157c0 -72.667 25.333 -128.334 76 -167.001c45.333 -35.333 105.333 -53 180 -53c65.333 0 121.666 23 168.999 69c48 46.667 72 102.667 72 168
c0 32.667 -8.66699 60.334 -26 83.001c-18.667 24.667 -44 37 -76 37c-44 0 -84.667 -17.667 -122 -53c-36.667 -34.667 -55 -74.334 -55 -119.001c0 -12.667 2 -24.667 6 -36s9.83301 -21.333 17.5 -30s16.667 -15.5 27 -20.5s21.5 -7.5 33.5 -7.5
c45.333 0 78.666 23.667 99.999 71c11.333 26.667 17 62.667 17 108h-12c0 -43.333 -7 -79.333 -21 -108c-18 -38 -46 -57 -84 -57c-20.667 0 -37.5 8 -50.5 24s-19.5 34.667 -19.5 56c0 39.333 17.333 75.333 52 108c35.333 33.333 72.333 50 111 50
c28.667 0 51 -11 67 -33c14 -19.333 21 -43.666 21 -72.999c0 -60 -22.667 -111.667 -68 -155c-44.667 -42.667 -97.667 -64 -159 -64c-48 0 -87.667 20.667 -119 62c-28 38 -42 82.333 -42 133c0 45.333 15.667 87.333 47 126c30.667 38.667 69 58 115 58
c16.667 0 31.667 -3.66699 45 -11c12 -15.333 25.333 -23 40 -23c8 0.666992 12 4.66699 12 12c0 6.66699 -5.66699 13 -17 19c-14 7.33301 -21.333 12 -22 14c-7.33301 10 -12.666 26.333 -15.999 49c-1.33301 15.333 -2.33301 26 -3 32c42.667 -15.333 77 -23 103 -23
c33.333 0 63.333 9.33301 90 28c29.333 21.333 44 47.666 44 78.999zM887.999 543.002c0 -32 -12.998 -56.334 -38.998 -73.001c-22.667 -14.667 -50.334 -22 -83.001 -22c-36 0 -70 10 -102 30c-2.66699 4.66699 -4 11.334 -4 20.001c0 32 14.667 61.667 44 89
s60.666 41 93.999 41c24 0 45 -8.16699 63 -24.5s27 -36.5 27 -60.5zM918.001 825.001c0 30 -12.667 45 -38 45c-13.333 0 -25.333 -5.5 -36 -16.5s-16 -23.167 -16 -36.5c0 -30 12.333 -45 37 -45c13.333 0 25.5 5.5 36.5 16.5s16.5 23.167 16.5 36.5zM784.001 825.001
c0 30 -12.333 45 -37 45c-13.333 0 -25.5 -5.5 -36.5 -16.5s-16.5 -23.167 -16.5 -36.5c0 -30 12.667 -45 38 -45c13.333 0 25.333 5.5 36 16.5s16 23.167 16 36.5z" />
    <glyph glyph-name="Igrave" unicode="&#xcc;" horiz-adv-x="789" 
d="M1032 609l-1.99902 10.002c-3.33301 8 -15.666 15 -36.999 21c-4.66699 1.33301 -10.667 2.83301 -18 4.5s-16.333 3.5 -27 5.5c-41.333 8 -80.666 12 -117.999 12c-124.667 0 -221.667 -31.667 -291 -95c-33.333 -30.667 -56.666 -65.667 -69.999 -105
c-48 36 -101 54 -159 54c-102 0 -181 -37 -237 -111c-23.333 -32 -41 -69 -53 -111c-2.66699 16.667 -4.66699 31 -6 43s-2 21.667 -2 29c0 80 28.333 150.333 85 211c57.333 61.333 125.666 92 204.999 92c34.667 0 68 -7.33301 100 -22l2 9c-29.333 14.667 -63 22 -101 22
c-82.667 0 -153.334 -31.333 -212.001 -94c-58.667 -61.333 -88 -134 -88 -218c0 -40.667 3 -76.334 9 -107.001c0 -97.333 33.667 -172 101 -224c53.333 -40.667 116.666 -61 189.999 -61c94 0 169.833 20.833 227.5 62.5s101.5 107.167 131.5 196.5
c47.333 9.33301 86.666 31 117.999 65c14.667 15.333 29 39.666 43 72.999c10.667 24 16 40 16 48l-9 4c-18 -56 -37 -94.333 -57 -115c-9.33301 -9.33301 -26.333 -21.333 -51 -36c-27.333 -16 -46 -24 -56 -24c0 16 7.33301 43.667 22 83c51.333 142 126 228.667 224 260
c32.667 10.667 72.667 16.667 120 18zM1014 615.002c-62 -2.66699 -107.666 -7.66699 -136.999 -15c-98 -23.333 -178.667 -96 -242 -218c-6 -11.333 -13.667 -28.5 -23 -51.5s-20.333 -51.833 -33 -86.5c-22 10.667 -38.333 19.667 -49 27
c-2.66699 66 -12.334 115.333 -29.001 148c-3.33301 5.33301 -6.66602 11 -9.99902 17s-7.33301 11.667 -12 17c21.333 69.333 68 121.333 140 156c60.667 30 131 45 211 45c27.333 0 59.666 -3 96.999 -9c50.667 -8 79.667 -18 87 -30zM519.002 288.002
c-18.667 29.333 -30 53.332 -34 71.999c-4.66699 36 -7.66699 62.667 -9 80c20 -29.333 32 -57.333 36 -84l4 -34c1.33301 -11.333 2.33301 -22.666 3 -33.999zM519.002 266.001c-20.667 -52 -40 -89.667 -58 -113c-47.333 -60 -113 -90 -197 -90
c-110.667 0 -190.667 67.667 -240 203c38 160.667 133.333 241 286 241c60 0 111.667 -18.667 155 -56c1.33301 -40 4.33301 -71.333 9 -94c7.33301 -32 22.333 -62.333 45 -91zM575.002 232.001c-20.667 -52.667 -57.0029 -105.335 -109.003 -158.002
c-59.333 -59.333 -113.666 -89 -162.999 -89c-79.333 0 -144.666 22.667 -195.999 68c-50 44.667 -78 107 -84 187c25.333 -50 46 -85 62 -105c46 -55.333 105.667 -82.333 179 -81c130.667 0.666992 218.667 68.667 264 204c11.333 -7.33301 20.833 -13.166 28.5 -17.499
s13.834 -7.16602 18.501 -8.49902zM828.999 713l-64 134c-12 15.333 -25.333 23 -40 23c-12 0 -22.167 -4 -30.5 -12s-12.5 -18 -12.5 -30c0 -14 7 -27.333 21 -40l100 -75h26z" />
    <glyph glyph-name="Iacute" unicode="&#xcd;" horiz-adv-x="789" 
d="M1032 609l-1.99902 10.002c-3.33301 8 -15.666 15 -36.999 21c-4.66699 1.33301 -10.667 2.83301 -18 4.5s-16.333 3.5 -27 5.5c-41.333 8 -80.666 12 -117.999 12c-124.667 0 -221.667 -31.667 -291 -95c-33.333 -30.667 -56.666 -65.667 -69.999 -105
c-48 36 -101 54 -159 54c-102 0 -181 -37 -237 -111c-23.333 -32 -41 -69 -53 -111c-2.66699 16.667 -4.66699 31 -6 43s-2 21.667 -2 29c0 80 28.333 150.333 85 211c57.333 61.333 125.666 92 204.999 92c34.667 0 68 -7.33301 100 -22l2 9c-29.333 14.667 -63 22 -101 22
c-82.667 0 -153.334 -31.333 -212.001 -94c-58.667 -61.333 -88 -134 -88 -218c0 -40.667 3 -76.334 9 -107.001c0 -97.333 33.667 -172 101 -224c53.333 -40.667 116.666 -61 189.999 -61c94 0 169.833 20.833 227.5 62.5s101.5 107.167 131.5 196.5
c47.333 9.33301 86.666 31 117.999 65c14.667 15.333 29 39.666 43 72.999c10.667 24 16 40 16 48l-9 4c-18 -56 -37 -94.333 -57 -115c-9.33301 -9.33301 -26.333 -21.333 -51 -36c-27.333 -16 -46 -24 -56 -24c0 16 7.33301 43.667 22 83c51.333 142 126 228.667 224 260
c32.667 10.667 72.667 16.667 120 18zM1014 615.002c-62 -2.66699 -107.666 -7.66699 -136.999 -15c-98 -23.333 -178.667 -96 -242 -218c-6 -11.333 -13.667 -28.5 -23 -51.5s-20.333 -51.833 -33 -86.5c-22 10.667 -38.333 19.667 -49 27
c-2.66699 66 -12.334 115.333 -29.001 148c-3.33301 5.33301 -6.66602 11 -9.99902 17s-7.33301 11.667 -12 17c21.333 69.333 68 121.333 140 156c60.667 30 131 45 211 45c27.333 0 59.666 -3 96.999 -9c50.667 -8 79.667 -18 87 -30zM519.002 288.002
c-18.667 29.333 -30 53.332 -34 71.999c-4.66699 36 -7.66699 62.667 -9 80c20 -29.333 32 -57.333 36 -84l4 -34c1.33301 -11.333 2.33301 -22.666 3 -33.999zM519.002 266.001c-20.667 -52 -40 -89.667 -58 -113c-47.333 -60 -113 -90 -197 -90
c-110.667 0 -190.667 67.667 -240 203c38 160.667 133.333 241 286 241c60 0 111.667 -18.667 155 -56c1.33301 -40 4.33301 -71.333 9 -94c7.33301 -32 22.333 -62.333 45 -91zM575.002 232.001c-20.667 -52.667 -57.0029 -105.335 -109.003 -158.002
c-59.333 -59.333 -113.666 -89 -162.999 -89c-79.333 0 -144.666 22.667 -195.999 68c-50 44.667 -78 107 -84 187c25.333 -50 46 -85 62 -105c46 -55.333 105.667 -82.333 179 -81c130.667 0.666992 218.667 68.667 264 204c11.333 -7.33301 20.833 -13.166 28.5 -17.499
s13.834 -7.16602 18.501 -8.49902zM1023 832c0 25.333 -14.668 38 -44.001 38c-13.333 0 -26.666 -7.66699 -39.999 -23l-118 -134h30l151 79c14 12.667 21 26 21 40z" />
    <glyph glyph-name="Icircumflex" unicode="&#xce;" horiz-adv-x="789" 
d="M1032 609l-1.99902 10.002c-3.33301 8 -15.666 15 -36.999 21c-4.66699 1.33301 -10.667 2.83301 -18 4.5s-16.333 3.5 -27 5.5c-41.333 8 -80.666 12 -117.999 12c-124.667 0 -221.667 -31.667 -291 -95c-33.333 -30.667 -56.666 -65.667 -69.999 -105
c-48 36 -101 54 -159 54c-102 0 -181 -37 -237 -111c-23.333 -32 -41 -69 -53 -111c-2.66699 16.667 -4.66699 31 -6 43s-2 21.667 -2 29c0 80 28.333 150.333 85 211c57.333 61.333 125.666 92 204.999 92c34.667 0 68 -7.33301 100 -22l2 9c-29.333 14.667 -63 22 -101 22
c-82.667 0 -153.334 -31.333 -212.001 -94c-58.667 -61.333 -88 -134 -88 -218c0 -40.667 3 -76.334 9 -107.001c0 -97.333 33.667 -172 101 -224c53.333 -40.667 116.666 -61 189.999 -61c94 0 169.833 20.833 227.5 62.5s101.5 107.167 131.5 196.5
c47.333 9.33301 86.666 31 117.999 65c14.667 15.333 29 39.666 43 72.999c10.667 24 16 40 16 48l-9 4c-18 -56 -37 -94.333 -57 -115c-9.33301 -9.33301 -26.333 -21.333 -51 -36c-27.333 -16 -46 -24 -56 -24c0 16 7.33301 43.667 22 83c51.333 142 126 228.667 224 260
c32.667 10.667 72.667 16.667 120 18zM1014 615.002c-62 -2.66699 -107.666 -7.66699 -136.999 -15c-98 -23.333 -178.667 -96 -242 -218c-6 -11.333 -13.667 -28.5 -23 -51.5s-20.333 -51.833 -33 -86.5c-22 10.667 -38.333 19.667 -49 27
c-2.66699 66 -12.334 115.333 -29.001 148c-3.33301 5.33301 -6.66602 11 -9.99902 17s-7.33301 11.667 -12 17c21.333 69.333 68 121.333 140 156c60.667 30 131 45 211 45c27.333 0 59.666 -3 96.999 -9c50.667 -8 79.667 -18 87 -30zM519.002 288.002
c-18.667 29.333 -30 53.332 -34 71.999c-4.66699 36 -7.66699 62.667 -9 80c20 -29.333 32 -57.333 36 -84l4 -34c1.33301 -11.333 2.33301 -22.666 3 -33.999zM519.002 266.001c-20.667 -52 -40 -89.667 -58 -113c-47.333 -60 -113 -90 -197 -90
c-110.667 0 -190.667 67.667 -240 203c38 160.667 133.333 241 286 241c60 0 111.667 -18.667 155 -56c1.33301 -40 4.33301 -71.333 9 -94c7.33301 -32 22.333 -62.333 45 -91zM575.002 232.001c-20.667 -52.667 -57.0029 -105.335 -109.003 -158.002
c-59.333 -59.333 -113.666 -89 -162.999 -89c-79.333 0 -144.666 22.667 -195.999 68c-50 44.667 -78 107 -84 187c25.333 -50 46 -85 62 -105c46 -55.333 105.667 -82.333 179 -81c130.667 0.666992 218.667 68.667 264 204c11.333 -7.33301 20.833 -13.166 28.5 -17.499
s13.834 -7.16602 18.501 -8.49902zM880.999 774l24 -55h19l-8 151l-215 -151h38z" />
    <glyph glyph-name="Idieresis" unicode="&#xcf;" horiz-adv-x="789" 
d="M1032 609l-1.99902 10.002c-3.33301 8 -15.666 15 -36.999 21c-4.66699 1.33301 -10.667 2.83301 -18 4.5s-16.333 3.5 -27 5.5c-41.333 8 -80.666 12 -117.999 12c-124.667 0 -221.667 -31.667 -291 -95c-33.333 -30.667 -56.666 -65.667 -69.999 -105
c-48 36 -101 54 -159 54c-102 0 -181 -37 -237 -111c-23.333 -32 -41 -69 -53 -111c-2.66699 16.667 -4.66699 31 -6 43s-2 21.667 -2 29c0 80 28.333 150.333 85 211c57.333 61.333 125.666 92 204.999 92c34.667 0 68 -7.33301 100 -22l2 9c-29.333 14.667 -63 22 -101 22
c-82.667 0 -153.334 -31.333 -212.001 -94c-58.667 -61.333 -88 -134 -88 -218c0 -40.667 3 -76.334 9 -107.001c0 -97.333 33.667 -172 101 -224c53.333 -40.667 116.666 -61 189.999 -61c94 0 169.833 20.833 227.5 62.5s101.5 107.167 131.5 196.5
c47.333 9.33301 86.666 31 117.999 65c14.667 15.333 29 39.666 43 72.999c10.667 24 16 40 16 48l-9 4c-18 -56 -37 -94.333 -57 -115c-9.33301 -9.33301 -26.333 -21.333 -51 -36c-27.333 -16 -46 -24 -56 -24c0 16 7.33301 43.667 22 83c51.333 142 126 228.667 224 260
c32.667 10.667 72.667 16.667 120 18zM1014 615.002c-62 -2.66699 -107.666 -7.66699 -136.999 -15c-98 -23.333 -178.667 -96 -242 -218c-6 -11.333 -13.667 -28.5 -23 -51.5s-20.333 -51.833 -33 -86.5c-22 10.667 -38.333 19.667 -49 27
c-2.66699 66 -12.334 115.333 -29.001 148c-3.33301 5.33301 -6.66602 11 -9.99902 17s-7.33301 11.667 -12 17c21.333 69.333 68 121.333 140 156c60.667 30 131 45 211 45c27.333 0 59.666 -3 96.999 -9c50.667 -8 79.667 -18 87 -30zM519.002 288.002
c-18.667 29.333 -30 53.332 -34 71.999c-4.66699 36 -7.66699 62.667 -9 80c20 -29.333 32 -57.333 36 -84l4 -34c1.33301 -11.333 2.33301 -22.666 3 -33.999zM519.002 266.001c-20.667 -52 -40 -89.667 -58 -113c-47.333 -60 -113 -90 -197 -90
c-110.667 0 -190.667 67.667 -240 203c38 160.667 133.333 241 286 241c60 0 111.667 -18.667 155 -56c1.33301 -40 4.33301 -71.333 9 -94c7.33301 -32 22.333 -62.333 45 -91zM575.002 232.001c-20.667 -52.667 -57.0029 -105.335 -109.003 -158.002
c-59.333 -59.333 -113.666 -89 -162.999 -89c-79.333 0 -144.666 22.667 -195.999 68c-50 44.667 -78 107 -84 187c25.333 -50 46 -85 62 -105c46 -55.333 105.667 -82.333 179 -81c130.667 0.666992 218.667 68.667 264 204c11.333 -7.33301 20.833 -13.166 28.5 -17.499
s13.834 -7.16602 18.501 -8.49902zM937.999 825c0 30 -12.667 45 -38 45c-13.333 0 -25.333 -5.5 -36 -16.5s-16 -23.167 -16 -36.5c0 -30 12.333 -45 37 -45c13.333 0 25.5 5.5 36.5 16.5s16.5 23.167 16.5 36.5zM803.999 825c0 30 -12.333 45 -37 45
c-13.333 0 -25.5 -5.5 -36.5 -16.5s-16.5 -23.167 -16.5 -36.5c0 -30 12.667 -45 38 -45c13.333 0 25.333 5.5 36 16.5s16 23.167 16 36.5z" />
    <glyph glyph-name="Ntilde" unicode="&#xd1;" horiz-adv-x="1041" 
d="M1355 684c0 29.333 -22.001 44.001 -66.001 44.001c-45.333 0 -92.333 -27 -141 -81c-15.333 7.33301 -36.666 15.666 -63.999 24.999l-101 33c-104 32 -180.667 48 -230 48c-92 0 -158.667 -9.33301 -200 -28c-42 -18.667 -78.333 -51 -109 -97
c-31.333 -46 -48.333 -92.333 -51 -139c-12.667 1.33301 -24.667 2.5 -36 3.5s-21.666 1.5 -30.999 1.5c-90 0 -167 -32 -231 -96c-63.333 -64.667 -95 -141.667 -95 -231c0 -80.667 27.667 -143.667 83 -189c51.333 -43.333 118.333 -65 201 -65c140 0 259 94 357 282
l159 315c-9.33301 -63.333 -14.333 -113.333 -15 -150c-0.666992 -13.333 -0.333984 -29.5 0.999023 -48.5s3.33301 -40.833 6 -65.5c2.66699 -26 4.66699 -48.5 6 -67.5s2 -34.5 2 -46.5c0 -20 -6.66699 -48 -20 -84c-4.66699 -11.333 -8.5 -21 -11.5 -29
s-5.5 -14.333 -7.5 -19c0 -6.66699 4.33301 -10 13 -10c8 0 21.667 15 41 45l72 115c36.667 58.667 75.667 126.667 117 204c5.33301 9.33301 17 31.333 35 66l74 143l20 37c6.66699 12 13.667 23.667 21 35c32.667 -11.333 63.667 -17 93 -17c24 0 47 4.66699 69 14
c26 12 39 29.333 39 52zM1346 684.001c0 -19.333 -12.333 -34 -37 -44c-20 -7.33301 -40.667 -11 -62 -11c-18 0 -47 5 -87 15c38.667 50 81.667 75 129 75c12 0 24.5 -3.16699 37.5 -9.5s19.5 -14.833 19.5 -25.5zM1143 638.001
c-13.333 -20 -26.335 -42.666 -39.002 -67.999c-57.333 -111.333 -94.333 -184.333 -111 -219c-14.667 -28 -33.667 -62 -57 -102s-51.666 -86 -84.999 -138c22.667 63.333 34 109.333 34 138l-20 125l-15 95c-3.33301 21.333 -5 32.666 -5 33.999
c0 38 11.333 72.333 34 103c7.33301 9.33301 17.666 20.333 30.999 33s30 27.334 50 44.001c-61.333 20.667 -112.666 31 -153.999 31c-54.667 0 -111 -12 -169 -36c-73.333 -31.333 -110 -69.666 -110 -114.999c0 -23.333 13.333 -41 40 -53l2 9
c-21.333 13.333 -32 28 -32 44c0 41.333 36 76.666 108 105.999c58.667 24 112.334 36 161.001 36c32 0 76 -9 132 -27c-78 -68 -128 -124 -150 -168l-97 -193.5l-61 -121.5c-92.667 -182.667 -208 -274 -346 -274c-80 0 -145 21 -195 63c-54 44 -81 105 -81 183
c0 89.333 30.667 164.666 92 225.999c60.667 62 136 93 226 93c8.66699 0 18.5 -0.5 29.5 -1.5s23.5 -2.83301 37.5 -5.5c0 -42.667 13 -80.334 39 -113.001c27.333 -32 61.666 -51 102.999 -57c0 -73.333 -17.333 -134.333 -52 -183c-23.333 -33.333 -55 -61.333 -95 -84
c-40.667 -22.667 -80 -34 -118 -34c-42 0 -76.667 14.667 -104 44c-26.667 28.667 -40 65 -40 109c0 54 18 103 54 147c38.667 46.667 84.334 70 137.001 70c34 0 63.333 -12.333 88 -37c25.333 -24 38 -52.667 38 -86c0 -17.333 -7.66699 -43.333 -23 -78
c0.666992 0 1.83398 0.166992 3.50098 0.5l7.5 1.5c14.667 28.667 22 54 22 76c0 38 -13.333 69.333 -40 94c-27.333 25.333 -59.333 38 -96 38c-57.333 0 -105.333 -24 -144 -72c-38 -45.333 -57 -96.666 -57 -153.999c0 -23.333 3.66699 -44.833 11 -64.5
s17.833 -36.667 31.5 -51s29.834 -25.5 48.501 -33.5s39.667 -12 63 -12c41.333 0 82.666 11.667 123.999 35c100 56 150 147 150 273c97.333 13.333 146 64.666 146 153.999c0 16 -6 40.667 -18 74l-9 -2c11.333 -30.667 17 -54.667 17 -72
c0 -83.333 -46 -130.333 -138 -141c-10.667 42.667 -25.667 76 -45 100c-18.667 24.667 -47.334 45.334 -86.001 62.001c18 100.667 70 171.667 156 213c66.667 32 128.667 48 186 48c70 0 200 -35.333 390 -106zM532.997 321.002
c-36 7.33301 -65.334 25.332 -88.001 53.999s-34 61.334 -34 98.001c37.333 -14.667 65.333 -35 84 -61c12.667 -18 25.334 -48.333 38.001 -91zM1180 878.001c-11.333 -18 -23.334 -27 -36.001 -27c-12 0 -29.333 3 -52 9c-22 6.66699 -39 10 -51 10
c-12.667 0 -24.667 -7.66699 -36 -23l-36 -52l17 -9c10 18.667 22.333 28 37 28c0.666992 0 4.83398 -0.833008 12.501 -2.5l33.5 -7.5c30 -6 48 -9 54 -9c15.333 0 28 7 38 21l36 52z" />
    <glyph glyph-name="Ograve" unicode="&#xd2;" horiz-adv-x="600" 
d="M570 476c0 34 -9.66699 65.6641 -29 94.9971c-22.667 32.667 -50 49 -82 49c-55.333 0 -108 -34.333 -158 -103c-46.667 -64.667 -70 -125.667 -70 -183c0 -24 6.5 -44.333 19.5 -61s31.167 -25 54.5 -25c44.667 0 84.334 22.333 119.001 67
c32.667 40.667 49 84.334 49 131.001c0 16 -4.33301 31.5 -13 46.5s-20.334 22.5 -35.001 22.5c-17.333 0 -39 -13 -65 -39l7 -7c20.667 24 40 36 58 36c12 0 21.333 -7.33301 28 -22c6 -12 9 -24.333 9 -37c0 -34 -14.333 -71.667 -43 -113
c-33.333 -49.333 -71.333 -74 -114 -74c-20.667 0 -36.667 7.66699 -48 23c-10 12.667 -15 30 -15 52c0 54.667 22.333 113.334 67 176.001c48 67.333 98 101 150 101c37.333 0 56 -27 56 -81c0 -79.333 -36 -184.333 -108 -315
c-32.667 -58.667 -66.667 -107.334 -102 -146.001c-52 -56.667 -101 -85 -147 -85c-26 0 -47 10 -63 30c-14 18.667 -21 41.334 -21 68.001c0 116.667 55 251.667 165 405c27.333 38 53.333 67.333 78 88s59 41.667 103 63h-42c-53.333 -7.33301 -110.666 -39 -171.999 -95
c-56.667 -51.333 -103.334 -109.333 -140.001 -174c-44 -76 -66 -146.333 -66 -211c0 -49.333 13.667 -91.333 41 -126c28.667 -36 67.667 -54 117 -54c64.667 0 129.667 27.333 195 82c54 44.667 100 100 138 166c18 30.667 35.333 71.334 52 122.001
c18 54 27 96.667 27 128zM474 712.997l-64 134c-12 15.333 -25.333 23 -40 23c-12 0 -22.167 -4 -30.5 -12s-12.5 -18 -12.5 -30c0 -14 7 -27.333 21 -40l100 -75h26z" />
    <glyph glyph-name="Oacute" unicode="&#xd3;" horiz-adv-x="600" 
d="M570 476c0 34 -9.66699 65.6641 -29 94.9971c-22.667 32.667 -50 49 -82 49c-55.333 0 -108 -34.333 -158 -103c-46.667 -64.667 -70 -125.667 -70 -183c0 -24 6.5 -44.333 19.5 -61s31.167 -25 54.5 -25c44.667 0 84.334 22.333 119.001 67
c32.667 40.667 49 84.334 49 131.001c0 16 -4.33301 31.5 -13 46.5s-20.334 22.5 -35.001 22.5c-17.333 0 -39 -13 -65 -39l7 -7c20.667 24 40 36 58 36c12 0 21.333 -7.33301 28 -22c6 -12 9 -24.333 9 -37c0 -34 -14.333 -71.667 -43 -113
c-33.333 -49.333 -71.333 -74 -114 -74c-20.667 0 -36.667 7.66699 -48 23c-10 12.667 -15 30 -15 52c0 54.667 22.333 113.334 67 176.001c48 67.333 98 101 150 101c37.333 0 56 -27 56 -81c0 -79.333 -36 -184.333 -108 -315
c-32.667 -58.667 -66.667 -107.334 -102 -146.001c-52 -56.667 -101 -85 -147 -85c-26 0 -47 10 -63 30c-14 18.667 -21 41.334 -21 68.001c0 116.667 55 251.667 165 405c27.333 38 53.333 67.333 78 88s59 41.667 103 63h-42c-53.333 -7.33301 -110.666 -39 -171.999 -95
c-56.667 -51.333 -103.334 -109.333 -140.001 -174c-44 -76 -66 -146.333 -66 -211c0 -49.333 13.667 -91.333 41 -126c28.667 -36 67.667 -54 117 -54c64.667 0 129.667 27.333 195 82c54 44.667 100 100 138 166c18 30.667 35.333 71.334 52 122.001
c18 54 27 96.667 27 128zM735 831.997c0 25.333 -14.668 38 -44.001 38c-13.333 0 -26.666 -7.66699 -39.999 -23l-118 -134h30l151 79c14 12.667 21 26 21 40z" />
    <glyph glyph-name="Ocircumflex" unicode="&#xd4;" horiz-adv-x="600" 
d="M570 476c0 34 -9.66699 65.6641 -29 94.9971c-22.667 32.667 -50 49 -82 49c-55.333 0 -108 -34.333 -158 -103c-46.667 -64.667 -70 -125.667 -70 -183c0 -24 6.5 -44.333 19.5 -61s31.167 -25 54.5 -25c44.667 0 84.334 22.333 119.001 67
c32.667 40.667 49 84.334 49 131.001c0 16 -4.33301 31.5 -13 46.5s-20.334 22.5 -35.001 22.5c-17.333 0 -39 -13 -65 -39l7 -7c20.667 24 40 36 58 36c12 0 21.333 -7.33301 28 -22c6 -12 9 -24.333 9 -37c0 -34 -14.333 -71.667 -43 -113
c-33.333 -49.333 -71.333 -74 -114 -74c-20.667 0 -36.667 7.66699 -48 23c-10 12.667 -15 30 -15 52c0 54.667 22.333 113.334 67 176.001c48 67.333 98 101 150 101c37.333 0 56 -27 56 -81c0 -79.333 -36 -184.333 -108 -315
c-32.667 -58.667 -66.667 -107.334 -102 -146.001c-52 -56.667 -101 -85 -147 -85c-26 0 -47 10 -63 30c-14 18.667 -21 41.334 -21 68.001c0 116.667 55 251.667 165 405c27.333 38 53.333 67.333 78 88s59 41.667 103 63h-42c-53.333 -7.33301 -110.666 -39 -171.999 -95
c-56.667 -51.333 -103.334 -109.333 -140.001 -174c-44 -76 -66 -146.333 -66 -211c0 -49.333 13.667 -91.333 41 -126c28.667 -36 67.667 -54 117 -54c64.667 0 129.667 27.333 195 82c54 44.667 100 100 138 166c18 30.667 35.333 71.334 52 122.001
c18 54 27 96.667 27 128zM557 773.997l24 -55h19l-8 151l-215 -151h38z" />
    <glyph glyph-name="Otilde" unicode="&#xd5;" horiz-adv-x="600" 
d="M570 476c0 34 -9.66699 65.6641 -29 94.9971c-22.667 32.667 -50 49 -82 49c-55.333 0 -108 -34.333 -158 -103c-46.667 -64.667 -70 -125.667 -70 -183c0 -24 6.5 -44.333 19.5 -61s31.167 -25 54.5 -25c44.667 0 84.334 22.333 119.001 67
c32.667 40.667 49 84.334 49 131.001c0 16 -4.33301 31.5 -13 46.5s-20.334 22.5 -35.001 22.5c-17.333 0 -39 -13 -65 -39l7 -7c20.667 24 40 36 58 36c12 0 21.333 -7.33301 28 -22c6 -12 9 -24.333 9 -37c0 -34 -14.333 -71.667 -43 -113
c-33.333 -49.333 -71.333 -74 -114 -74c-20.667 0 -36.667 7.66699 -48 23c-10 12.667 -15 30 -15 52c0 54.667 22.333 113.334 67 176.001c48 67.333 98 101 150 101c37.333 0 56 -27 56 -81c0 -79.333 -36 -184.333 -108 -315
c-32.667 -58.667 -66.667 -107.334 -102 -146.001c-52 -56.667 -101 -85 -147 -85c-26 0 -47 10 -63 30c-14 18.667 -21 41.334 -21 68.001c0 116.667 55 251.667 165 405c27.333 38 53.333 67.333 78 88s59 41.667 103 63h-42c-53.333 -7.33301 -110.666 -39 -171.999 -95
c-56.667 -51.333 -103.334 -109.333 -140.001 -174c-44 -76 -66 -146.333 -66 -211c0 -49.333 13.667 -91.333 41 -126c28.667 -36 67.667 -54 117 -54c64.667 0 129.667 27.333 195 82c54 44.667 100 100 138 166c18 30.667 35.333 71.334 52 122.001
c18 54 27 96.667 27 128zM673 877.997c-11.333 -18 -23.334 -27 -36.001 -27c-12 0 -29.333 3 -52 9c-22 6.66699 -39 10 -51 10c-12.667 0 -24.667 -7.66699 -36 -23l-36 -52l17 -9c10 18.667 22.333 28 37 28c0.666992 0 4.83398 -0.833008 12.501 -2.5l33.5 -7.5
c30 -6 48 -9 54 -9c15.333 0 28 7 38 21l36 52z" />
    <glyph glyph-name="Odieresis" unicode="&#xd6;" horiz-adv-x="600" 
d="M570 476c0 34 -9.66699 65.6641 -29 94.9971c-22.667 32.667 -50 49 -82 49c-55.333 0 -108 -34.333 -158 -103c-46.667 -64.667 -70 -125.667 -70 -183c0 -24 6.5 -44.333 19.5 -61s31.167 -25 54.5 -25c44.667 0 84.334 22.333 119.001 67
c32.667 40.667 49 84.334 49 131.001c0 16 -4.33301 31.5 -13 46.5s-20.334 22.5 -35.001 22.5c-17.333 0 -39 -13 -65 -39l7 -7c20.667 24 40 36 58 36c12 0 21.333 -7.33301 28 -22c6 -12 9 -24.333 9 -37c0 -34 -14.333 -71.667 -43 -113
c-33.333 -49.333 -71.333 -74 -114 -74c-20.667 0 -36.667 7.66699 -48 23c-10 12.667 -15 30 -15 52c0 54.667 22.333 113.334 67 176.001c48 67.333 98 101 150 101c37.333 0 56 -27 56 -81c0 -79.333 -36 -184.333 -108 -315
c-32.667 -58.667 -66.667 -107.334 -102 -146.001c-52 -56.667 -101 -85 -147 -85c-26 0 -47 10 -63 30c-14 18.667 -21 41.334 -21 68.001c0 116.667 55 251.667 165 405c27.333 38 53.333 67.333 78 88s59 41.667 103 63h-42c-53.333 -7.33301 -110.666 -39 -171.999 -95
c-56.667 -51.333 -103.334 -109.333 -140.001 -174c-44 -76 -66 -146.333 -66 -211c0 -49.333 13.667 -91.333 41 -126c28.667 -36 67.667 -54 117 -54c64.667 0 129.667 27.333 195 82c54 44.667 100 100 138 166c18 30.667 35.333 71.334 52 122.001
c18 54 27 96.667 27 128zM689 824.997c0 30 -12.667 45 -38 45c-13.333 0 -25.333 -5.5 -36 -16.5s-16 -23.167 -16 -36.5c0 -30 12.333 -45 37 -45c13.333 0 25.5 5.5 36.5 16.5s16.5 23.167 16.5 36.5zM555 824.997c0 30 -12.333 45 -37 45
c-13.333 0 -25.5 -5.5 -36.5 -16.5s-16.5 -23.167 -16.5 -36.5c0 -30 12.667 -45 38 -45c13.333 0 25.333 5.5 36 16.5s16 23.167 16 36.5z" />
    <glyph glyph-name="multiply" unicode="&#xd7;" horiz-adv-x="551" 
d="M375 43l43 43l-100 99l100 99l-43 43l-99 -99l-100 99l-42 -43l99 -99l-99 -99l42 -43l100 99z" />
    <glyph glyph-name="Oslash" unicode="&#xd8;" horiz-adv-x="863" 
d="M770 120c0 46 -18.6709 80.666 -56.0039 103.999c-32 20 -72.333 30 -121 30c-36 0 -95.333 -20.667 -178 -62c-80.667 -40.667 -139 -61 -175 -61c-40 0 -75.333 13.333 -106 40s-46 59.667 -46 99c0 31.333 11.667 56 35 74c20.667 16.667 47.334 25 80.001 25
c29.333 0 56.333 -7.66699 81 -23c26.667 -18 40 -41.333 40 -70c0 -22 -7.83301 -40.5 -23.5 -55.5s-34.5 -22.5 -56.5 -22.5c-32.667 0 -49 12.333 -49 37c0 4.66699 1 9.66699 3 15c11.333 10 21.666 16.667 30.999 20c-1.33301 17.333 -8.33301 26 -21 26
c-14.667 0 -27 -5 -37 -15s-15 -22.333 -15 -37c0 -20.667 8.33301 -36.334 25 -47.001c14.667 -10 32.334 -15 53.001 -15c28 0 51.833 8.66699 71.5 26s29.5 40 29.5 68c0 32.667 -14.667 58.667 -44 78c-25.333 17.333 -55 26 -89 26c-96.667 0 -145 -40 -145 -120
c0 -44 20.333 -79.333 61 -106c34.667 -22.667 75.334 -34 122.001 -34c39.333 0 99.333 20.333 180 61c81.333 41.333 139 62 173 62c38.667 0 73.667 -12.667 105 -38c30.667 -24.667 46 -56.667 46 -96c0 -26 -7.33301 -48.333 -22 -67c-16 -20.667 -36.667 -31 -62 -31
c-24 0 -50.333 6 -79 18l-4 -11c30.667 -12 58.334 -18 83.001 -18c16 0 30.833 3.16699 44.5 9.5s25.334 14.833 35.001 25.5s17.167 23.334 22.5 38.001s8 30.334 8 47.001z" />
    <glyph glyph-name="Ugrave" unicode="&#xd9;" horiz-adv-x="865" 
d="M1543 423c0 62.667 -29.665 111.667 -88.998 147c-51.333 30 -110 45 -176 45c-56 0 -100 -4.33301 -132 -13c-27.333 -7.33301 -76.333 -24.333 -147 -51c-22.667 17.333 -43.667 31.833 -63 43.5s-37.333 20.834 -54 27.501c-36.667 13.333 -81.667 20 -135 20h-46v-6
h54c53.333 0 125.333 -32.333 216 -97c-136 -88 -243.333 -195 -322 -321l-43.5 -71l-27.5 -45c-46.667 -72.667 -93.334 -109 -140.001 -109c-24.667 0 -37 15 -37 45c0 29.333 16 66 48 110l54 73.5l35 46.5l32 44.5c8 11 13.333 18.833 16 23.5
c11.333 21.333 17 45.666 17 72.999c0 72 -20.5 127.833 -61.5 167.5s-97.5 59.5 -169.5 59.5c-111.333 0 -202.333 -33.333 -273 -100c-62.667 -58.667 -94 -122.334 -94 -191.001c0 -46 15.667 -84.667 47 -116c32.667 -31.333 72 -47 118 -47
c67.333 0 122.666 14 165.999 42l-3 6c-46 -26 -100.333 -39 -163 -39c-42.667 0 -79.667 14.667 -111 44c-30 30 -45 66.667 -45 110c0 66 31 127.667 93 185c70.667 64.667 159 97 265 97c52.667 0 95.667 -13 129 -39c35.333 -29.333 53 -69.666 53 -120.999
c0 -25.333 -17 -61.333 -51 -108l-58.5 -81l-37.5 -52c-34 -49.333 -51 -95.666 -51 -138.999c0 -26 7.33301 -49.333 22 -70c16 -23.333 36 -35 60 -35c40.667 0 88 32.333 142 97c0 -64.667 19.667 -97 59 -97c48.667 0 90.667 22.667 126 68v18
c-37.333 -45.333 -74.333 -68 -111 -68c-10 0 -15 5 -15 15c0 28 37 104.667 111 230c55.333 94 137 184 245 270c130 -138 262.333 -207 397 -207c30 0 57.667 7 83 21c45.333 25.333 68 56.666 68 93.999zM1533 423c0 -30.667 -16.332 -56.333 -48.999 -77
c-28.667 -18.667 -59.334 -28 -92.001 -28c-102 0 -227 72 -375 216c98 47.333 185 71 261 71c64 0 120 -14 168 -42c58 -34 87 -80.667 87 -140zM802.003 713.001l-64 134c-12 15.333 -25.333 23 -40 23c-12 0 -22.167 -4 -30.5 -12s-12.5 -18 -12.5 -30
c0 -14 7 -27.333 21 -40l100 -75h26z" />
    <glyph glyph-name="Uacute" unicode="&#xda;" horiz-adv-x="865" 
d="M1543 423c0 62.667 -29.665 111.667 -88.998 147c-51.333 30 -110 45 -176 45c-56 0 -100 -4.33301 -132 -13c-27.333 -7.33301 -76.333 -24.333 -147 -51c-22.667 17.333 -43.667 31.833 -63 43.5s-37.333 20.834 -54 27.501c-36.667 13.333 -81.667 20 -135 20h-46v-6
h54c53.333 0 125.333 -32.333 216 -97c-136 -88 -243.333 -195 -322 -321l-43.5 -71l-27.5 -45c-46.667 -72.667 -93.334 -109 -140.001 -109c-24.667 0 -37 15 -37 45c0 29.333 16 66 48 110l54 73.5l35 46.5l32 44.5c8 11 13.333 18.833 16 23.5
c11.333 21.333 17 45.666 17 72.999c0 72 -20.5 127.833 -61.5 167.5s-97.5 59.5 -169.5 59.5c-111.333 0 -202.333 -33.333 -273 -100c-62.667 -58.667 -94 -122.334 -94 -191.001c0 -46 15.667 -84.667 47 -116c32.667 -31.333 72 -47 118 -47
c67.333 0 122.666 14 165.999 42l-3 6c-46 -26 -100.333 -39 -163 -39c-42.667 0 -79.667 14.667 -111 44c-30 30 -45 66.667 -45 110c0 66 31 127.667 93 185c70.667 64.667 159 97 265 97c52.667 0 95.667 -13 129 -39c35.333 -29.333 53 -69.666 53 -120.999
c0 -25.333 -17 -61.333 -51 -108l-58.5 -81l-37.5 -52c-34 -49.333 -51 -95.666 -51 -138.999c0 -26 7.33301 -49.333 22 -70c16 -23.333 36 -35 60 -35c40.667 0 88 32.333 142 97c0 -64.667 19.667 -97 59 -97c48.667 0 90.667 22.667 126 68v18
c-37.333 -45.333 -74.333 -68 -111 -68c-10 0 -15 5 -15 15c0 28 37 104.667 111 230c55.333 94 137 184 245 270c130 -138 262.333 -207 397 -207c30 0 57.667 7 83 21c45.333 25.333 68 56.666 68 93.999zM1533 423c0 -30.667 -16.332 -56.333 -48.999 -77
c-28.667 -18.667 -59.334 -28 -92.001 -28c-102 0 -227 72 -375 216c98 47.333 185 71 261 71c64 0 120 -14 168 -42c58 -34 87 -80.667 87 -140zM1020 832.001c0 25.333 -14.668 38 -44.001 38c-13.333 0 -26.666 -7.66699 -39.999 -23l-118 -134h30l151 79
c14 12.667 21 26 21 40z" />
    <glyph glyph-name="Ucircumflex" unicode="&#xdb;" horiz-adv-x="865" 
d="M1543 423c0 62.667 -29.665 111.667 -88.998 147c-51.333 30 -110 45 -176 45c-56 0 -100 -4.33301 -132 -13c-27.333 -7.33301 -76.333 -24.333 -147 -51c-22.667 17.333 -43.667 31.833 -63 43.5s-37.333 20.834 -54 27.501c-36.667 13.333 -81.667 20 -135 20h-46v-6
h54c53.333 0 125.333 -32.333 216 -97c-136 -88 -243.333 -195 -322 -321l-43.5 -71l-27.5 -45c-46.667 -72.667 -93.334 -109 -140.001 -109c-24.667 0 -37 15 -37 45c0 29.333 16 66 48 110l54 73.5l35 46.5l32 44.5c8 11 13.333 18.833 16 23.5
c11.333 21.333 17 45.666 17 72.999c0 72 -20.5 127.833 -61.5 167.5s-97.5 59.5 -169.5 59.5c-111.333 0 -202.333 -33.333 -273 -100c-62.667 -58.667 -94 -122.334 -94 -191.001c0 -46 15.667 -84.667 47 -116c32.667 -31.333 72 -47 118 -47
c67.333 0 122.666 14 165.999 42l-3 6c-46 -26 -100.333 -39 -163 -39c-42.667 0 -79.667 14.667 -111 44c-30 30 -45 66.667 -45 110c0 66 31 127.667 93 185c70.667 64.667 159 97 265 97c52.667 0 95.667 -13 129 -39c35.333 -29.333 53 -69.666 53 -120.999
c0 -25.333 -17 -61.333 -51 -108l-58.5 -81l-37.5 -52c-34 -49.333 -51 -95.666 -51 -138.999c0 -26 7.33301 -49.333 22 -70c16 -23.333 36 -35 60 -35c40.667 0 88 32.333 142 97c0 -64.667 19.667 -97 59 -97c48.667 0 90.667 22.667 126 68v18
c-37.333 -45.333 -74.333 -68 -111 -68c-10 0 -15 5 -15 15c0 28 37 104.667 111 230c55.333 94 137 184 245 270c130 -138 262.333 -207 397 -207c30 0 57.667 7 83 21c45.333 25.333 68 56.666 68 93.999zM1533 423c0 -30.667 -16.332 -56.333 -48.999 -77
c-28.667 -18.667 -59.334 -28 -92.001 -28c-102 0 -227 72 -375 216c98 47.333 185 71 261 71c64 0 120 -14 168 -42c58 -34 87 -80.667 87 -140zM896.003 774.001l24 -55h19l-8 151l-215 -151h38z" />
    <glyph glyph-name="Udieresis" unicode="&#xdc;" horiz-adv-x="865" 
d="M1543 423c0 62.667 -29.665 111.667 -88.998 147c-51.333 30 -110 45 -176 45c-56 0 -100 -4.33301 -132 -13c-27.333 -7.33301 -76.333 -24.333 -147 -51c-22.667 17.333 -43.667 31.833 -63 43.5s-37.333 20.834 -54 27.501c-36.667 13.333 -81.667 20 -135 20h-46v-6
h54c53.333 0 125.333 -32.333 216 -97c-136 -88 -243.333 -195 -322 -321l-43.5 -71l-27.5 -45c-46.667 -72.667 -93.334 -109 -140.001 -109c-24.667 0 -37 15 -37 45c0 29.333 16 66 48 110l54 73.5l35 46.5l32 44.5c8 11 13.333 18.833 16 23.5
c11.333 21.333 17 45.666 17 72.999c0 72 -20.5 127.833 -61.5 167.5s-97.5 59.5 -169.5 59.5c-111.333 0 -202.333 -33.333 -273 -100c-62.667 -58.667 -94 -122.334 -94 -191.001c0 -46 15.667 -84.667 47 -116c32.667 -31.333 72 -47 118 -47
c67.333 0 122.666 14 165.999 42l-3 6c-46 -26 -100.333 -39 -163 -39c-42.667 0 -79.667 14.667 -111 44c-30 30 -45 66.667 -45 110c0 66 31 127.667 93 185c70.667 64.667 159 97 265 97c52.667 0 95.667 -13 129 -39c35.333 -29.333 53 -69.666 53 -120.999
c0 -25.333 -17 -61.333 -51 -108l-58.5 -81l-37.5 -52c-34 -49.333 -51 -95.666 -51 -138.999c0 -26 7.33301 -49.333 22 -70c16 -23.333 36 -35 60 -35c40.667 0 88 32.333 142 97c0 -64.667 19.667 -97 59 -97c48.667 0 90.667 22.667 126 68v18
c-37.333 -45.333 -74.333 -68 -111 -68c-10 0 -15 5 -15 15c0 28 37 104.667 111 230c55.333 94 137 184 245 270c130 -138 262.333 -207 397 -207c30 0 57.667 7 83 21c45.333 25.333 68 56.666 68 93.999zM1533 423c0 -30.667 -16.332 -56.333 -48.999 -77
c-28.667 -18.667 -59.334 -28 -92.001 -28c-102 0 -227 72 -375 216c98 47.333 185 71 261 71c64 0 120 -14 168 -42c58 -34 87 -80.667 87 -140zM973.003 825.001c0 30 -12.667 45 -38 45c-13.333 0 -25.333 -5.5 -36 -16.5s-16 -23.167 -16 -36.5c0 -30 12.333 -45 37 -45
c13.333 0 25.5 5.5 36.5 16.5s16.5 23.167 16.5 36.5zM839.003 825.001c0 30 -12.333 45 -37 45c-13.333 0 -25.5 -5.5 -36.5 -16.5s-16.5 -23.167 -16.5 -36.5c0 -30 12.667 -45 38 -45c13.333 0 25.333 5.5 36 16.5s16 23.167 16 36.5z" />
    </font>
</defs>
</svg>
